SplineFontDB: 3.0
FontName: RoundStyle-Book
FullName: Round Style Book
FamilyName: Round Style
Weight: Book
Copyright: Copyright (c) 2020-2024 by Wojciech Kalinowski "wmk69" with Reserved Font Name "RoundStyle-Book".\nThis Font Software is licensed under the SIL Open Font License, Version 1.1.
Version: 3.1.0; 2021-05-15
ItalicAngle: 0
UnderlinePosition: -80
UnderlineWidth: 200
Ascent: 1638
Descent: 410
InvalidEm: 0
LayerCount: 2
Layer: 0 1 "Warstwa t+AUIA-a" 1
Layer: 1 1 "Plan pierwszy" 0
XUID: [1021 783 23647091 2952791]
StyleMap: 0x0040
FSType: 0
OS2Version: 3
OS2_WeightWidthSlopeOnly: 0
OS2_UseTypoMetrics: 1
CreationTime: 1260698820
ModificationTime: 1621078908
PfmFamily: 17
TTFWeight: 400
TTFWidth: 5
LineGap: 200
VLineGap: 0
Panose: 2 2 5 3 5 5 8 6 4 4
OS2TypoAscent: 2000
OS2TypoAOffset: 0
OS2TypoDescent: -500
OS2TypoDOffset: 0
OS2TypoLinegap: 200
OS2WinAscent: 2000
OS2WinAOffset: 0
OS2WinDescent: 500
OS2WinDOffset: 0
HheadAscent: 2000
HheadAOffset: 0
HheadDescent: -500
HheadDOffset: 0
OS2SubXSize: 1434
OS2SubYSize: 1331
OS2SubXOff: 0
OS2SubYOff: 287
OS2SupXSize: 1434
OS2SupYSize: 1331
OS2SupXOff: 0
OS2SupYOff: 977
OS2StrikeYSize: 102
OS2StrikeYPos: 512
OS2CapHeight: 1510
OS2XHeight: 1100
OS2Vendor: '    '
OS2CodePages: 20000093.00000000
OS2UnicodeRanges: 8000002f.4000204b.00000000.00000000
Lookup: 258 0 0 "'kern' Horizontal Kerning lookup 0-0" { "'kern' Horizontal Kerning lookup 0-1 subtable" [307,0,4] } ['kern' ('DFLT' <'dflt' > 'grek' <'dflt' > 'latn' <'dflt' > ) ]
MarkAttachClasses: 1
DEI: 91125
KernClass2: 64 50 "'kern' Horizontal Kerning lookup 0-1 subtable"
 94 A M Agrave Aacute Acircumflex Atilde Adieresis Aring Amacron Abreve Aogonek Aringacute uni1E40
 28 B germandbls uni1E02 uni1E9E
 140 C E AE Ccedilla Egrave Eacute Ecircumflex Edieresis Cacute Ccircumflex Cdotaccent Ccaron Emacron Ebreve Edotaccent Eogonek Ecaron OE AEacute

StartChar: .notdef
Encoding: 65536 -1 0
Width: 994
Flags: W
HStem: 0 40<260 734> 1470 40<260 734>
VStem: 150 110<40 1470> 734 110<40 1470>
LayerCount: 2
Fore
SplineSet
150 0 m 1,0,-1
 150 1510 l 1,1,-1
 844 1510 l 1,2,-1
 844 0 l 1,3,-1
 150 0 l 1,0,-1
260 40 m 1,4,-1
 734 40 l 1,5,-1
 734 1470 l 1,6,-1
 260 1470 l 1,7,-1
 260 40 l 1,4,-1
EndSplineSet
Validated: 1
EndChar

StartChar: exclam
Encoding: 33 33 4
Width: 692
GlyphClass: 2
Flags: W
HStem: -20 264<255.191 436.809> 1510 20G<319 373>
VStem: 216 260<19.7072 204.293 1013.69 1490.29>
LayerCount: 2
Fore
SplineSet
346 1530 m 128,-1,1
 400 1530 400 1530 438 1491.5 c 128,-1,2
 476 1453 476 1453 476 1398 c 0,3,4
 476 1382 476 1382 474 1365 c 2,5,-1
 353 343 l 1,6,-1
 339 343 l 1,7,-1
 218 1365 l 2,8,9
 216 1382 216 1382 216 1398 c 0,10,11
 216 1453 216 1453 254 1491.5 c 128,-1,0
 292 1530 292 1530 346 1530 c 128,-1,1
346 -20 m 128,-1,13
 292 -20 292 -20 254 18.5 c 128,-1,14
 216 57 216 57 216 112 c 128,-1,15
 216 167 216 167 254 205.5 c 128,-1,16
 292 244 292 244 346 244 c 128,-1,17
 400 244 400 244 438 205.5 c 128,-1,18
 476 167 476 167 476 112 c 128,-1,19
 476 57 476 57 438 18.5 c 128,-1,12
 400 -20 400 -20 346 -20 c 128,-1,13
EndSplineSet
Validated: 1
EndChar

StartChar: quotedbl
Encoding: 34 34 5
Width: 459
GlyphClass: 2
Flags: W
HStem: 1186 364<50 170 289 409>
VStem: 50 120<1186 1550> 289 120<1186 1550>
LayerCount: 2
Fore
SplineSet
289 1550 m 1,0,-1
 409 1550 l 1,1,-1
 409 1186 l 1,2,-1
 289 1186 l 1,3,-1
 289 1550 l 1,0,-1
50 1550 m 1,4,-1
 170 1550 l 1,5,-1
 170 1186 l 1,6,-1
 50 1186 l 1,7,-1
 50 1550 l 1,4,-1
EndSplineSet
Validated: 1
EndChar

StartChar: numbersign
Encoding: 35 35 6
Width: 1259
GlyphClass: 2
Flags: W
HStem: 514 120<151 396 516 744 864 1109> 862 120<150 396 516 744 864 1108>
VStem: 396 120<268 514 634 862 982 1226> 744 120<270 514 634 862 982 1228>
LayerCount: 2
Fore
SplineSet
396 1226 m 1,0,-1
 516 1226 l 1,1,-1
 516 982 l 1,2,-1
 744 982 l 1,3,-1
 744 1228 l 1,4,-1
 864 1228 l 1,5,-1
 864 982 l 1,6,-1
 1108 982 l 1,7,-1
 1108 862 l 1,8,-1
 864 862 l 1,9,-1
 864 634 l 1,10,-1
 1109 634 l 1,11,-1
 1109 514 l 1,12,-1
 864 514 l 1,13,-1
 864 270 l 1,14,-1
 744 270 l 1,15,-1
 744 514 l 1,16,-1
 516 514 l 1,17,-1
 516 268 l 1,18,-1
 396 268 l 1,19,-1
 396 514 l 1,20,-1
 151 514 l 1,21,-1
 151 634 l 1,22,-1
 396 634 l 1,23,-1
 396 862 l 1,24,-1
 150 862 l 1,25,-1
 150 982 l 1,26,-1
 396 982 l 1,27,-1
 396 1226 l 1,0,-1
744 634 m 1,28,-1
 744 862 l 1,29,-1
 516 862 l 1,30,-1
 516 634 l 1,31,-1
 744 634 l 1,28,-1
EndSplineSet
Validated: 1
EndChar

StartChar: dollar
Encoding: 36 36 7
Width: 1269
GlyphClass: 2
Flags: W
HStem: -20 80<453.494 614 694 789.708> 1445 83<524.735 614 694 785.792>
VStem: 290 165<1143.05 1371.51> 614 80<-100 -20 67 800 1057 1445 1525.39 1610> 993 196<297.18 613.133>
DStem2: 614 1057 563 862 0.90416 -0.427195<-166.905 0 88.5662 93.5556 182.122 466.539>
LayerCount: 2
Fore
SplineSet
614 -20 m 1,0,1
 372 -20 372 -20 234 112 c 0,2,3
 142 200 142 200 80 354 c 1,4,-1
 295 565 l 1,5,-1
 302 559 l 1,6,7
 281 476 281 476 281 381 c 0,8,9
 281 267 281 267 343 190 c 0,10,11
 447 60 447 60 614 60 c 1,12,-1
 614 838 l 1,13,-1
 563 862 l 2,14,15
 290 991 290 991 290 1210 c 0,16,17
 290 1351 290 1351 397 1444 c 0,18,19
 481 1517 481 1517 614 1528 c 1,20,-1
 614 1610 l 1,21,-1
 694 1610 l 1,22,-1
 694 1529 l 1,23,24
 838 1521 838 1521 921 1438 c 0,25,26
 968 1391 968 1391 997 1322 c 1,27,-1
 843 1169 l 1,28,-1
 836 1175 l 1,29,30
 846 1207 846 1207 846 1242 c 0,31,32
 846 1309 846 1309 819 1361 c 0,33,34
 779 1438 779 1438 694 1448 c 1,35,-1
 694 1019 l 1,36,-1
 882 932 l 2,37,38
 1189 790 1189 790 1189 498 c 0,39,40
 1189 287 1189 287 1022 135 c 0,41,42
 880 7 880 7 694 -15 c 1,43,-1
 694 -100 l 1,44,-1
 614 -100 l 1,45,-1
 614 -20 l 1,0,1
614 1057 m 1,46,-1
 614 1445 l 1,47,48
 556 1433 556 1433 513 1395 c 0,49,50
 455 1342 455 1342 455 1255 c 0,51,52
 455 1141 455 1141 614 1057 c 1,46,-1
694 800 m 1,53,-1
 694 67 l 1,54,55
 819 90 819 90 900 189 c 0,56,57
 993 303 993 303 993 446 c 0,58,59
 993 659 993 659 781 759 c 2,60,-1
 694 800 l 1,53,-1
EndSplineSet
Validated: 1
EndChar

StartChar: percent
Encoding: 37 37 8
Width: 1593
GlyphClass: 2
Flags: W
HStem: -20 60<1046.66 1215.34> 554 60<1046.66 1215.34> 896 60<377.664 546.336> 1470 60<377.664 546.336>
VStem: 150 134<1047.05 1378.95> 640 134<1047.05 1378.95> 819 134<131.05 462.95> 1309 134<131.05 462.95>
DStem2: 365 45 501 -20 0.44214 0.896946<1.82948 1655.61>
LayerCount: 2
Fore
SplineSet
1131 554 m 128,-1,1
 1057 554 1057 554 1005 479.5 c 128,-1,2
 953 405 953 405 953 297 c 128,-1,3
 953 189 953 189 1005 114.5 c 128,-1,4
 1057 40 1057 40 1131 40 c 128,-1,5
 1205 40 1205 40 1257 114.5 c 128,-1,6
 1309 189 1309 189 1309 297 c 128,-1,7
 1309 405 1309 405 1257 479.5 c 128,-1,0
 1205 554 1205 554 1131 554 c 128,-1,1
1131 -20 m 128,-1,9
 1001 -20 1001 -20 910 72.5 c 128,-1,10
 819 165 819 165 819 297 c 128,-1,11
 819 429 819 429 910 521.5 c 128,-1,12
 1001 614 1001 614 1131 614 c 128,-1,13
 1261 614 1261 614 1352 521.5 c 128,-1,14
 1443 429 1443 429 1443 297 c 128,-1,15
 1443 165 1443 165 1352 72.5 c 128,-1,8
 1261 -20 1261 -20 1131 -20 c 128,-1,9
462 1470 m 128,-1,17
 388 1470 388 1470 336 1395.5 c 128,-1,18
 284 1321 284 1321 284 1213 c 128,-1,19
 284 1105 284 1105 336 1030.5 c 128,-1,20
 388 956 388 956 462 956 c 128,-1,21
 536 956 536 956 588 1030.5 c 128,-1,22
 640 1105 640 1105 640 1213 c 128,-1,23
 640 1321 640 1321 588 1395.5 c 128,-1,16
 536 1470 536 1470 462 1470 c 128,-1,17
462 1530 m 128,-1,25
 592 1530 592 1530 683 1437.5 c 128,-1,26
 774 1345 774 1345 774 1213 c 128,-1,27
 774 1081 774 1081 683 988.5 c 128,-1,28
 592 896 592 896 462 896 c 128,-1,29
 332 896 332 896 241 988.5 c 128,-1,30
 150 1081 150 1081 150 1213 c 128,-1,31
 150 1345 150 1345 241 1437.5 c 128,-1,24
 332 1530 332 1530 462 1530 c 128,-1,25
501 -20 m 1,32,-1
 365 45 l 1,33,-1
 1097 1530 l 1,34,-1
 1234 1467 l 1,35,-1
 501 -20 l 1,32,-1
EndSplineSet
Validated: 1
EndChar

StartChar: ampersand
Encoding: 38 38 9
Width: 1904
GlyphClass: 2
Flags: W
HStem: -20 80<573.42 955.592> 0 21G<1504.49 1736> 980 80<657.355 852> 1090 10<1401 1411.03> 1460 70<646.526 851.041>
VStem: 150 220<295.125 725.283> 401 171<1130.49 1396.53> 1518 218<0 218> 1564 190<693.302 993.172>
DStem2: 1022 1060 852 980 0.558666 -0.829393<0 749.541 832.859 1156.25>
LayerCount: 2
Fore
SplineSet
1736 0 m 1,0,-1
 1518 0 l 1,1,-1
 1337 268 l 1,2,3
 1253 178 1253 178 1144 104 c 0,4,5
 961 -20 961 -20 729 -20 c 0,6,7
 464 -20 464 -20 304 140 c 0,8,9
 150 294 150 294 150 504 c 0,10,11
 150 711 150 711 276 848 c 0,12,13
 395 977 395 977 620 1018 c 1,14,15
 523 1042 523 1042 462 1107 c 0,16,17
 401 1174 401 1174 401 1269 c 0,18,19
 401 1369 401 1369 486 1448 c 0,20,21
 576 1530 576 1530 745 1530 c 16,22,23
 884 1530 884 1530 953 1464 c 0,24,25
 993 1426 993 1426 1015 1374 c 1,26,-1
 887 1248 l 1,27,-1
 880 1254 l 1,28,29
 890 1286 890 1286 890 1321 c 0,30,31
 890 1368 890 1368 869 1403 c 0,32,33
 835 1460 835 1460 762 1460 c 0,34,35
 690 1460 690 1460 643 1423 c 0,36,37
 572 1367 572 1367 572 1269 c 0,38,39
 572 1167 572 1167 626 1121 c 0,40,41
 696 1060 696 1060 803 1060 c 2,42,-1
 1022 1060 l 1,43,-1
 1736 0 l 1,0,-1
1401 1100 m 1,44,45
 1754 1100 1754 1100 1754 866 c 0,46,47
 1754 633 1754 633 1477 459 c 1,48,-1
 1471 467 l 1,49,50
 1564 619 1564 619 1564 834 c 0,51,52
 1564 1014 1564 1014 1401 1090 c 1,53,-1
 1401 1100 l 1,44,45
852 980 m 1,54,55
 584 980 584 980 456 801 c 0,56,57
 370 681 370 681 370 512 c 0,58,59
 370 319 370 319 449 207 c 0,60,61
 553 60 553 60 757 60 c 0,62,63
 929 60 929 60 1086 172 c 0,64,65
 1193 248 1193 248 1283 343 c 1,66,-1
 852 980 l 1,54,55
EndSplineSet
Validated: 19457
EndChar

StartChar: quotesingle
Encoding: 39 39 10
Width: 220
GlyphClass: 2
Flags: W
HStem: 1186 364<50 170>
VStem: 50 120<1186 1550>
LayerCount: 2
Fore
SplineSet
50 1550 m 1,0,-1
 170 1550 l 1,1,-1
 170 1186 l 1,2,-1
 50 1186 l 1,3,-1
 50 1550 l 1,0,-1
EndSplineSet
Validated: 1
EndChar

StartChar: parenleft
Encoding: 40 40 11
Width: 807
GlyphClass: 2
Flags: W
VStem: 200 200<375.126 1134.87>
LayerCount: 2
Fore
SplineSet
530 1760 m 1,0,-1
 657 1760 l 1,1,2
 400 1340 400 1340 400 755 c 128,-1,3
 400 170 400 170 657 -250 c 1,4,-1
 530 -250 l 1,5,6
 200 218 200 218 200 755 c 128,-1,7
 200 1292 200 1292 530 1760 c 1,0,-1
EndSplineSet
Validated: 1
EndChar

StartChar: parenright
Encoding: 41 41 12
Width: 807
GlyphClass: 2
Flags: W
VStem: 407 200<375.126 1134.87>
LayerCount: 2
Fore
SplineSet
150 1760 m 1,0,-1
 277 1760 l 1,1,2
 607 1292 607 1292 607 755 c 128,-1,3
 607 218 607 218 277 -250 c 1,4,-1
 150 -250 l 1,5,6
 407 170 407 170 407 755 c 128,-1,7
 407 1340 407 1340 150 1760 c 1,0,-1
EndSplineSet
Validated: 1
EndChar

StartChar: asterisk
Encoding: 42 42 13
Width: 728
GlyphClass: 2
Flags: W
HStem: 894 656<304 424>
VStem: 304 120<894 1118 1326 1550>
DStem2: 110 1438 50 1334 0.865982 -0.500074<0.0487877 224.009 431.942 655.902> 50 1110 110 1006 0.865982 0.500074<0 223.96 431.894 655.854>
LayerCount: 2
Fore
SplineSet
304 1550 m 1,0,-1
 424 1550 l 1,1,-1
 424 1326 l 1,2,-1
 618 1438 l 1,3,-1
 678 1334 l 1,4,-1
 484 1222 l 1,5,-1
 678 1110 l 1,6,-1
 618 1006 l 1,7,-1
 424 1118 l 1,8,-1
 424 894 l 1,9,-1
 304 894 l 1,10,-1
 304 1118 l 1,11,-1
 110 1006 l 1,12,-1
 50 1110 l 1,13,-1
 244 1222 l 1,14,-1
 50 1334 l 1,15,-1
 110 1438 l 1,16,-1
 304 1326 l 1,17,-1
 304 1550 l 1,0,-1
EndSplineSet
Validated: 1
EndChar

StartChar: plus
Encoding: 43 43 14
Width: 1133
GlyphClass: 2
Flags: W
HStem: 680 150<150 492 642 983>
VStem: 492 150<338 680 830 1172>
LayerCount: 2
Fore
SplineSet
492 1172 m 1,0,-1
 642 1172 l 1,1,-1
 642 830 l 1,2,-1
 983 830 l 1,3,-1
 983 680 l 1,4,-1
 642 680 l 1,5,-1
 642 338 l 1,6,-1
 492 338 l 1,7,-1
 492 680 l 1,8,-1
 150 680 l 1,9,-1
 150 830 l 1,10,-1
 492 830 l 1,11,-1
 492 1172 l 1,0,-1
EndSplineSet
Validated: 1
EndChar

StartChar: comma
Encoding: 44 44 15
Width: 368
GlyphClass: 2
Flags: W
HStem: -292 572
VStem: 147 171<-112.368 95.0098>
LayerCount: 2
Fore
SplineSet
195 280 m 1,0,1
 318 180 318 180 318 45 c 0,2,3
 318 -177 318 -177 40 -292 c 1,4,-1
 40 -282 l 1,5,6
 147 -162 147 -162 147 -24 c 0,7,8
 147 74 147 74 55 140 c 1,9,-1
 195 280 l 1,0,1
EndSplineSet
Validated: 1
EndChar

StartChar: hyphen
Encoding: 45 45 16
Width: 1133
GlyphClass: 2
Flags: W
HStem: 680 150<150 983>
LayerCount: 2
Fore
SplineSet
150 830 m 1,0,-1
 983 830 l 1,1,-1
 983 680 l 1,2,-1
 150 680 l 1,3,-1
 150 830 l 1,0,-1
EndSplineSet
Validated: 1
EndChar

StartChar: period
Encoding: 46 46 17
Width: 360
GlyphClass: 2
Flags: W
HStem: -20 264<89.1914 270.809>
VStem: 50 260<19.7072 204.293>
LayerCount: 2
Fore
SplineSet
180 -20 m 128,-1,1
 126 -20 126 -20 88 18.5 c 128,-1,2
 50 57 50 57 50 112 c 128,-1,3
 50 167 50 167 88 205.5 c 128,-1,4
 126 244 126 244 180 244 c 128,-1,5
 234 244 234 244 272 205.5 c 128,-1,6
 310 167 310 167 310 112 c 128,-1,7
 310 57 310 57 272 18.5 c 128,-1,0
 234 -20 234 -20 180 -20 c 128,-1,1
EndSplineSet
Validated: 1
EndChar

StartChar: slash
Encoding: 47 47 18
Width: 1059
GlyphClass: 2
Flags: W
DStem2: 10 -115 146 -180 0.447016 0.894526<2.64992 2017.83>
LayerCount: 2
Fore
SplineSet
146 -180 m 1,0,-1
 10 -115 l 1,1,-1
 912 1690 l 1,2,-1
 1049 1627 l 1,3,-1
 146 -180 l 1,0,-1
EndSplineSet
Validated: 1
EndChar

StartChar: zero
Encoding: 48 48 19
Width: 1706
GlyphClass: 2
Flags: W
HStem: -20 80<658.842 1047.16> 1450 80<658.842 1047.16>
VStem: 100 220<468.429 1041.57> 1386 220<468.429 1041.57>
LayerCount: 2
Fore
SplineSet
853 60 m 128,-1,1
 1103 60 1103 60 1247 270 c 0,2,3
 1386 473 1386 473 1386 755 c 128,-1,4
 1386 1037 1386 1037 1247 1240 c 0,5,6
 1103 1450 1103 1450 853 1450 c 128,-1,7
 603 1450 603 1450 459 1240 c 0,8,9
 320 1037 320 1037 320 755 c 128,-1,10
 320 473 320 473 459 270 c 0,11,0
 603 60 603 60 853 60 c 128,-1,1
853 -20 m 128,-1,13
 502 -20 502 -20 289 218 c 0,14,15
 100 430 100 430 100 755 c 128,-1,16
 100 1080 100 1080 289 1292 c 0,17,18
 502 1530 502 1530 853 1530 c 128,-1,19
 1204 1530 1204 1530 1417 1292 c 0,20,21
 1606 1080 1606 1080 1606 755 c 128,-1,22
 1606 430 1606 430 1417 218 c 0,23,12
 1204 -20 1204 -20 853 -20 c 128,-1,13
EndSplineSet
Validated: 1
EndChar

StartChar: one
Encoding: 49 49 20
Width: 700
GlyphClass: 2
Flags: W
HStem: 0 21G<250 450>
VStem: 250 200<0 1320.73>
LayerCount: 2
Fore
SplineSet
250 0 m 1,0,-1
 250 1170 l 2,1,2
 250 1380 250 1380 50 1380 c 1,3,-1
 50 1390 l 1,4,-1
 450 1540 l 1,5,-1
 450 0 l 1,6,-1
 250 0 l 1,0,-1
EndSplineSet
Validated: 19457
EndChar

StartChar: two
Encoding: 50 50 21
Width: 1324
GlyphClass: 2
Flags: W
HStem: 0 100<120 1106.41> 1450 80<492.307 808.852>
VStem: 954 220<921.555 1271.89> 1164 10<227.183 240>
LayerCount: 2
Fore
SplineSet
662 1530 m 0,0,1
 882 1530 882 1530 1011 1422 c 0,2,3
 1174 1284 1174 1284 1174 1072 c 0,4,5
 1174 790 1174 790 874 617 c 2,6,-1
 597 457 l 2,7,8
 289 279 289 279 176 174 c 1,9,-1
 170 180 l 17,10,11
 286 357 286 357 544 562 c 2,12,-1
 759 733 l 2,13,14
 954 888 954 888 954 1126 c 0,15,16
 954 1251 954 1251 892 1336 c 0,17,18
 809 1450 809 1450 655 1450 c 0,19,20
 496 1450 496 1450 398 1331 c 0,21,22
 342 1263 342 1263 342 1169 c 0,23,24
 342 1088 342 1088 369 1009 c 1,25,-1
 363 1001 l 1,26,-1
 148 1212 l 1,27,28
 214 1315 214 1315 322 1408 c 0,29,30
 462 1530 462 1530 662 1530 c 0,0,1
120 0 m 1,31,-1
 120 100 l 1,32,-1
 984 100 l 10,33,34
 1117 100 1117 100 1164 240 c 1,35,-1
 1174 240 l 1,36,-1
 1174 0 l 1,37,-1
 120 0 l 1,31,-1
EndSplineSet
Validated: 1
EndChar

StartChar: three
Encoding: 51 51 22
Width: 1367
GlyphClass: 2
Flags: W
HStem: -20 80<465.197 801.262> 1430 80<440.959 800>
VStem: 368 10<1290 1302.82> 483 213<936 1149> 997 220<300.701 717.176>
DStem2: 483 936 696 936 0.541793 0.840512<115.402 586.961>
LayerCount: 2
Fore
SplineSet
634 -20 m 0,0,1
 434 -20 434 -20 294 102 c 0,2,3
 186 195 186 195 120 298 c 1,4,-1
 335 509 l 1,5,-1
 341 501 l 1,6,7
 314 422 314 422 314 341 c 0,8,9
 314 247 314 247 370 179 c 0,10,11
 468 60 468 60 637 60 c 0,12,13
 819 60 819 60 918 208 c 0,14,15
 997 326 997 326 997 512 c 0,16,17
 997 684 997 684 925 798 c 0,18,19
 863 895 863 895 744 945 c 1,20,-1
 749 953 l 1,21,22
 969 953 969 953 1086 838 c 0,23,24
 1217 709 1217 709 1217 514 c 0,25,26
 1217 297 1217 297 1061 138 c 0,27,28
 906 -20 906 -20 634 -20 c 0,0,1
1066 1510 m 1,29,-1
 696 936 l 1,30,-1
 483 936 l 1,31,-1
 800 1430 l 1,32,-1
 558 1430 l 2,33,34
 425 1430 425 1430 378 1290 c 1,35,-1
 368 1290 l 1,36,-1
 368 1510 l 1,37,-1
 1066 1510 l 1,29,-1
EndSplineSet
Validated: 1
EndChar

StartChar: four
Encoding: 52 52 23
Width: 1424
GlyphClass: 2
Flags: W
HStem: 0 21G<974 1174> 257 10<894.226 911> 1080 20G<974 1174> 1490 20G<446 855>
VStem: 150 220<579.81 955.609> 974 200<0 1100>
LayerCount: 2
Fore
SplineSet
742 1510 m 1,0,-1
 855 1510 l 1,1,2
 370 1091 370 1091 370 750 c 0,3,4
 370 417 370 417 911 267 c 1,5,-1
 911 257 l 1,6,7
 150 257 150 257 150 750 c 0,8,9
 150 1130 150 1130 742 1510 c 1,0,-1
1174 0 m 1,10,-1
 974 0 l 1,11,-1
 974 1100 l 1,12,-1
 1174 1100 l 1,13,-1
 1174 0 l 1,10,-1
EndSplineSet
Validated: 1
EndChar

StartChar: five
Encoding: 53 53 24
Width: 1367
GlyphClass: 2
Flags: W
HStem: -20 80<465.197 801.262> 953 45<583.05 765.408> 1430 80<543 953.041>
VStem: 251 200<897 1097> 997 220<298.264 736.125> 1016 10<1290 1302.82>
DStem2: 251 897 451 897 0.171952 0.985105<34.3903 575.271>
LayerCount: 2
Fore
SplineSet
634 -20 m 0,0,1
 434 -20 434 -20 294 102 c 0,2,3
 186 195 186 195 120 298 c 1,4,-1
 335 509 l 1,5,-1
 341 501 l 1,6,7
 314 422 314 422 314 341 c 0,8,9
 314 247 314 247 370 179 c 0,10,11
 468 60 468 60 637 60 c 0,12,13
 819 60 819 60 918 208 c 0,14,15
 997 326 997 326 997 512 c 0,16,17
 997 685 997 685 925 798 c 0,18,19
 826 953 826 953 641 953 c 0,20,21
 580 953 580 953 509 936 c 1,22,-1
 509 946 l 17,23,24
 611 998 611 998 741 998 c 0,25,26
 980 998 980 998 1107 844 c 0,27,28
 1217 710 1217 710 1217 512 c 0,29,30
 1217 297 1217 297 1061 138 c 0,31,32
 906 -20 906 -20 634 -20 c 0,0,1
358 1510 m 1,33,-1
 1026 1510 l 1,34,-1
 1026 1290 l 1,35,-1
 1016 1290 l 1,36,37
 969 1430 969 1430 836 1430 c 2,38,-1
 543 1430 l 1,39,-1
 451 897 l 1,40,-1
 251 897 l 1,41,-1
 358 1510 l 1,33,-1
EndSplineSet
Validated: 1
EndChar

StartChar: six
Encoding: 54 54 25
Width: 1466
GlyphClass: 2
Flags: W
HStem: -20 80<578.763 899.701> 927 63<708.689 897.227> 1520 10<1152.54 1164>
VStem: 150 220<318.873 845.968> 1096 220<299.503 720.234>
LayerCount: 2
Fore
SplineSet
736 -20 m 0,0,1
 484 -20 484 -20 317 139 c 128,-1,2
 150 298 150 298 150 566 c 0,3,4
 150 936 150 936 430 1224 c 0,5,6
 727 1530 727 1530 1164 1530 c 1,7,-1
 1164 1520 l 1,8,9
 796 1417 796 1417 598 1193 c 0,10,11
 370 936 370 936 370 570 c 0,12,13
 370 334 370 334 455 211 c 0,14,15
 559 60 559 60 738 60 c 0,16,17
 916 60 916 60 1013 205 c 0,18,19
 1096 329 1096 329 1096 500 c 0,20,21
 1096 697 1096 697 985 828 c 0,22,23
 900 927 900 927 755 927 c 0,24,25
 697 927 697 927 650 911 c 1,26,-1
 646 920 l 1,27,28
 733 990 733 990 850 990 c 0,29,30
 1035 990 1035 990 1160 880 c 0,31,32
 1316 743 1316 743 1316 514 c 0,33,34
 1316 295 1316 295 1160 138 c 0,35,36
 1003 -20 1003 -20 736 -20 c 0,0,1
EndSplineSet
Validated: 1
EndChar

StartChar: seven
Encoding: 55 55 26
Width: 1129
GlyphClass: 2
Flags: W
HStem: 0 21G<224 683> 1430 80<122.959 666.574>
VStem: 50 10<1290 1302.82> 809 220<886.431 1296.95>
LayerCount: 2
Fore
SplineSet
224 0 m 1,0,1
 809 664 809 664 809 1111 c 0,2,3
 809 1430 809 1430 480 1430 c 2,4,-1
 240 1430 l 2,5,6
 107 1430 107 1430 60 1290 c 1,7,-1
 50 1290 l 1,8,-1
 50 1510 l 1,9,-1
 480 1510 l 2,10,11
 1029 1510 1029 1510 1029 1111 c 0,12,13
 1029 689 1029 689 337 0 c 1,14,-1
 224 0 l 1,0,1
EndSplineSet
Validated: 1
EndChar

StartChar: eight
Encoding: 56 56 27
Width: 1466
GlyphClass: 2
Flags: W
HStem: -20 80<547.102 894.037> 957 10<558.678 566> 1059 9<857 861.983> 1460 70<635.169 854.873>
VStem: 150 160<296.969 721.66> 400 172<1133.35 1397.08> 938 128<1141.16 1390.26> 1096 220<299.035 730.027>
LayerCount: 2
Fore
SplineSet
733 -20 m 128,-1,1
 461 -20 461 -20 306 138 c 24,2,3
 150 297 150 297 150 504 c 0,4,5
 150 701 150 701 264 825 c 128,-1,6
 378 949 378 949 564 967 c 1,7,-1
 566 957 l 1,8,9
 448 904 448 904 384 799 c 0,10,11
 310 675 310 675 310 508 c 0,12,13
 310 332 310 332 407 211 c 0,14,15
 527 60 527 60 734 60 c 0,16,17
 916 60 916 60 1020 217 c 0,18,19
 1096 331 1096 331 1096 509 c 0,20,21
 1096 702 1096 702 1020 808 c 0,22,23
 928 937 928 937 729 977 c 0,24,25
 532 1017 532 1017 462 1097 c 0,26,27
 400 1167 400 1167 400 1260 c 0,28,29
 400 1377 400 1377 508 1463 c 0,30,31
 592 1530 592 1530 733 1530 c 0,32,33
 870 1530 870 1530 958 1463 c 0,34,35
 1066 1381 1066 1381 1066 1260 c 0,36,37
 1066 1177 1066 1177 998 1117 c 0,38,39
 950 1074 950 1074 862 1059 c 1,40,-1
 857 1068 l 1,41,42
 938 1126 938 1126 938 1260 c 0,43,44
 938 1348 938 1348 882 1403 c 0,45,46
 824 1460 824 1460 743 1460 c 0,47,48
 665 1460 665 1460 618 1410 c 0,49,50
 572 1361 572 1361 572 1262 c 0,51,52
 572 1181 572 1181 629 1117 c 128,-1,53
 686 1053 686 1053 876 1018 c 0,54,55
 1082 980 1082 980 1201 841 c 0,56,57
 1316 705 1316 705 1316 512 c 0,58,59
 1316 297 1316 297 1160 138 c 0,60,0
 1005 -20 1005 -20 733 -20 c 128,-1,1
EndSplineSet
Validated: 1
EndChar

StartChar: nine
Encoding: 57 57 28
Width: 1466
GlyphClass: 2
Flags: W
HStem: -20 10<302 313.458> 520 63<568.773 757.311> 1450 80<566.299 887.237>
VStem: 150 220<789.766 1210.5> 1096 220<664.032 1191.13>
LayerCount: 2
Fore
SplineSet
302 -20 m 1,0,-1
 302 -10 l 1,1,2
 670 93 670 93 868 317 c 0,3,4
 1096 574 1096 574 1096 940 c 0,5,6
 1096 1176 1096 1176 1011 1299 c 0,7,8
 907 1450 907 1450 728 1450 c 0,9,10
 550 1450 550 1450 453 1305 c 0,11,12
 370 1181 370 1181 370 1010 c 0,13,14
 370 813 370 813 481 682 c 0,15,16
 566 583 566 583 711 583 c 0,17,18
 769 583 769 583 816 599 c 1,19,-1
 820 590 l 1,20,21
 733 520 733 520 616 520 c 0,22,23
 431 520 431 520 306 630 c 0,24,25
 150 767 150 767 150 996 c 0,26,27
 150 1215 150 1215 306 1372 c 0,28,29
 463 1530 463 1530 730 1530 c 0,30,31
 982 1530 982 1530 1149 1371 c 128,-1,32
 1316 1212 1316 1212 1316 944 c 0,33,34
 1316 574 1316 574 1036 286 c 0,35,36
 739 -20 739 -20 302 -20 c 1,0,-1
EndSplineSet
Validated: 1
EndChar

StartChar: colon
Encoding: 58 58 29
Width: 362
GlyphClass: 2
Flags: W
HStem: -20 264<91.1914 272.809> 623 264<89.1914 270.809>
VStem: 52 260<19.7072 204.293 662.707 847.293>
LayerCount: 2
Fore
SplineSet
182 -20 m 128,-1,1
 128 -20 128 -20 90 18.5 c 128,-1,2
 52 57 52 57 52 112 c 128,-1,3
 52 167 52 167 90 205.5 c 128,-1,4
 128 244 128 244 182 244 c 128,-1,5
 236 244 236 244 274 205.5 c 128,-1,6
 312 167 312 167 312 112 c 128,-1,7
 312 57 312 57 274 18.5 c 128,-1,0
 236 -20 236 -20 182 -20 c 128,-1,1
180 887 m 128,-1,9
 234 887 234 887 272 848.5 c 128,-1,10
 310 810 310 810 310 755 c 128,-1,11
 310 700 310 700 272 661.5 c 128,-1,12
 234 623 234 623 180 623 c 128,-1,13
 126 623 126 623 88 661.5 c 128,-1,14
 50 700 50 700 50 755 c 128,-1,15
 50 810 50 810 88 848.5 c 128,-1,8
 126 887 126 887 180 887 c 128,-1,9
EndSplineSet
Validated: 1
EndChar

StartChar: semicolon
Encoding: 59 59 30
Width: 374
GlyphClass: 2
Flags: W
HStem: 623 264<103.191 284.809>
VStem: 64 260<662.707 847.293> 147 171<-112.368 95.0098>
LayerCount: 2
Fore
SplineSet
195 280 m 1,0,1
 318 180 318 180 318 45 c 0,2,3
 318 -177 318 -177 40 -292 c 1,4,-1
 40 -282 l 1,5,6
 147 -162 147 -162 147 -24 c 0,7,8
 147 74 147 74 55 140 c 1,9,-1
 195 280 l 1,0,1
194 887 m 128,-1,11
 248 887 248 887 286 848.5 c 128,-1,12
 324 810 324 810 324 755 c 128,-1,13
 324 700 324 700 286 661.5 c 128,-1,14
 248 623 248 623 194 623 c 128,-1,15
 140 623 140 623 102 661.5 c 128,-1,16
 64 700 64 700 64 755 c 128,-1,17
 64 810 64 810 102 848.5 c 128,-1,10
 140 887 140 887 194 887 c 128,-1,11
EndSplineSet
Validated: 1
EndChar

StartChar: less
Encoding: 60 60 31
Width: 1145
GlyphClass: 2
Flags: W
DStem2: 150 830 259 790 0.866109 0.499855<74.4117 865.505> 259 790 150 680 0.855375 -0.51801<0 799.636>
LayerCount: 2
Fore
SplineSet
150 830 m 1,0,-1
 902 1264 l 1,1,-1
 945 1184 l 1,2,-1
 259 790 l 1,3,-1
 945 374 l 1,4,-1
 865 247 l 1,5,-1
 150 680 l 1,6,-1
 150 830 l 1,0,-1
EndSplineSet
Validated: 1
EndChar

StartChar: equal
Encoding: 61 61 32
Width: 1133
GlyphClass: 2
Flags: W
HStem: 500 150<150 983> 860 150<150 983>
LayerCount: 2
Fore
SplineSet
150 650 m 1,0,-1
 983 650 l 1,1,-1
 983 500 l 1,2,-1
 150 500 l 1,3,-1
 150 650 l 1,0,-1
150 1010 m 1,4,-1
 983 1010 l 1,5,-1
 983 860 l 1,6,-1
 150 860 l 1,7,-1
 150 1010 l 1,4,-1
EndSplineSet
Validated: 1
EndChar

StartChar: greater
Encoding: 62 62 33
Width: 1145
GlyphClass: 2
Flags: W
DStem2: 280 1263 200 1136 0.855375 -0.51801<0 799.636> 200 326 243 246 0.866109 0.499855<0 791.094>
LayerCount: 2
Fore
SplineSet
995 680 m 1,0,-1
 243 246 l 1,1,-1
 200 326 l 1,2,-1
 886 720 l 1,3,-1
 200 1136 l 1,4,-1
 280 1263 l 1,5,-1
 995 830 l 1,6,-1
 995 680 l 1,0,-1
EndSplineSet
Validated: 19457
EndChar

StartChar: question
Encoding: 63 63 34
Width: 1321
GlyphClass: 2
Flags: W
HStem: -20 264<537.191 718.809> 1450 80<492.972 793.378>
VStem: 498 260<19.7072 204.293> 597 36<340.583 408.621> 951 220<893.597 1280.91>
LayerCount: 2
Fore
SplineSet
664 1530 m 0,0,1
 885 1530 885 1530 1013 1422 c 0,2,3
 1171 1289 1171 1289 1171 1084 c 0,4,5
 1171 845 1171 845 928 671 c 2,6,-1
 804 582 l 2,7,8
 633 459 633 459 633 327 c 1,9,-1
 623 327 l 1,10,11
 597 366 597 366 597 411 c 0,12,13
 597 516 597 516 733 669 c 2,14,-1
 844 794 l 2,15,16
 951 914 951 914 951 1100 c 0,17,18
 951 1236 951 1236 877 1336 c 0,19,20
 792 1450 792 1450 642 1450 c 0,21,22
 498 1450 498 1450 400 1331 c 0,23,24
 344 1263 344 1263 344 1169 c 0,25,26
 344 1088 344 1088 371 1009 c 1,27,-1
 365 1001 l 1,28,-1
 150 1212 l 1,29,30
 216 1315 216 1315 324 1408 c 0,31,32
 464 1530 464 1530 664 1530 c 0,0,1
628 -20 m 128,-1,34
 574 -20 574 -20 536 18.5 c 128,-1,35
 498 57 498 57 498 112 c 128,-1,36
 498 167 498 167 536 205.5 c 128,-1,37
 574 244 574 244 628 244 c 128,-1,38
 682 244 682 244 720 205.5 c 128,-1,39
 758 167 758 167 758 112 c 128,-1,40
 758 57 758 57 720 18.5 c 128,-1,33
 682 -20 682 -20 628 -20 c 128,-1,34
EndSplineSet
Validated: 1
EndChar

StartChar: at
Encoding: 64 64 35
Width: 1584
GlyphClass: 2
Flags: W
HStem: -430 10<865.308 873> 0 70<905.125 1204> 0 10<1511.18 1524> 636 10<973.585 998> 1050 70<702.231 1023.53>
VStem: 150 200<58.6765 631.571> 600 177<174.447 489.841> 1204 180<70.2515 841.832>
LayerCount: 2
Fore
SplineSet
1524 0 m 1,0,-1
 944 0 l 2,1,2
 784 0 784 0 696 89 c 0,3,4
 600 186 600 186 600 322 c 128,-1,5
 600 458 600 458 690 546 c 0,6,7
 792 646 792 646 998 646 c 1,8,-1
 998 636 l 1,9,10
 883 618 883 618 830 540 c 128,-1,11
 777 462 777 462 777 344 c 0,12,13
 777 227 777 227 831 162 c 0,14,15
 907 70 907 70 1062 70 c 2,16,-1
 1204 70 l 1,17,-1
 1204 614 l 2,18,19
 1204 789 1204 789 1155 881 c 0,20,21
 1064 1050 1064 1050 873 1050 c 0,22,23
 640 1050 640 1050 489 830 c 0,24,25
 350 627 350 627 350 345 c 0,26,27
 350 64 350 64 489 -140 c 0,28,29
 626 -341 626 -341 873 -420 c 1,30,-1
 873 -430 l 1,31,32
 552 -430 552 -430 339 -192 c 0,33,34
 150 20 150 20 150 345 c 128,-1,35
 150 670 150 670 339 882 c 0,36,37
 552 1120 552 1120 873 1120 c 0,38,39
 1143 1120 1143 1120 1279 947 c 0,40,41
 1384 812 1384 812 1384 614 c 2,42,-1
 1384 190 l 2,43,44
 1384 57 1384 57 1524 10 c 1,45,-1
 1524 0 l 1,0,-1
EndSplineSet
Validated: 1
EndChar

StartChar: A
Encoding: 65 65 36
Width: 1584
GlyphClass: 2
Flags: W
HStem: 0 10<941 951.015> 715 80<548 1073> 1500 10<466 477.169>
VStem: 1264 220<228.99 667.57>
DStem2: 5 0 205 0 0.395387 0.918515<79.0774 857.199 944.914 1497.34>
CounterMasks: 1 e0
LayerCount: 2
Fore
SplineSet
5 0 m 9,0,-1
 574 1322 l 2,1,2
 588 1355 588 1355 588 1380 c 0,3,4
 588 1458 588 1458 466 1500 c 1,5,-1
 466 1510 l 1,6,-1
 855 1510 l 1,7,-1
 548 795 l 1,8,-1
 1073 795 l 1,9,-1
 1073 715 l 1,10,-1
 512 715 l 1,11,-1
 205 0 l 1,12,-1
 5 0 l 9,0,-1
941 0 m 1,13,14
 941 10 l 1,15,16
 1264 106 1264 106 1264 440 c 0,17,18
 1264 843 1264 843 862 1386 c 1,19,-1
 868 1394 l 1,20,21
 1484 860 1484 860 1484 440 c 0,22,23
 1484 0 1484 0 941 0 c 1,13,14
EndSplineSet
Validated: 1
EndChar

StartChar: B
Encoding: 66 66 37
Width: 1318
GlyphClass: 2
Flags: W
HStem: 0 10<580 589.715> 936 80<537 701.38> 1430 80<400 700.817> 1500 10<60 72.8174>
VStem: 200 200<0 1428.67> 796 171<1115.98 1352.13> 998 220<309.113 720.402>
LayerCount: 2
Fore
SplineSet
200 0 m 1,0,-1
 200 1320 l 2,1,2
 200 1453 200 1453 60 1500 c 1,3,-1
 60 1510 l 1,4,-1
 581 1510 l 2,5,6
 779 1510 779 1510 883 1425 c 0,7,8
 967 1356 967 1356 967 1249 c 0,9,10
 967 1162 967 1162 906 1097 c 0,11,12
 824 1010 824 1010 680 986 c 1,13,14
 961 986 961 986 1097 846 c 0,15,16
 1218 721 1218 721 1218 514 c 0,17,18
 1218 303 1218 303 1062 158 c 0,19,20
 892 0 892 0 580 0 c 1,21,-1
 580 10 l 1,22,23
 802 70 802 70 896 192 c 0,24,25
 998 326 998 326 998 514 c 0,26,27
 998 670 998 670 920 776 c 0,28,29
 802 936 802 936 537 936 c 1,30,-1
 537 1016 l 1,31,32
 659 1016 659 1016 738 1089 c 0,33,34
 796 1143 796 1143 796 1232 c 0,35,36
 796 1325 796 1325 725 1377 c 0,37,38
 654 1430 654 1430 536 1430 c 2,39,-1
 400 1430 l 1,40,-1
 400 0 l 1,41,-1
 200 0 l 1,0,-1
EndSplineSet
Validated: 1
EndChar

StartChar: C
Encoding: 67 67 38
Width: 1592
GlyphClass: 2
Flags: W
HStem: -20 90<686.605 1127.22> 1450 80<658.926 1058.29>
VStem: 100 220<480.844 1042.2>
LayerCount: 2
Fore
SplineSet
853 -20 m 0,0,1
 501 -20 501 -20 289 218 c 0,2,3
 100 429 100 429 100 756 c 0,4,5
 100 1082 100 1082 289 1292 c 0,6,7
 504 1530 504 1530 853 1530 c 0,8,9
 1218 1530 1218 1530 1428 1278 c 1,10,-1
 1226 1080 l 1,11,-1
 1220 1086 l 1,12,13
 1229 1132 1229 1132 1229 1182 c 0,14,15
 1229 1247 1229 1247 1190 1304 c 0,16,17
 1090 1450 1090 1450 851 1450 c 0,18,19
 603 1450 603 1450 459 1240 c 0,20,21
 320 1037 320 1037 320 755 c 0,22,23
 320 489 320 489 460 294 c 0,24,25
 620 70 620 70 930 70 c 0,26,27
 1218 70 1218 70 1485 325 c 1,28,-1
 1492 319 l 1,29,30
 1273 -20 1273 -20 853 -20 c 0,0,1
EndSplineSet
Validated: 1
EndChar

StartChar: D
Encoding: 68 68 39
Width: 1586
GlyphClass: 2
Flags: W
HStem: 0 10<580 594.845> 1430 80<400 894.41> 1500 10<60 72.8174>
VStem: 200 200<0 1428.67> 1266 220<501.01 1039.83>
LayerCount: 2
Fore
SplineSet
200 0 m 1,0,-1
 200 1320 l 2,1,2
 200 1453 200 1453 60 1500 c 1,3,-1
 60 1510 l 1,4,-1
 716 1510 l 2,5,6
 1103 1510 1103 1510 1308 1273 c 0,7,8
 1486 1066 1486 1066 1486 755 c 0,9,10
 1486 467 1486 467 1284 248 c 0,11,12
 1057 0 1057 0 580 0 c 1,13,-1
 580 10 l 1,14,15
 970 86 970 86 1122 301 c 0,16,17
 1266 504 1266 504 1266 755 c 0,18,19
 1266 1063 1266 1063 1105 1247 c 0,20,21
 945 1430 945 1430 666 1430 c 2,22,-1
 400 1430 l 1,23,-1
 400 0 l 1,24,-1
 200 0 l 1,0,-1
EndSplineSet
Validated: 1
EndChar

StartChar: E
Encoding: 69 69 40
Width: 1592
GlyphClass: 2
Flags: W
HStem: -20 90<686.605 1127.22> 715 80<321 1093> 1450 80<658.926 1058.04>
VStem: 100 221<481.188 715 795 1043.18>
LayerCount: 2
Fore
SplineSet
853 -20 m 0,0,1
 501 -20 501 -20 289 218 c 0,2,3
 100 430 100 430 100 756 c 128,-1,4
 100 1082 100 1082 289 1292 c 0,5,6
 504 1530 504 1530 853 1530 c 0,7,8
 1218 1530 1218 1530 1428 1278 c 1,9,-1
 1226 1080 l 1,10,-1
 1220 1086 l 1,11,12
 1229 1132 1229 1132 1229 1182 c 0,13,14
 1229 1247 1229 1247 1190 1304 c 0,15,16
 1089 1450 1089 1450 851 1450 c 0,17,18
 603 1450 603 1450 459 1240 c 0,19,20
 332 1055 332 1055 321 795 c 1,21,-1
 1093 795 l 1,22,-1
 1093 715 l 1,23,-1
 321 715 l 1,24,25
 333 471 333 471 460 294 c 0,26,27
 620 70 620 70 930 70 c 0,28,29
 1218 70 1218 70 1485 325 c 1,30,-1
 1492 319 l 1,31,32
 1273 -20 1273 -20 853 -20 c 0,0,1
EndSplineSet
Validated: 1
EndChar

StartChar: F
Encoding: 70 70 41
Width: 998
GlyphClass: 2
Flags: W
HStem: 0 21G<200 400> 715 80<400 792> 1430 80<400 905.041> 1500 10<60 72.8174>
VStem: 200 200<0 715 795 1428.67> 968 10<1290 1302.82>
LayerCount: 2
Fore
SplineSet
200 0 m 1,0,-1
 200 1320 l 2,1,2
 200 1453 200 1453 60 1500 c 1,3,-1
 60 1510 l 1,4,-1
 978 1510 l 17,5,-1
 978 1290 l 1,6,-1
 968 1290 l 1,7,8
 921 1430 921 1430 788 1430 c 2,9,-1
 400 1430 l 1,10,-1
 400 795 l 1,11,-1
 792 795 l 1,12,-1
 792 715 l 1,13,-1
 400 715 l 1,14,-1
 400 0 l 1,15,-1
 200 0 l 1,0,-1
EndSplineSet
Validated: 1
EndChar

StartChar: G
Encoding: 71 71 42
Width: 1665
GlyphClass: 2
Flags: W
HStem: -20 90<678.384 1107.54> 640 10<1175 1187.82> 1450 80<658.926 1058.04>
VStem: 100 220<481.092 1042.2> 1315 200<285.276 582.414>
LayerCount: 2
Fore
SplineSet
853 -20 m 0,0,1
 502 -20 502 -20 289 218 c 0,2,3
 100 430 100 430 100 756 c 128,-1,4
 100 1082 100 1082 289 1292 c 0,5,6
 504 1530 504 1530 853 1530 c 0,7,8
 1218 1530 1218 1530 1428 1278 c 1,9,-1
 1226 1080 l 1,10,-1
 1220 1086 l 1,11,12
 1229 1132 1229 1132 1229 1182 c 0,13,14
 1229 1247 1229 1247 1190 1304 c 0,15,16
 1089 1450 1089 1450 851 1450 c 0,17,18
 603 1450 603 1450 459 1240 c 0,19,20
 320 1037 320 1037 320 755 c 0,21,22
 320 489 320 489 460 294 c 0,23,24
 620 70 620 70 908 70 c 0,25,26
 1163 70 1163 70 1283 280 c 0,27,28
 1315 336 1315 336 1315 404 c 2,29,-1
 1315 460 l 18,30,31
 1315 593 1315 593 1175 640 c 1,32,-1
 1175 650 l 1,33,-1
 1515 650 l 1,34,-1
 1515 351 l 1,35,36
 1286 -20 1286 -20 853 -20 c 0,0,1
EndSplineSet
Validated: 1
EndChar

StartChar: H
Encoding: 72 72 43
Width: 1552
GlyphClass: 2
Flags: W
HStem: 0 10<1479.18 1492> 715 80<400 1152> 1500 10<60 72.8174>
VStem: 200 200<0 715 795 1442.41> 1152 200<67.5859 715 795 1510>
CounterMasks: 1 e0
LayerCount: 2
Fore
SplineSet
200 0 m 1,0,-1
 200 1320 l 2,1,2
 200 1453 200 1453 60 1500 c 1,3,-1
 60 1510 l 1,4,-1
 400 1510 l 1,5,-1
 400 795 l 1,6,-1
 1152 795 l 1,7,-1
 1152 1510 l 1,8,-1
 1352 1510 l 1,9,-1
 1352 190 l 2,10,11
 1352 57 1352 57 1492 10 c 1,12,-1
 1492 0 l 1,13,-1
 1152 0 l 1,14,-1
 1152 715 l 1,15,-1
 400 715 l 1,16,-1
 400 0 l 1,17,-1
 200 0 l 1,0,-1
EndSplineSet
Validated: 1
EndChar

StartChar: I
Encoding: 73 73 44
Width: 600
GlyphClass: 2
Flags: W
HStem: 0 21G<200 400> 1500 10<60 72.8174>
VStem: 200 200<0 1442.41>
LayerCount: 2
Fore
SplineSet
200 0 m 1,0,-1
 200 1320 l 10,1,2
 200 1453 200 1453 60 1500 c 1,3,-1
 60 1510 l 1,4,-1
 400 1510 l 1,5,-1
 400 0 l 1,6,-1
 200 0 l 1,0,-1
EndSplineSet
Validated: 1
EndChar

StartChar: J
Encoding: 74 74 45
Width: 1220
GlyphClass: 2
Flags: W
HStem: -20 80<347.77 631.309> 1430 80<314.959 820>
VStem: 242 10<1290 1302.82> 820 200<309.267 1430>
LayerCount: 2
Fore
SplineSet
482 -20 m 0,0,1
 195 -20 195 -20 50 206 c 1,2,-1
 251 406 l 1,3,-1
 258 400 l 1,4,5
 250 346 250 346 250 296 c 0,6,7
 250 224 250 224 283 170 c 0,8,9
 350 61 350 61 482 60 c 0,10,11
 650 60 650 60 746 212 c 0,12,13
 820 329 820 329 820 548 c 2,14,-1
 820 1430 l 1,15,-1
 432 1430 l 2,16,17
 299 1430 299 1430 252 1290 c 1,18,-1
 242 1290 l 1,19,-1
 242 1510 l 1,20,-1
 1020 1510 l 1,21,-1
 1020 546 l 2,22,23
 1020 306 1020 306 873 152 c 0,24,25
 709 -20 709 -20 482 -20 c 0,0,1
EndSplineSet
Validated: 1
EndChar

StartChar: K
Encoding: 75 75 46
Width: 1472
GlyphClass: 2
Flags: W
HStem: 0 21G<200 400 1086.46 1372> 1500 10<60 72.8174 761 769.837>
VStem: 200 200<0 1442.41> 1046 221<860.212 1288.64> 1105 267<0 267>
DStem2: 918 492 736 398 0.678156 -0.734918<0 488.395>
LayerCount: 2
Fore
SplineSet
200 0 m 1,0,-1
 200 1320 l 10,1,2
 200 1453 200 1453 60 1500 c 1,3,-1
 60 1510 l 1,4,-1
 400 1510 l 1,5,-1
 400 0 l 1,6,-1
 200 0 l 1,0,-1
1372 0 m 1,7,-1
 1105 0 l 1,8,-1
 736 398 l 1,9,10
 608 344 608 344 488 320 c 1,11,-1
 488 330 l 1,12,13
 1046 602 1046 602 1046 1084 c 0,14,15
 1046 1380 1046 1380 761 1500 c 1,16,-1
 761 1510 l 1,17,18
 1267 1510 1267 1510 1267 1082 c 0,19,20
 1267 754 1267 754 918 492 c 1,21,-1
 1372 0 l 1,7,-1
EndSplineSet
Validated: 1
EndChar

StartChar: L
Encoding: 76 76 47
Width: 998
GlyphClass: 2
Flags: W
HStem: 0 80<400 905.041> 1500 10<60 72.8174>
VStem: 200 200<80 1442.41> 968 10<207.183 220>
LayerCount: 2
Fore
SplineSet
200 0 m 1,0,-1
 200 1320 l 2,1,2
 200 1453 200 1453 60 1500 c 1,3,-1
 60 1510 l 1,4,-1
 400 1510 l 1,5,-1
 400 80 l 1,6,-1
 788 80 l 2,7,8
 921 80 921 80 968 220 c 1,9,-1
 978 220 l 1,10,-1
 978 0 l 1,11,-1
 200 0 l 1,0,-1
EndSplineSet
Validated: 1
EndChar

StartChar: M
Encoding: 77 77 48
Width: 2277
GlyphClass: 2
Flags: W
HStem: 0 10<721 730.085 1664 1673.08> 1500 10<263 274.169 1216 1227.17>
VStem: 5 196<0 196> 1957 220<225.137 686.382>
DStem2: 5 0 201 0 0.269157 0.963096<52.7547 1430.57> 1153 695 1221 274 0.268849 0.963182<0 708.732>
LayerCount: 2
Fore
SplineSet
721 0 m 1,0,1
 721 10 l 1,2,3
 1014 106 1014 106 1014 440 c 0,4,5
 1014 873 1014 873 642 1386 c 1,6,-1
 648 1394 l 1,7,8
 1004 1117 1004 1117 1153 695 c 1,9,-1
 1329 1322 l 2,10,11
 1338 1354 1338 1354 1338 1380 c 0,12,13
 1338 1458 1338 1458 1216 1500 c 1,14,-1
 1216 1510 l 1,15,-1
 1566 1510 l 1,16,-1
 1221 274 l 2,17,18
 1145 1 1145 1 721 0 c 1,0,1
1664 0 m 1,19,-1
 1664 10 l 1,20,21
 1957 106 1957 106 1957 440 c 0,22,23
 1957 873 1957 873 1585 1386 c 1,24,-1
 1591 1394 l 1,25,26
 2177 890 2177 890 2177 440 c 0,27,28
 2177 0 2177 0 1664 0 c 1,19,-1
5 0 m 1,29,-1
 376 1322 l 2,30,31
 385 1354 385 1354 385 1380 c 0,32,33
 385 1458 385 1458 263 1500 c 1,34,-1
 263 1510 l 1,35,-1
 623 1510 l 1,36,-1
 201 0 l 1,37,-1
 5 0 l 1,29,-1
EndSplineSet
Validated: 1
EndChar

StartChar: N
Encoding: 78 78 49
Width: 1552
GlyphClass: 2
Flags: W
HStem: 0 10<809 819.387> 1500 10<60 72.8174>
VStem: 200 200<0 1442.41> 1162 190<904 1510>
LayerCount: 2
Fore
SplineSet
200 0 m 1,0,-1
 200 1320 l 2,1,2
 200 1453 200 1453 60 1500 c 1,3,-1
 60 1510 l 1,4,-1
 400 1510 l 1,5,-1
 400 0 l 1,6,-1
 200 0 l 1,0,-1
809 0 m 1,7,-1
 809 10 l 1,8,9
 1144 110 1144 110 1144 440 c 0,10,11
 1144 897 1144 897 477 1443 c 1,12,-1
 483 1451 l 1,13,14
 903 1252 903 1252 1162 904 c 1,15,-1
 1162 1510 l 1,16,-1
 1352 1510 l 1,17,-1
 1352 455 l 2,18,19
 1352 -0 1352 -0 809 0 c 1,7,-1
EndSplineSet
Validated: 1
EndChar

StartChar: O
Encoding: 79 79 50
Width: 1706
GlyphClass: 2
Flags: W
HStem: -20 80<658.842 1047.16> 1450 80<658.842 1047.16>
VStem: 100 220<468.429 1041.57> 1386 220<468.429 1041.57>
LayerCount: 2
Fore
SplineSet
853 60 m 128,-1,1
 1103 60 1103 60 1247 270 c 0,2,3
 1386 473 1386 473 1386 755 c 128,-1,4
 1386 1037 1386 1037 1247 1240 c 0,5,6
 1103 1450 1103 1450 853 1450 c 128,-1,7
 603 1450 603 1450 459 1240 c 0,8,9
 320 1037 320 1037 320 755 c 128,-1,10
 320 473 320 473 459 270 c 0,11,0
 603 60 603 60 853 60 c 128,-1,1
853 -20 m 128,-1,13
 502 -20 502 -20 289 218 c 0,14,15
 100 430 100 430 100 755 c 128,-1,16
 100 1080 100 1080 289 1292 c 0,17,18
 502 1530 502 1530 853 1530 c 128,-1,19
 1204 1530 1204 1530 1417 1292 c 0,20,21
 1606 1080 1606 1080 1606 755 c 128,-1,22
 1606 430 1606 430 1417 218 c 0,23,12
 1204 -20 1204 -20 853 -20 c 128,-1,13
EndSplineSet
Validated: 1
EndChar

StartChar: P
Encoding: 80 80 51
Width: 1324
GlyphClass: 2
Flags: W
HStem: 0 21G<200 400> 360 10<574 584.955> 1430 80<400 748.789> 1500 10<60 72.8174>
VStem: 200 200<0 1428.67> 1004 220<717.023 1182.52>
LayerCount: 2
Fore
SplineSet
200 0 m 1,0,-1
 200 1320 l 2,1,2
 200 1453 200 1453 60 1500 c 1,3,-1
 60 1510 l 1,4,-1
 635 1510 l 2,5,6
 889 1510 889 1510 1047 1366 c 0,7,8
 1224 1204 1224 1204 1224 954 c 0,9,10
 1224 733 1224 733 1092 568 c 0,11,12
 926 360 926 360 574 360 c 1,13,-1
 574 370 l 1,14,15
 780 428 780 428 901 586 c 0,16,17
 1004 720 1004 720 1004 954 c 0,18,19
 1004 1152 1004 1152 911 1268 c 0,20,21
 781 1430 781 1430 554 1430 c 2,22,-1
 400 1430 l 1,23,-1
 400 0 l 1,24,-1
 200 0 l 1,0,-1
EndSplineSet
Validated: 1
EndChar

StartChar: Q
Encoding: 81 81 52
Width: 1706
GlyphClass: 2
Flags: W
HStem: -20 10<844.813 853> 0 21G<1026.4 1312> 1450 80<658.842 1047.16>
VStem: 100 220<467.933 1041.57> 673 270<130 400> 1386 220<468.429 1041.57>
DStem2: 943 400 673 400 0.681013 -0.732272<0 315.624>
LayerCount: 2
Fore
SplineSet
1312 0 m 1,0,-1
 1045 0 l 1,1,-1
 673 400 l 1,2,-1
 943 400 l 1,3,-1
 1157 168 l 1,4,5
 1206 211 1206 211 1247 270 c 0,6,7
 1386 473 1386 473 1386 755 c 128,-1,8
 1386 1037 1386 1037 1247 1240 c 0,9,10
 1103 1450 1103 1450 853 1450 c 128,-1,11
 603 1450 603 1450 459 1240 c 0,12,13
 320 1037 320 1037 320 755 c 0,14,15
 320 471 320 471 459 270 c 0,16,17
 590 81 590 81 853 -10 c 1,18,-1
 853 -20 l 1,19,20
 502 -20 502 -20 289 218 c 0,21,22
 100 430 100 430 100 755 c 128,-1,23
 100 1080 100 1080 289 1292 c 0,24,25
 502 1530 502 1530 853 1530 c 128,-1,26
 1204 1530 1204 1530 1417 1292 c 0,27,28
 1606 1080 1606 1080 1606 755 c 128,-1,29
 1606 430 1606 430 1417 218 c 0,30,31
 1339 131 1339 131 1242 76 c 1,32,-1
 1312 0 l 1,0,-1
EndSplineSet
Validated: 1
EndChar

StartChar: R
Encoding: 82 82 53
Width: 1405
GlyphClass: 2
Flags: W
HStem: 0 21G<200 400 1099.47 1385> 360 10<574 586.792> 1430 80<400 748.789> 1500 10<60 72.8174>
VStem: 200 200<0 1428.67> 1004 220<717.023 1182.52> 1118 267<0 267>
DStem2: 965 455 764 382 0.67828 -0.734803<0 438.112>
LayerCount: 2
Fore
SplineSet
200 0 m 1,0,-1
 200 1320 l 2,1,2
 200 1453 200 1453 60 1500 c 1,3,-1
 60 1510 l 1,4,-1
 635 1510 l 2,5,6
 889 1510 889 1510 1047 1366 c 0,7,8
 1224 1204 1224 1204 1224 954 c 0,9,10
 1224 733 1224 733 1092 568 c 0,11,12
 1038 501 1038 501 965 455 c 1,13,-1
 1385 0 l 1,14,-1
 1118 0 l 1,15,-1
 764 382 l 1,16,17
 670 360 670 360 574 360 c 1,18,-1
 574 370 l 1,19,20
 780 428 780 428 901 586 c 0,21,22
 1004 720 1004 720 1004 954 c 0,23,24
 1004 1152 1004 1152 911 1268 c 0,25,26
 781 1430 781 1430 554 1430 c 2,27,-1
 400 1430 l 1,28,-1
 400 0 l 1,29,-1
 200 0 l 1,0,-1
EndSplineSet
Validated: 1
EndChar

StartChar: S
Encoding: 83 83 54
Width: 1269
GlyphClass: 2
Flags: W
HStem: -20 80<451.224 788.605> 1450 80<533.186 779.755>
VStem: 290 165<1143.06 1371.51> 993 196<297.18 613.133>
DStem2: 647 1041 563 862 0.907167 -0.420771<-197.835 422.915>
LayerCount: 2
Fore
SplineSet
611 -20 m 0,0,1
 372 -20 372 -20 234 112 c 0,2,3
 142 200 142 200 80 354 c 1,4,-1
 295 565 l 1,5,-1
 302 559 l 1,6,7
 281 476 281 476 281 381 c 0,8,9
 281 267 281 267 343 190 c 0,10,11
 447 60 447 60 614 60 c 0,12,13
 795 60 795 60 900 189 c 0,14,15
 993 303 993 303 993 446 c 0,16,17
 993 659 993 659 781 759 c 2,18,-1
 563 862 l 2,19,20
 290 991 290 991 290 1210 c 0,21,22
 290 1351 290 1351 397 1444 c 0,23,24
 496 1530 496 1530 661 1530 c 128,-1,25
 826 1530 826 1530 921 1438 c 0,26,27
 968 1391 968 1391 997 1322 c 1,28,-1
 843 1169 l 1,29,-1
 836 1175 l 1,30,31
 846 1207 846 1207 846 1242 c 0,32,33
 846 1309 846 1309 819 1361 c 0,34,35
 773 1450 773 1450 667 1450 c 0,36,37
 574 1450 574 1450 513 1395 c 0,38,39
 455 1342 455 1342 455 1255 c 0,40,41
 455 1130 455 1130 647 1041 c 2,42,-1
 882 932 l 2,43,44
 1189 790 1189 790 1189 498 c 0,45,46
 1189 287 1189 287 1022 135 c 0,47,48
 851 -20 851 -20 611 -20 c 0,0,1
EndSplineSet
Validated: 1
EndChar

StartChar: T
Encoding: 84 84 55
Width: 1110
GlyphClass: 2
Flags: W
HStem: 0 21G<456 656> 1430 80<92.959 456 656 1017.04>
VStem: 20 10<1290 1302.82> 456 200<0 1430> 1080 10<1290 1302.82>
LayerCount: 2
Fore
SplineSet
456 0 m 1,0,-1
 456 1430 l 1,1,-1
 210 1430 l 2,2,3
 77 1430 77 1430 30 1290 c 1,4,-1
 20 1290 l 1,5,-1
 20 1510 l 1,6,-1
 1090 1510 l 1,7,-1
 1090 1290 l 1,8,-1
 1080 1290 l 1,9,10
 1033 1430 1033 1430 900 1430 c 2,11,-1
 656 1430 l 1,12,-1
 656 0 l 1,13,-1
 456 0 l 1,0,-1
EndSplineSet
Validated: 1
EndChar

StartChar: U
Encoding: 85 85 56
Width: 1574
GlyphClass: 2
Flags: W
HStem: -20 80<617.273 955.701> 1500 10<60 72.8174>
VStem: 200 200<311.117 1442.41> 1174 200<311.117 1510>
LayerCount: 2
Fore
SplineSet
784 -20 m 0,0,1
 524 -20 524 -20 363 136 c 0,2,3
 200 294 200 294 200 546 c 2,4,-1
 200 1320 l 10,5,6
 200 1453 200 1453 60 1500 c 1,7,-1
 60 1510 l 1,8,-1
 400 1510 l 1,9,-1
 400 548 l 2,10,11
 400 341 400 341 479 225 c 0,12,13
 592 60 592 60 788 60 c 0,14,15
 982 60 982 60 1095 225 c 0,16,17
 1174 341 1174 341 1174 548 c 2,18,-1
 1174 1510 l 1,19,-1
 1374 1510 l 1,20,-1
 1374 546 l 2,21,22
 1374 294 1374 294 1211 136 c 0,23,24
 1050 -20 1050 -20 784 -20 c 0,0,1
EndSplineSet
Validated: 1
EndChar

StartChar: V
Encoding: 86 86 57
Width: 1703
GlyphClass: 2
Flags: W
HStem: 0 10<1061.65 1073> 1500 10<5 16.4404 1060 1070.01>
VStem: 1383 220<842.43 1281.01>
DStem2: 324 1510 169 1359 0.395387 -0.918515<0 1556.97>
LayerCount: 2
Fore
SplineSet
1060 1510 m 1,0,1
 1603 1510 1603 1510 1603 1070 c 0,2,3
 1603 650 1603 650 987 116 c 1,4,-1
 981 124 l 1,5,6
 1383 667 1383 667 1383 1070 c 0,7,8
 1383 1404 1383 1404 1060 1500 c 1,9,-1
 1060 1510 l 1,0,1
754 0 m 1,10,-1
 169 1359 l 2,11,12
 129 1453 129 1453 5 1500 c 9,13,-1
 5 1510 l 1,14,-1
 324 1510 l 1,15,-1
 909 151 l 2,16,17
 950 57 950 57 1073 10 c 9,18,-1
 1073 0 l 17,19,-1
 754 0 l 1,10,-1
EndSplineSet
Validated: 1
EndChar

StartChar: W
Encoding: 87 87 58
Width: 2326
GlyphClass: 2
Flags: W
HStem: 0 10<1061.65 1073 1684.65 1696> 1500 10<5 16.4404 628 639.44 1683 1693.01>
VStem: 2006 220<842.43 1281.01>
DStem2: 324 1510 169 1359 0.395387 -0.918515<0 1556.97> 947 1510 792 1359 0.395387 -0.918515<0 1556.97>
LayerCount: 2
Fore
SplineSet
1683 1510 m 1,0,1
 2226 1510 2226 1510 2226 1070 c 0,2,3
 2226 650 2226 650 1610 116 c 1,4,-1
 1604 124 l 1,5,6
 2006 667 2006 667 2006 1070 c 0,7,8
 2006 1404 2006 1404 1683 1500 c 1,9,-1
 1683 1510 l 1,0,1
754 0 m 1,10,-1
 169 1359 l 2,11,12
 129 1453 129 1453 5 1500 c 9,13,-1
 5 1510 l 1,14,-1
 324 1510 l 1,15,-1
 909 151 l 2,16,17
 950 57 950 57 1073 10 c 9,18,-1
 1073 0 l 17,19,-1
 754 0 l 1,10,-1
1377 0 m 1,20,-1
 792 1359 l 2,21,22
 752 1453 752 1453 628 1500 c 9,23,-1
 628 1510 l 1,24,-1
 947 1510 l 1,25,-1
 1532 151 l 2,26,27
 1573 57 1573 57 1696 10 c 9,28,-1
 1696 0 l 17,29,-1
 1377 0 l 1,20,-1
EndSplineSet
Validated: 1
EndChar

StartChar: X
Encoding: 88 88 59
Width: 1527
GlyphClass: 2
Flags: W
HStem: 0 21G<88 268.106 1135.93 1397> 1500 10<5 16.4038 933 940.255>
VStem: 88 154<0 154> 1150 247<0 247> 1167 220<950.272 1330.99>
DStem2: 88 0 242 0 0.792068 0.610433<121.978 865.214> 331 1510 193 1361 0.576726 -0.816938<0 1057 1153.26 1705.91>
LayerCount: 2
Fore
SplineSet
933 1510 m 1,0,1
 1387 1510 1387 1510 1387 1163 c 0,2,3
 1387 836 1387 836 1026 616 c 1,4,-1
 1020 624 l 1,5,6
 1167 859 1167 859 1167 1116 c 0,7,8
 1167 1404 1167 1404 933 1500 c 1,9,-1
 933 1510 l 1,0,1
88 0 m 1,10,-1
 777 531 l 1,11,-1
 193 1361 l 2,12,13
 128 1453 128 1453 5 1500 c 1,14,-1
 5 1510 l 1,15,-1
 331 1510 l 1,16,-1
 1397 0 l 1,17,-1
 1150 0 l 1,18,-1
 832 452 l 1,19,-1
 242 0 l 1,20,-1
 88 0 l 1,10,-1
EndSplineSet
Validated: 1
EndChar

StartChar: Y
Encoding: 89 89 60
Width: 1477
GlyphClass: 2
Flags: W
HStem: 0 21G<660 860> 1500 10<5 17.5654 938 945.1>
VStem: 660 200<0 504> 1167 210<985.84 1348.77>
DStem2: 339 1510 193 1361 0.474697 -0.880149<0 1037.81>
LayerCount: 2
Fore
SplineSet
660 0 m 1,0,-1
 660 504 l 1,1,-1
 193 1361 l 2,2,3
 141 1457 141 1457 5 1500 c 1,4,-1
 5 1510 l 1,5,-1
 339 1510 l 1,6,-1
 860 544 l 1,7,-1
 860 0 l 1,8,-1
 660 0 l 1,0,-1
938 1510 m 1,9,10
 1377 1510 1377 1510 1377 1170 c 0,11,12
 1377 879 1377 879 927 576 c 1,13,-1
 921 584 l 1,14,15
 1167 872 1167 872 1167 1170 c 0,16,17
 1167 1415 1167 1415 938 1500 c 1,18,-1
 938 1510 l 1,9,10
EndSplineSet
Validated: 1
EndChar

StartChar: Z
Encoding: 90 90 61
Width: 1365
GlyphClass: 2
Flags: W
HStem: 0 100<80 1147.41> 1430 80<232.959 816.266>
VStem: 160 10<1290 1302.82> 995 220<890.362 1275.05> 1205 10<227.183 240>
LayerCount: 2
Fore
SplineSet
80 0 m 1,0,-1
 80 100 l 1,1,-1
 1025 100 l 10,2,3
 1158 100 1158 100 1205 240 c 1,4,-1
 1215 240 l 1,5,-1
 1215 0 l 1,6,-1
 80 0 l 1,0,-1
160 1510 m 1,7,-1
 611 1510 l 2,8,9
 1215 1510 1215 1510 1215 1080 c 0,10,11
 1215 580 1215 580 194 149 c 1,12,-1
 189 158 l 1,13,14
 995 680 995 680 995 1080 c 0,15,16
 995 1430 995 1430 611 1430 c 2,17,-1
 350 1430 l 2,18,19
 217 1430 217 1430 170 1290 c 1,20,-1
 160 1290 l 1,21,-1
 160 1510 l 1,7,-1
EndSplineSet
Validated: 1
EndChar

StartChar: bracketleft
Encoding: 91 91 62
Width: 803
GlyphClass: 2
Flags: W
HStem: -250 80<402 753> 1680 80<402 753>
VStem: 200 202<-170 1680>
LayerCount: 2
Fore
SplineSet
200 -250 m 1,0,-1
 200 1760 l 1,1,-1
 753 1760 l 1,2,-1
 753 1680 l 1,3,-1
 402 1680 l 1,4,-1
 402 -170 l 1,5,-1
 753 -170 l 1,6,-1
 753 -250 l 1,7,-1
 200 -250 l 1,0,-1
EndSplineSet
Validated: 1
EndChar

StartChar: backslash
Encoding: 92 92 63
Width: 1059
GlyphClass: 2
Flags: W
DStem2: 147 1690 10 1627 0.447016 -0.894526<0 2015.18>
LayerCount: 2
Fore
SplineSet
913 -180 m 1,0,-1
 10 1627 l 1,1,-1
 147 1690 l 1,2,-1
 1049 -115 l 1,3,-1
 913 -180 l 1,0,-1
EndSplineSet
Validated: 1
EndChar

StartChar: bracketright
Encoding: 93 93 64
Width: 803
GlyphClass: 2
Flags: W
HStem: -250 80<50 401> 1680 80<50 401>
VStem: 401 202<-170 1680>
LayerCount: 2
Fore
SplineSet
603 -250 m 1,0,-1
 50 -250 l 1,1,-1
 50 -170 l 1,2,-1
 401 -170 l 1,3,-1
 401 1680 l 1,4,-1
 50 1680 l 1,5,-1
 50 1760 l 1,6,-1
 603 1760 l 1,7,-1
 603 -250 l 1,0,-1
EndSplineSet
Validated: 1
EndChar

StartChar: asciicircum
Encoding: 94 94 65
Width: 736
GlyphClass: 2
Flags: W
HStem: 1180 370
VStem: 50 636
DStem2: 50 1246 113 1180 0.746442 0.66545<3.10616 318.346> 391 1550 349 1389 0.747689 -0.664049<75.509 388.507>
LayerCount: 2
Fore
SplineSet
391 1550 m 1,0,-1
 686 1288 l 1,1,-1
 582 1180 l 1,2,-1
 349 1389 l 1,3,-1
 113 1180 l 1,4,-1
 50 1246 l 1,5,-1
 391 1550 l 1,0,-1
EndSplineSet
Validated: 1
EndChar

StartChar: underscore
Encoding: 95 95 66
Width: 1133
GlyphClass: 2
Flags: W
HStem: -200 100<150 983>
LayerCount: 2
Fore
SplineSet
150 -100 m 1,0,-1
 983 -100 l 1,1,-1
 983 -200 l 1,2,-1
 150 -200 l 1,3,-1
 150 -100 l 1,0,-1
EndSplineSet
Validated: 1
EndChar

StartChar: grave
Encoding: 96 96 67
Width: 427
GlyphClass: 2
Flags: W
HStem: 1150 374
VStem: 50 327
LayerCount: 2
Fore
SplineSet
178 1524 m 1,0,1
 358 1397 358 1397 377 1150 c 1,2,-1
 367 1150 l 1,3,4
 234 1327 234 1327 50 1397 c 1,5,-1
 178 1524 l 1,0,1
EndSplineSet
Validated: 1
EndChar

StartChar: a
Encoding: 97 97 68
Width: 1268
GlyphClass: 2
Flags: W
HStem: 0 10<730.906 740 1195.18 1208> 1030 70<550.25 888>
VStem: 100 200<336.097 773.062> 888 180<67.5859 1030>
LayerCount: 2
Fore
SplineSet
1208 0 m 1,0,-1
 888 0 l 1,1,-1
 888 1030 l 1,2,-1
 728 1030 l 2,3,4
 529 1030 529 1030 415 897 c 0,5,6
 300 765 300 765 300 550 c 0,7,8
 300 362 300 362 421 210 c 0,9,10
 522 82 522 82 740 10 c 9,11,-1
 740 0 l 17,12,13
 448 0 448 0 281 140 c 0,14,15
 100 292 100 292 100 550 c 0,16,17
 100 798 100 798 281 960 c 0,18,19
 436 1100 436 1100 708 1100 c 2,20,-1
 1068 1100 l 1,21,-1
 1068 190 l 2,22,23
 1068 57 1068 57 1208 10 c 1,24,-1
 1208 0 l 1,0,-1
EndSplineSet
Validated: 1
EndChar

StartChar: b
Encoding: 98 98 69
Width: 1268
GlyphClass: 2
Flags: W
HStem: 0 70<380 716.75> 1090 10<528 537.094> 1500 10<60 72.8174>
VStem: 200 180<70 1442.41> 968 200<326.938 763.903>
LayerCount: 2
Fore
SplineSet
200 0 m 1,0,-1
 200 1320 l 2,1,2
 200 1453 200 1453 60 1500 c 1,3,-1
 60 1510 l 1,4,-1
 380 1510 l 1,5,-1
 380 70 l 1,6,-1
 540 70 l 2,7,8
 737 70 737 70 853 203 c 0,9,10
 968 335 968 335 968 550 c 0,11,12
 968 738 968 738 847 890 c 0,13,14
 746 1018 746 1018 528 1090 c 9,15,-1
 528 1100 l 17,16,17
 820 1100 820 1100 987 960 c 0,18,19
 1168 808 1168 808 1168 550 c 0,20,21
 1168 302 1168 302 987 140 c 0,22,23
 832 0 832 0 560 0 c 2,24,-1
 200 0 l 1,0,-1
EndSplineSet
Validated: 1
EndChar

StartChar: c
Encoding: 99 99 70
Width: 1185
GlyphClass: 2
Flags: W
HStem: -20 80<509.507 846.46> 1051 69<494.434 788.455>
VStem: 100 200<309.084 791.911>
LayerCount: 2
Fore
SplineSet
638 -20 m 0,0,1
 384 -20 384 -20 230 164 c 0,2,3
 100 320 100 320 100 550 c 0,4,5
 100 778 100 778 230 936 c 0,6,7
 383 1120 383 1120 638 1120 c 0,8,9
 896 1120 896 1120 1053 926 c 1,10,-1
 899 773 l 1,11,-1
 892 779 l 1,12,13
 902 811 902 811 902 846 c 0,14,15
 902 893 902 893 881 928 c 0,16,17
 808 1051 808 1051 638 1051 c 0,18,19
 469 1051 469 1051 381 906 c 256,20,21
 300 773 300 773 300 550 c 0,22,23
 300 316 300 316 386 202 c 256,24,25
 493 60 493 60 682 60 c 0,26,27
 898 60 898 60 1077 224 c 257,28,-1
 1085 218 l 1,29,30
 920 -20 920 -20 638 -20 c 0,0,1
EndSplineSet
Validated: 1
EndChar

StartChar: d
Encoding: 100 100 71
Width: 1268
GlyphClass: 2
Flags: W
HStem: 0 70<551.25 888> 0 10<1195.18 1208> 1090 10<730.906 740> 1500 10<748 760.817>
VStem: 100 200<326.938 763.903> 888 180<70.2515 1442.41>
LayerCount: 2
Fore
SplineSet
1208 0 m 1,0,-1
 708 0 l 2,1,2
 436 0 436 0 281 140 c 0,3,4
 100 302 100 302 100 550 c 0,5,6
 100 808 100 808 281 960 c 0,7,8
 448 1100 448 1100 740 1100 c 9,9,-1
 740 1090 l 17,10,11
 522 1018 522 1018 421 890 c 0,12,13
 300 738 300 738 300 550 c 0,14,15
 300 335 300 335 415 203 c 0,16,17
 531 70 531 70 728 70 c 2,18,-1
 888 70 l 1,19,-1
 888 1320 l 10,20,21
 888 1453 888 1453 748 1500 c 1,22,-1
 748 1510 l 1,23,-1
 1068 1510 l 1,24,-1
 1068 190 l 10,25,26
 1068 57 1068 57 1208 10 c 1,27,-1
 1208 0 l 1,0,-1
EndSplineSet
Validated: 1
EndChar

StartChar: e
Encoding: 101 101 72
Width: 1185
GlyphClass: 2
Flags: W
HStem: -20 80<509.507 846.46> 515 70<301 794> 1051 69<494.434 788.455>
VStem: 100 201<308.926 515 585 790.229>
LayerCount: 2
Fore
SplineSet
638 -20 m 0,0,1
 384 -20 384 -20 230 164 c 0,2,3
 100 320 100 320 100 550 c 0,4,5
 100 778 100 778 230 936 c 0,6,7
 383 1120 383 1120 638 1120 c 0,8,9
 896 1120 896 1120 1053 926 c 1,10,-1
 899 773 l 1,11,-1
 892 779 l 1,12,13
 902 811 902 811 902 846 c 0,14,15
 902 893 902 893 881 928 c 0,16,17
 808 1051 808 1051 638 1051 c 0,18,19
 469 1051 469 1051 381 906 c 0,20,21
 306 784 306 784 301 585 c 1,22,-1
 794 585 l 1,23,-1
 794 515 l 1,24,-1
 301 515 l 1,25,26
 307 307 307 307 386 202 c 0,27,28
 493 60 493 60 682 60 c 0,29,30
 898 60 898 60 1077 224 c 1,31,-1
 1085 218 l 1,32,33
 920 -20 920 -20 638 -20 c 0,0,1
EndSplineSet
Validated: 1
EndChar

StartChar: g
Encoding: 103 103 73
Width: 1268
GlyphClass: 2
Flags: W
HStem: -410 10<458 471.333> 0 10<730.906 740> 1030 70<551.25 888>
VStem: 100 200<336.097 773.062> 888 180<-76.2305 1030>
LayerCount: 2
Fore
SplineSet
740 0 m 17,0,1
 448 0 448 0 281 140 c 0,2,3
 100 292 100 292 100 550 c 0,4,5
 100 798 100 798 281 960 c 0,6,7
 436 1100 436 1100 708 1100 c 2,8,-1
 1068 1100 l 1,9,-1
 1068 175 l 2,10,11
 1068 -410 1068 -410 458 -410 c 1,12,-1
 458 -400 l 1,13,14
 888 -279 888 -279 888 175 c 2,15,-1
 888 1030 l 1,16,-1
 728 1030 l 2,17,18
 531 1030 531 1030 415 897 c 0,19,20
 300 765 300 765 300 550 c 0,21,22
 300 362 300 362 421 210 c 0,23,24
 522 82 522 82 740 10 c 9,25,-1
 740 0 l 17,0,1
EndSplineSet
Validated: 1
EndChar

StartChar: h
Encoding: 104 104 74
Width: 1268
GlyphClass: 2
Flags: W
HStem: 0 21G<200 380 708 803.5> 1030 70<380 717.25> 1500 10<60 72.8174>
VStem: 200 180<0 1030 1100 1442.41> 968 200<326.728 769.963>
LayerCount: 2
Fore
SplineSet
200 0 m 1,0,-1
 200 1320 l 2,1,2
 200 1453 200 1453 60 1500 c 1,3,-1
 60 1510 l 1,4,-1
 380 1510 l 1,5,-1
 380 1100 l 1,6,-1
 560 1100 l 2,7,8
 832 1100 832 1100 987 960 c 0,9,10
 1168 796 1168 796 1168 550 c 0,11,12
 1168 317 1168 317 1002 150 c 0,13,14
 889 36 889 36 718 -20 c 1,15,-1
 708 -20 l 1,16,17
 852 118 852 118 915 273 c 0,18,19
 968 402 968 402 968 550 c 0,20,21
 968 765 968 765 853 897 c 0,22,23
 738 1030 738 1030 540 1030 c 2,24,-1
 380 1030 l 1,25,-1
 380 0 l 1,26,-1
 200 0 l 1,0,-1
EndSplineSet
Validated: 1
EndChar

StartChar: i
Encoding: 105 105 75
Width: 580
GlyphClass: 2
Flags: W
HStem: 0 10<507.183 520> 1090 10<60 72.8174> 1200 264<189.191 370.809>
VStem: 150 260<1239.71 1424.29> 200 180<67.5859 1032.41>
LayerCount: 2
Fore
SplineSet
200 0 m 1,0,-1
 200 910 l 2,1,2
 200 1043 200 1043 60 1090 c 1,3,-1
 60 1100 l 1,4,-1
 380 1100 l 1,5,-1
 380 190 l 10,6,7
 380 57 380 57 520 10 c 1,8,-1
 520 0 l 1,9,-1
 200 0 l 1,0,-1
280 1464 m 128,-1,11
 334 1464 334 1464 372 1425.5 c 128,-1,12
 410 1387 410 1387 410 1332 c 128,-1,13
 410 1277 410 1277 372 1238.5 c 128,-1,14
 334 1200 334 1200 280 1200 c 128,-1,15
 226 1200 226 1200 188 1238.5 c 128,-1,16
 150 1277 150 1277 150 1332 c 128,-1,17
 150 1387 150 1387 188 1425.5 c 128,-1,10
 226 1464 226 1464 280 1464 c 128,-1,11
EndSplineSet
Validated: 1
EndChar

StartChar: j
Encoding: 106 106 76
Width: 580
GlyphClass: 2
Flags: W
HStem: -410 10<20 31.0742> 1090 10<60 72.8174> 1200 264<189.191 370.809>
VStem: 150 260<1239.71 1424.29> 200 180<-265.728 1032.41>
LayerCount: 2
Fore
SplineSet
280 1464 m 128,-1,1
 334 1464 334 1464 372 1425.5 c 128,-1,2
 410 1387 410 1387 410 1332 c 128,-1,3
 410 1277 410 1277 372 1238.5 c 128,-1,4
 334 1200 334 1200 280 1200 c 128,-1,5
 226 1200 226 1200 188 1238.5 c 128,-1,6
 150 1277 150 1277 150 1332 c 128,-1,7
 150 1387 150 1387 188 1425.5 c 128,-1,0
 226 1464 226 1464 280 1464 c 128,-1,1
20 -410 m 1,8,-1
 20 -400 l 1,9,10
 200 -341 200 -341 200 -75 c 2,11,-1
 200 910 l 10,12,13
 200 1043 200 1043 60 1090 c 1,14,-1
 60 1100 l 1,15,-1
 380 1100 l 1,16,-1
 380 -75 l 2,17,18
 380 -410 380 -410 20 -410 c 1,8,-1
EndSplineSet
Validated: 1
EndChar

StartChar: k
Encoding: 107 107 77
Width: 1274
GlyphClass: 2
Flags: W
HStem: 0 21G<200 380 936.981 1254> 1090 10<708 713.891> 1500 10<60 72.8174>
VStem: 200 180<0 1442.41> 898 200<633.874 970.796> 962 292<0 292>
DStem2: 788 362 638 259 0.789717 -0.613471<0 359.487>
LayerCount: 2
Fore
SplineSet
1254 0 m 1,0,-1
 962 0 l 1,1,-1
 638 259 l 1,2,-1
 419 184 l 1,3,-1
 414 192 l 1,4,5
 601 322 601 322 740 454 c 0,6,7
 898 604 898 604 898 810 c 0,8,9
 898 1002 898 1002 708 1090 c 1,10,-1
 708 1100 l 1,11,12
 1098 1100 1098 1100 1098 812 c 0,13,14
 1098 565 1098 565 788 362 c 1,15,-1
 1254 0 l 1,0,-1
200 0 m 1,16,-1
 200 1320 l 10,17,18
 200 1453 200 1453 60 1500 c 1,19,-1
 60 1510 l 1,20,-1
 380 1510 l 1,21,-1
 380 0 l 1,22,-1
 200 0 l 1,16,-1
EndSplineSet
Validated: 1
EndChar

StartChar: l
Encoding: 108 108 78
Width: 580
GlyphClass: 2
Flags: W
HStem: 0 10<507.183 520> 1500 10<60 72.8174>
VStem: 200 180<67.5859 1442.41>
LayerCount: 2
Fore
SplineSet
200 0 m 1,0,-1
 200 1320 l 2,1,2
 200 1453 200 1453 60 1500 c 1,3,-1
 60 1510 l 1,4,-1
 380 1510 l 1,5,-1
 380 190 l 10,6,7
 380 57 380 57 520 10 c 1,8,-1
 520 0 l 1,9,-1
 200 0 l 1,0,-1
EndSplineSet
Validated: 1
EndChar

StartChar: m
Encoding: 109 109 79
Width: 1745
GlyphClass: 2
Flags: W
HStem: 0 21G<200 380 787 967 1185 1280.5> 1030 70<380 1194.25> 1090 10<60 72.8174>
VStem: 200 180<0 1029.75> 787 180<0 850> 1445 200<326.728 769.963>
LayerCount: 2
Fore
SplineSet
200 0 m 1,0,-1
 200 910 l 2,1,2
 200 1043 200 1043 60 1090 c 1,3,-1
 60 1100 l 1,4,-1
 1037 1100 l 2,5,6
 1309 1100 1309 1100 1464 960 c 0,7,8
 1645 796 1645 796 1645 550 c 0,9,10
 1645 317 1645 317 1479 150 c 0,11,12
 1366 36 1366 36 1195 -20 c 1,13,-1
 1185 -20 l 1,14,15
 1329 118 1329 118 1392 273 c 0,16,17
 1445 402 1445 402 1445 550 c 0,18,19
 1445 765 1445 765 1330 897 c 0,20,21
 1215 1030 1215 1030 1017 1030 c 2,22,-1
 380 1030 l 1,23,-1
 380 0 l 1,24,-1
 200 0 l 1,0,-1
787 0 m 1,25,-1
 787 850 l 1,26,-1
 967 850 l 1,27,-1
 967 0 l 1,28,-1
 787 0 l 1,25,-1
EndSplineSet
Validated: 1
EndChar

StartChar: n
Encoding: 110 110 80
Width: 1268
GlyphClass: 2
Flags: W
HStem: 0 21G<200 380 708 803.5> 1030 70<380 717.25> 1090 10<60 72.8174>
VStem: 200 180<0 1029.75> 968 200<326.728 769.963>
LayerCount: 2
Fore
SplineSet
200 0 m 1,0,-1
 200 910 l 2,1,2
 200 1043 200 1043 60 1090 c 1,3,-1
 60 1100 l 1,4,-1
 560 1100 l 2,5,6
 832 1100 832 1100 987 960 c 0,7,8
 1168 796 1168 796 1168 550 c 0,9,10
 1168 317 1168 317 1002 150 c 0,11,12
 889 36 889 36 718 -20 c 1,13,-1
 708 -20 l 1,14,15
 852 118 852 118 915 273 c 0,16,17
 968 402 968 402 968 550 c 0,18,19
 968 765 968 765 853 897 c 0,20,21
 738 1030 738 1030 540 1030 c 2,22,-1
 380 1030 l 1,23,-1
 380 0 l 1,24,-1
 200 0 l 1,0,-1
EndSplineSet
Validated: 1
EndChar

StartChar: o
Encoding: 111 111 81
Width: 1276
GlyphClass: 2
Flags: W
HStem: -20 69<493.517 782.483> 1051 69<493.517 782.483>
VStem: 100 200<308.792 791.208> 976 200<308.792 791.208>
LayerCount: 2
Fore
SplineSet
638 49 m 128,-1,1
 809 49 809 49 895 194 c 256,2,3
 976 330 976 330 976 550 c 128,-1,4
 976 770 976 770 895 906 c 256,5,6
 809 1051 809 1051 638 1051 c 128,-1,7
 467 1051 467 1051 381 906 c 256,8,9
 300 770 300 770 300 550 c 128,-1,10
 300 330 300 330 381 194 c 256,11,0
 467 49 467 49 638 49 c 128,-1,1
638 -20 m 128,-1,13
 381 -20 381 -20 230 164 c 0,14,15
 100 322 100 322 100 550 c 128,-1,16
 100 778 100 778 230 936 c 0,17,18
 381 1120 381 1120 638 1120 c 128,-1,19
 895 1120 895 1120 1046 936 c 0,20,21
 1176 778 1176 778 1176 550 c 128,-1,22
 1176 322 1176 322 1046 164 c 0,23,12
 895 -20 895 -20 638 -20 c 128,-1,13
EndSplineSet
Validated: 1
EndChar

StartChar: p
Encoding: 112 112 82
Width: 1268
GlyphClass: 2
Flags: W
HStem: -410 21G<200 380> 0 10<528 537.094> 1030 70<380 716.75> 1090 10<60 72.8174>
VStem: 200 180<-410 1029.75> 968 200<336.097 773.062>
LayerCount: 2
Fore
SplineSet
200 -410 m 25,0,-1
 200 910 l 10,1,2
 200 1043 200 1043 60 1090 c 1,3,-1
 60 1100 l 1,4,-1
 560 1100 l 2,5,6
 832 1100 832 1100 987 960 c 0,7,8
 1168 798 1168 798 1168 550 c 0,9,10
 1168 292 1168 292 987 140 c 0,11,12
 820 0 820 0 528 0 c 9,13,-1
 528 10 l 17,14,15
 746 82 746 82 847 210 c 0,16,17
 968 362 968 362 968 550 c 0,18,19
 968 765 968 765 853 897 c 0,20,21
 737 1030 737 1030 540 1030 c 2,22,-1
 380 1030 l 1,23,-1
 380 -410 l 1,24,-1
 200 -410 l 25,0,-1
EndSplineSet
Validated: 1
EndChar

StartChar: q
Encoding: 113 113 83
Width: 1268
GlyphClass: 2
Flags: W
HStem: -410 10<1195.18 1208> 0 10<730.906 740> 1030 70<551.25 888>
VStem: 100 200<336.097 773.062> 888 180<-342.414 1030>
LayerCount: 2
Fore
SplineSet
1208 -410 m 1,0,-1
 888 -410 l 1,1,-1
 888 1030 l 1,2,-1
 728 1030 l 2,3,4
 531 1030 531 1030 415 897 c 0,5,6
 300 765 300 765 300 550 c 0,7,8
 300 362 300 362 421 210 c 0,9,10
 522 82 522 82 740 10 c 9,11,-1
 740 0 l 17,12,13
 448 0 448 0 281 140 c 0,14,15
 100 292 100 292 100 550 c 0,16,17
 100 798 100 798 281 960 c 0,18,19
 436 1100 436 1100 708 1100 c 2,20,-1
 1068 1100 l 1,21,-1
 1068 -220 l 2,22,23
 1068 -353 1068 -353 1208 -400 c 1,24,-1
 1208 -410 l 1,0,-1
EndSplineSet
Validated: 1
EndChar

StartChar: r
Encoding: 114 114 84
Width: 1067
GlyphClass: 2
Flags: W
HStem: 0 21G<200 380> 1030 70<380 668.359> 1090 10<60 72.8174>
VStem: 200 180<0 1029.75> 807 180<578.694 904.815>
LayerCount: 2
Fore
SplineSet
200 0 m 1,0,-1
 200 910 l 2,1,2
 200 1043 200 1043 60 1090 c 1,3,-1
 60 1100 l 1,4,-1
 560 1100 l 2,5,6
 744 1100 744 1100 860 1008 c 0,7,8
 987 906 987 906 987 752 c 0,9,10
 987 623 987 623 906 524 c 0,11,12
 799 393 799 393 628 393 c 1,13,-1
 628 403 l 1,14,15
 729 472 729 472 770 563 c 0,16,17
 807 646 807 646 807 742 c 0,18,19
 807 861 807 861 736 942 c 0,20,21
 659 1030 659 1030 513 1030 c 2,22,-1
 380 1030 l 1,23,-1
 380 0 l 1,24,-1
 200 0 l 1,0,-1
EndSplineSet
Validated: 1
EndChar

StartChar: s
Encoding: 115 115 85
Width: 964
GlyphClass: 2
Flags: W
HStem: -20 69<333.601 585.403> 1051 69<400.795 591.395>
VStem: 218 138<821.649 1006.45> 718 166<197.724 446.536>
DStem2: 472 772 400 611 0.893545 -0.448973<-140.847 359.077>
LayerCount: 2
Fore
SplineSet
452 -20 m 0,0,1
 332 -20 332 -20 242 34 c 0,2,3
 136 98 136 98 80 218 c 1,4,-1
 234 371 l 1,5,-1
 241 365 l 1,6,7
 231 333 231 333 231 298 c 0,8,9
 231 220 231 220 264 161 c 0,10,11
 327 49 327 49 454 49 c 0,12,13
 583 49 583 49 660 148 c 0,14,15
 718 223 718 223 718 317 c 0,16,17
 718 449 718 449 589 515 c 2,18,-1
 400 611 l 2,19,20
 218 703 218 703 218 866 c 0,21,22
 218 979 218 979 311 1059 c 0,23,24
 382 1120 382 1120 506 1120 c 0,25,26
 625 1120 625 1120 694 1054 c 0,27,28
 734 1016 734 1016 756 964 c 1,29,-1
 628 838 l 1,30,-1
 621 844 l 1,31,32
 631 876 631 876 631 911 c 0,33,34
 631 958 631 958 610 993 c 0,35,36
 575 1051 575 1051 501 1051 c 0,37,38
 437 1051 437 1051 399 1017 c 0,39,40
 356 979 356 979 356 917 c 0,41,42
 356 830 356 830 472 772 c 2,43,-1
 675 670 l 2,44,45
 884 565 884 565 884 370 c 0,46,47
 884 200 884 200 739 79 c 24,48,49
 620 -20 620 -20 452 -20 c 0,0,1
EndSplineSet
Validated: 1
EndChar

StartChar: t
Encoding: 116 116 86
Width: 750
GlyphClass: 2
Flags: W
HStem: 0 10<507.183 520> 1030 70<380 730> 1500 10<60 72.8174>
VStem: 200 180<67.5859 1030 1100 1442.41>
LayerCount: 2
Fore
SplineSet
200 0 m 1,0,-1
 200 1320 l 2,1,2
 200 1453 200 1453 60 1500 c 1,3,-1
 60 1510 l 1,4,-1
 380 1510 l 1,5,-1
 380 1100 l 1,6,-1
 730 1100 l 1,7,-1
 730 1030 l 1,8,-1
 380 1030 l 1,9,-1
 380 190 l 2,10,11
 380 57 380 57 520 10 c 1,12,-1
 520 0 l 1,13,-1
 200 0 l 1,0,-1
EndSplineSet
Validated: 1
EndChar

StartChar: u
Encoding: 117 117 87
Width: 1268
GlyphClass: 2
Flags: W
HStem: 0 70<550.75 888> 0 10<1195.18 1208> 1100 0G<464.5 560 888 1068>
VStem: 100 200<330.037 773.272> 888 180<70.2515 1100>
LayerCount: 2
Fore
SplineSet
1208 0 m 1,0,-1
 708 0 l 2,1,2
 436 0 436 0 281 140 c 0,3,4
 100 304 100 304 100 550 c 0,5,6
 100 783 100 783 266 950 c 0,7,8
 379 1064 379 1064 550 1120 c 1,9,-1
 560 1120 l 1,10,11
 416 982 416 982 353 827 c 0,12,13
 300 698 300 698 300 550 c 0,14,15
 300 335 300 335 415 203 c 0,16,17
 530 70 530 70 728 70 c 2,18,-1
 888 70 l 1,19,-1
 888 1100 l 1,20,-1
 1068 1100 l 1,21,-1
 1068 190 l 2,22,23
 1068 57 1068 57 1208 10 c 1,24,-1
 1208 0 l 1,0,-1
EndSplineSet
Validated: 1
EndChar

StartChar: v
Encoding: 118 118 88
Width: 1356
GlyphClass: 2
Flags: W
HStem: 0 10<864.649 876> 1090 10<5 16.3511 782 790.496>
VStem: 1056 200<561.726 919.525>
DStem2: 303 1100 169 949 0.395787 -0.918342<0 1119.02>
LayerCount: 2
Fore
SplineSet
876 0 m 1,0,-1
 578 0 l 1,1,-1
 169 949 l 2,2,3
 128 1045 128 1045 5 1090 c 9,4,-1
 5 1100 l 1,5,-1
 303 1100 l 1,6,-1
 712 151 l 2,7,8
 753 55 753 55 876 10 c 9,9,-1
 876 0 l 1,0,-1
782 1100 m 1,10,11
 1256 1100 1256 1100 1256 765 c 0,12,13
 1256 447 1256 447 818 105 c 1,14,-1
 812 113 l 1,15,16
 1056 424 1056 424 1056 734 c 0,17,18
 1056 1010 1056 1010 782 1090 c 1,19,-1
 782 1100 l 1,10,11
EndSplineSet
Validated: 1
EndChar

StartChar: w
Encoding: 119 119 89
Width: 1896
GlyphClass: 2
Flags: W
HStem: 0 10<864.649 876 1404.65 1416> 1090 10<5 16.3511 545 556.351 1322 1330.5>
VStem: 1596 200<561.726 919.525>
DStem2: 303 1100 169 949 0.395787 -0.918342<0 1119.02> 843 1100 709 949 0.395787 -0.918342<0 1119.02>
LayerCount: 2
Fore
SplineSet
876 0 m 1,0,-1
 578 0 l 1,1,-1
 169 949 l 2,2,3
 128 1045 128 1045 5 1090 c 9,4,-1
 5 1100 l 1,5,-1
 303 1100 l 1,6,-1
 712 151 l 2,7,8
 753 55 753 55 876 10 c 9,9,-1
 876 0 l 1,0,-1
1416 0 m 1,10,-1
 1118 0 l 1,11,-1
 709 949 l 2,12,13
 668 1045 668 1045 545 1090 c 9,14,-1
 545 1100 l 1,15,-1
 843 1100 l 1,16,-1
 1252 151 l 2,17,18
 1293 55 1293 55 1416 10 c 9,19,-1
 1416 0 l 1,10,-1
1322 1100 m 1,20,21
 1796 1100 1796 1100 1796 765 c 0,22,23
 1796 447 1796 447 1358 105 c 1,24,-1
 1352 113 l 1,25,26
 1596 424 1596 424 1596 734 c 0,27,28
 1596 1010 1596 1010 1322 1090 c 1,29,-1
 1322 1100 l 1,20,21
EndSplineSet
Validated: 1
EndChar

StartChar: x
Encoding: 120 120 90
Width: 1213
GlyphClass: 2
Flags: W
HStem: 0 21G<17 170.106 846.938 1083> 1090 10<720 730.028>
VStem: 17 127<0 127> 861 222<0 222> 883 190<684.733 987.152>
DStem2: 17 0 144 0 0.792301 0.61013<100.622 687.651> 305 1100 193 951 0.577441 -0.816433<0 703.676 782.729 1219.13>
LayerCount: 2
Fore
SplineSet
17 0 m 1,0,-1
 565 422 l 1,1,-1
 193 951 l 2,2,3
 130 1041 130 1041 5 1090 c 1,4,-1
 5 1100 l 1,5,-1
 305 1100 l 1,6,-1
 1083 0 l 1,7,-1
 861 0 l 1,8,-1
 610 357 l 1,9,-1
 144 0 l 1,10,-1
 17 0 l 1,0,-1
720 1100 m 1,11,12
 1073 1100 1073 1100 1073 836 c 0,13,14
 1073 631 1073 631 781 478 c 1,15,-1
 775 486 l 1,16,17
 883 668 883 668 883 834 c 0,18,19
 883 1014 883 1014 720 1090 c 1,20,-1
 720 1100 l 1,11,12
EndSplineSet
Validated: 1
EndChar

StartChar: y
Encoding: 121 121 91
Width: 1268
GlyphClass: 2
Flags: W
HStem: -410 10<458 468.559> 0 70<550.75 869> 1100 0G<464.5 560 888 1068>
VStem: 100 200<330.536 773.272> 888 180<71.5637 1100>
LayerCount: 2
Fore
SplineSet
708 0 m 2,0,1
 434 0 434 0 281 140 c 0,2,3
 100 306 100 306 100 550 c 0,4,5
 100 783 100 783 266 950 c 0,6,7
 379 1064 379 1064 550 1120 c 1,8,-1
 560 1120 l 1,9,10
 416 982 416 982 353 827 c 0,11,12
 300 698 300 698 300 550 c 0,13,14
 300 335 300 335 415 203 c 0,15,16
 530 70 530 70 728 70 c 2,17,-1
 882 70 l 1,18,19
 888 120 888 120 888 175 c 2,20,-1
 888 1100 l 1,21,-1
 1068 1100 l 1,22,-1
 1068 175 l 2,23,24
 1068 -410 1068 -410 458 -410 c 1,25,-1
 458 -400 l 1,26,27
 798 -304 798 -304 869 0 c 1,28,-1
 708 0 l 2,0,1
EndSplineSet
Validated: 1
EndChar

StartChar: z
Encoding: 122 122 92
Width: 1130
GlyphClass: 2
Flags: W
HStem: 0 90<80 920.159> 1030 70<238.5 662.465>
VStem: 160 10<890 902.817> 780 200<623.89 941.091> 970 10<199.014 210>
LayerCount: 2
Fore
SplineSet
80 0 m 1,0,-1
 80 90 l 1,1,-1
 790 90 l 10,2,3
 923 90 923 90 970 210 c 1,4,-1
 980 210 l 1,5,-1
 980 0 l 1,6,-1
 80 0 l 1,0,-1
160 1100 m 1,7,-1
 499 1100 l 2,8,9
 980 1100 980 1100 980 779 c 0,10,11
 980 406 980 406 194 149 c 1,12,-1
 189 158 l 1,13,14
 780 485 780 485 780 790 c 0,15,16
 780 1030 780 1030 499 1030 c 2,17,-1
 350 1030 l 10,18,19
 217 1030 217 1030 170 890 c 1,20,-1
 160 890 l 1,21,-1
 160 1100 l 1,7,-1
EndSplineSet
Validated: 1
EndChar

StartChar: braceleft
Encoding: 123 123 93
Width: 818
GlyphClass: 2
Flags: W
HStem: -250 80<587.203 768> 715 80<50 236> 1680 80<587.203 768>
VStem: 236 195<-17.5293 715 795 1527.53>
CounterMasks: 1 e0
LayerCount: 2
Fore
SplineSet
768 -250 m 1,0,1
 236 -250 236 -250 236 200 c 2,2,-1
 236 715 l 1,3,-1
 50 715 l 1,4,-1
 50 795 l 1,5,-1
 236 795 l 1,6,-1
 236 1310 l 2,7,8
 236 1760 236 1760 768 1760 c 1,9,-1
 768 1680 l 1,10,11
 431 1680 431 1680 431 1310 c 2,12,-1
 431 200 l 2,13,14
 431 -170 431 -170 768 -170 c 1,15,-1
 768 -250 l 1,0,1
EndSplineSet
Validated: 1
EndChar

StartChar: bar
Encoding: 124 124 94
Width: 650
GlyphClass: 2
Flags: W
VStem: 250 150<-180 1690>
LayerCount: 2
Fore
SplineSet
250 -180 m 1,0,-1
 250 1690 l 1,1,-1
 400 1690 l 1,2,-1
 400 -180 l 1,3,-1
 250 -180 l 1,0,-1
EndSplineSet
Validated: 1
EndChar

StartChar: braceright
Encoding: 125 125 95
Width: 818
GlyphClass: 2
Flags: W
HStem: -250 80<50 230.797> 715 80<582 768> 1680 80<50 230.797>
VStem: 387 195<-17.5293 715 795 1527.53>
CounterMasks: 1 e0
LayerCount: 2
Fore
SplineSet
50 -250 m 1,0,1
 50 -170 l 1,2,3
 387 -170 387 -170 387 200 c 2,4,-1
 387 1310 l 2,5,6
 387 1680 387 1680 50 1680 c 1,7,-1
 50 1760 l 1,8,9
 582 1760 582 1760 582 1310 c 2,10,-1
 582 795 l 1,11,-1
 768 795 l 1,12,-1
 768 715 l 1,13,-1
 582 715 l 1,14,-1
 582 200 l 2,15,16
 582 -250 582 -250 50 -250 c 1,0,1
EndSplineSet
Validated: 1
EndChar

StartChar: asciitilde
Encoding: 126 126 96
Width: 1183
GlyphClass: 2
Flags: W
HStem: 593 151<694.15 906.769> 756 151<274.621 490.796>
VStem: 150 71<593 682.419> 962 71<817.253 908>
DStem2: 743 764 440 737 0.892036 -0.451965<-335.161 78.448>
LayerCount: 2
Fore
SplineSet
962 908 m 1,0,-1
 1033 908 l 1,1,2
 979 593 979 593 803 593 c 0,3,4
 724 593 724 593 659 626 c 2,5,-1
 440 737 l 2,6,7
 401 756 401 756 362 756 c 0,8,9
 263 756 263 756 221 593 c 1,10,-1
 150 593 l 1,11,12
 204 907 204 907 392 907 c 0,13,14
 460 907 460 907 518 878 c 2,15,-1
 743 764 l 2,16,17
 784 744 784 744 822 744 c 0,18,19
 920 744 920 744 962 908 c 1,0,-1
EndSplineSet
Validated: 1
EndChar

StartChar: exclamdown
Encoding: 161 161 98
Width: 692
GlyphClass: 2
Flags: W
HStem: 856 264<255.191 436.809>
VStem: 216 260<-390.293 86.3125 895.707 1080.29>
LayerCount: 2
Fore
SplineSet
346 -430 m 128,-1,1
 292 -430 292 -430 254 -391.5 c 128,-1,2
 216 -353 216 -353 216 -298 c 0,3,4
 216 -282 216 -282 218 -265 c 2,5,-1
 339 757 l 1,6,-1
 353 757 l 1,7,-1
 474 -265 l 2,8,9
 476 -282 476 -282 476 -298 c 0,10,11
 476 -353 476 -353 438 -391.5 c 128,-1,0
 400 -430 400 -430 346 -430 c 128,-1,1
346 1120 m 128,-1,13
 400 1120 400 1120 438 1081.5 c 128,-1,14
 476 1043 476 1043 476 988 c 128,-1,15
 476 933 476 933 438 894.5 c 128,-1,16
 400 856 400 856 346 856 c 128,-1,17
 292 856 292 856 254 894.5 c 128,-1,18
 216 933 216 933 216 988 c 128,-1,19
 216 1043 216 1043 254 1081.5 c 128,-1,12
 292 1120 292 1120 346 1120 c 128,-1,13
EndSplineSet
Validated: 1
EndChar

StartChar: cent
Encoding: 162 162 99
Width: 1185
GlyphClass: 2
Flags: W
HStem: -20 80<507.723 587 657 843.281> 1051 69<496.156 587 657 787.377>
VStem: 100 200<309.084 791.911> 587 70<-100 -20 70 1047 1120 1200>
LayerCount: 2
Fore
SplineSet
657 -100 m 1,0,-1
 587 -100 l 1,1,-1
 587 -18 l 1,2,3
 368 -1 368 -1 230 164 c 0,4,5
 100 320 100 320 100 550 c 0,6,7
 100 778 100 778 230 936 c 0,8,9
 367 1101 367 1101 587 1118 c 1,10,-1
 587 1200 l 1,11,-1
 657 1200 l 1,12,-1
 657 1120 l 1,13,14
 902 1113 902 1113 1053 926 c 1,15,-1
 899 773 l 1,16,-1
 892 779 l 1,17,18
 902 811 902 811 902 846 c 0,19,20
 902 893 902 893 881 928 c 0,21,22
 812 1044 812 1044 657 1051 c 1,23,-1
 657 61 l 1,24,25
 669 60 669 60 682 60 c 0,26,27
 898 60 898 60 1077 224 c 1,28,-1
 1085 218 l 1,29,30
 926 -12 926 -12 657 -20 c 1,31,-1
 657 -100 l 1,0,-1
587 70 m 1,32,-1
 587 1047 l 1,33,34
 455 1028 455 1028 381 906 c 0,35,36
 300 773 300 773 300 550 c 0,37,38
 300 316 300 316 386 202 c 0,39,40
 464 98 464 98 587 70 c 1,32,-1
EndSplineSet
Validated: 1
EndChar

StartChar: sterling
Encoding: 163 163 100
Width: 1263
GlyphClass: 2
Flags: W
HStem: 0 80<100 200 400 1090.04> 685 80<400 872> 1461 69<595.542 888.455>
VStem: 200 200<80 685 765 1200.23> 1153 10<207.183 220>
LayerCount: 2
Fore
SplineSet
100 0 m 1,0,-1
 100 80 l 1,1,-1
 200 80 l 1,2,-1
 200 960 l 2,3,4
 200 1188 200 1188 330 1346 c 0,5,6
 483 1530 483 1530 738 1530 c 0,7,8
 996 1530 996 1530 1153 1336 c 1,9,-1
 999 1183 l 1,10,-1
 992 1189 l 1,11,12
 1002 1221 1002 1221 1002 1256 c 0,13,14
 1002 1303 1002 1303 981 1338 c 0,15,16
 908 1461 908 1461 738 1461 c 0,17,18
 578 1461 578 1461 488 1329 c 0,19,20
 400 1202 400 1202 400 960 c 2,21,-1
 400 765 l 1,22,-1
 872 765 l 1,23,-1
 872 685 l 1,24,-1
 400 685 l 1,25,-1
 400 80 l 1,26,-1
 973 80 l 2,27,28
 1106 80 1106 80 1153 220 c 1,29,-1
 1163 220 l 1,30,-1
 1163 0 l 1,31,-1
 100 0 l 1,0,-1
EndSplineSet
Validated: 1
EndChar

StartChar: currency
Encoding: 164 164 101
Width: 1594
GlyphClass: 2
Flags: W
HStem: 191 69<663.034 950.984> 1262 69<662.9 951.341>
VStem: 269 200<518.584 1002> 1145 200<519.187 1001.83>
DStem2: 314 1351 200 1237 0.703189 -0.711003<0.890707 206.138 1319.84 1535.86> 200 259 313 146 0.703189 0.711003<0 226.956 1340.7 1534.97>
LayerCount: 2
Fore
SplineSet
807 260 m 128,-1,1
 978 260 978 260 1064 405 c 0,2,3
 1145 541 1145 541 1145 761 c 128,-1,4
 1145 981 1145 981 1064 1117 c 0,5,6
 978 1262 978 1262 807 1262 c 128,-1,7
 636 1262 636 1262 550 1117 c 0,8,9
 469 981 469 981 469 761 c 128,-1,10
 469 541 469 541 550 405 c 0,11,0
 636 260 636 260 807 260 c 128,-1,1
807 1331 m 0,12,13
 1010 1331 1010 1331 1147 1216 c 1,14,-1
 1280 1351 l 1,15,-1
 1394 1237 l 1,16,-1
 1253 1094 l 1,17,18
 1345 952 1345 952 1345 761 c 0,19,20
 1345 559 1345 559 1243 412 c 1,21,-1
 1394 259 l 1,22,-1
 1281 146 l 1,23,-1
 1134 295 l 1,24,25
 1001 191 1001 191 807 191 c 0,26,27
 605 191 605 191 469 304 c 1,28,-1
 313 146 l 1,29,-1
 200 259 l 1,30,-1
 363 424 l 1,31,32
 269 567 269 567 269 761 c 0,33,34
 269 944 269 944 353 1082 c 1,35,-1
 200 1237 l 1,36,-1
 314 1351 l 1,37,-1
 456 1207 l 1,38,39
 596 1331 596 1331 807 1331 c 0,12,13
EndSplineSet
Validated: 1
EndChar

StartChar: yen
Encoding: 165 165 102
Width: 1477
GlyphClass: 2
Flags: W
HStem: 0 21G<660 860> 288 80<384 660 860 1135> 448 80<384 647 860 1135> 1500 10<5 17.5654 938 945.1>
VStem: 660 200<0 288 368 448> 1167 210<1000.02 1363.36>
DStem2: 339 1510 193 1361 0.474697 -0.880149<0 1010.51>
LayerCount: 2
Fore
SplineSet
938 1510 m 1,0,1
 1377 1510 1377 1510 1377 1200 c 0,2,3
 1377 879 1377 879 927 576 c 1,4,-1
 921 584 l 1,5,6
 1167 872 1167 872 1167 1200 c 0,7,8
 1167 1415 1167 1415 938 1500 c 1,9,-1
 938 1510 l 1,0,1
660 0 m 1,10,-1
 660 288 l 1,11,-1
 384 288 l 1,12,-1
 384 368 l 1,13,-1
 660 368 l 1,14,-1
 660 448 l 1,15,-1
 384 448 l 1,16,-1
 384 528 l 1,17,-1
 647 528 l 1,18,-1
 193 1361 l 2,19,20
 141 1457 141 1457 5 1500 c 1,21,-1
 5 1510 l 1,22,-1
 339 1510 l 1,23,-1
 860 544 l 1,24,-1
 860 528 l 1,25,-1
 1135 528 l 1,26,-1
 1135 448 l 1,27,-1
 860 448 l 1,28,-1
 860 368 l 1,29,-1
 1135 368 l 1,30,-1
 1135 288 l 1,31,-1
 860 288 l 1,32,-1
 860 0 l 1,33,-1
 660 0 l 1,10,-1
EndSplineSet
Validated: 1
EndChar

StartChar: brokenbar
Encoding: 166 166 103
Width: 650
GlyphClass: 2
Flags: W
VStem: 250 150<-180 647 862 1690>
LayerCount: 2
Fore
SplineSet
250 -180 m 1,0,-1
 250 647 l 1,1,-1
 400 647 l 1,2,-1
 400 -180 l 1,3,-1
 250 -180 l 1,0,-1
250 1690 m 1,4,-1
 400 1690 l 1,5,-1
 400 862 l 1,6,-1
 250 862 l 1,7,-1
 250 1690 l 1,4,-1
EndSplineSet
Validated: 1
EndChar

StartChar: section
Encoding: 167 167 104
Width: 1104
GlyphClass: 2
Flags: W
HStem: -20 69<442.605 633.205> 1461 69<470.795 661.395>
VStem: 150 166<653.464 902.276> 288 138<1231.65 1416.45> 678 138<93.5488 278.351> 788 166<607.724 856.536>
DStem2: 445 585 359 430 0.893545 -0.448973<-144.797 360.778> 542 1182 470 1021 0.893545 -0.448973<-140.847 359.077>
LayerCount: 2
Fore
SplineSet
528 -20 m 0,0,1
 409 -20 409 -20 340 46 c 0,2,3
 300 84 300 84 278 136 c 1,4,-1
 406 262 l 1,5,-1
 413 256 l 1,6,7
 403 224 403 224 403 189 c 0,8,9
 403 142 403 142 424 107 c 0,10,11
 459 49 459 49 533 49 c 0,12,13
 597 49 597 49 635 83 c 0,14,15
 678 121 678 121 678 183 c 0,16,17
 678 270 678 270 562 328 c 2,18,-1
 359 430 l 2,19,20
 150 535 150 535 150 730 c 0,21,22
 150 900 150 900 295 1021 c 1,23,-1
 374 952 l 1,24,25
 316 877 316 877 316 783 c 0,26,27
 316 651 316 651 445 585 c 2,28,-1
 634 489 l 2,29,30
 816 397 816 397 816 234 c 0,31,32
 816 121 816 121 723 41 c 0,33,34
 652 -20 652 -20 528 -20 c 0,0,1
576 1530 m 0,35,36
 695 1530 695 1530 764 1464 c 0,37,38
 804 1426 804 1426 826 1374 c 1,39,-1
 698 1248 l 1,40,-1
 691 1254 l 1,41,42
 701 1286 701 1286 701 1321 c 0,43,44
 701 1368 701 1368 680 1403 c 0,45,46
 645 1461 645 1461 571 1461 c 0,47,48
 507 1461 507 1461 469 1427 c 0,49,50
 426 1389 426 1389 426 1327 c 0,51,52
 426 1240 426 1240 542 1182 c 2,53,-1
 745 1080 l 2,54,55
 954 975 954 975 954 780 c 0,56,57
 954 610 954 610 809 489 c 1,58,-1
 730 558 l 1,59,60
 788 633 788 633 788 727 c 0,61,62
 788 859 788 859 659 925 c 2,63,-1
 470 1021 l 2,64,65
 288 1113 288 1113 288 1276 c 0,66,67
 288 1389 288 1389 381 1469 c 0,68,69
 452 1530 452 1530 576 1530 c 0,35,36
EndSplineSet
Validated: 1
EndChar

StartChar: dieresis
Encoding: 168 168 105
Width: 572
GlyphClass: 2
Flags: W
HStem: 1225 212<81.4562 226.544 345.456 490.544>
VStem: 50 208<1256.97 1405.03> 314 208<1256.97 1405.03>
LayerCount: 2
Fore
SplineSet
418 1437 m 128,-1,1
 461 1437 461 1437 491.5 1406 c 128,-1,2
 522 1375 522 1375 522 1331 c 128,-1,3
 522 1287 522 1287 491.5 1256 c 128,-1,4
 461 1225 461 1225 418 1225 c 128,-1,5
 375 1225 375 1225 344.5 1256 c 128,-1,6
 314 1287 314 1287 314 1331 c 128,-1,7
 314 1375 314 1375 344.5 1406 c 128,-1,0
 375 1437 375 1437 418 1437 c 128,-1,1
154 1437 m 128,-1,9
 197 1437 197 1437 227.5 1406 c 128,-1,10
 258 1375 258 1375 258 1331 c 128,-1,11
 258 1287 258 1287 227.5 1256 c 128,-1,12
 197 1225 197 1225 154 1225 c 128,-1,13
 111 1225 111 1225 80.5 1256 c 128,-1,14
 50 1287 50 1287 50 1331 c 128,-1,15
 50 1375 50 1375 80.5 1406 c 128,-1,8
 111 1437 111 1437 154 1437 c 128,-1,9
EndSplineSet
Validated: 1
EndChar

StartChar: copyright
Encoding: 169 169 106
Width: 1401
GlyphClass: 2
Flags: W
HStem: 386 55<534.73 857.893> 564 56<613.772 858.141> 1103 21G<882 911.702> 1297 50<602.426 800.797> 1475 55<542.972 858.032>
VStem: 150 60<779.952 1138.53> 304 151<771.269 1156.14> 1190 61<771.255 1146.12>
LayerCount: 2
Fore
SplineSet
708 1347 m 0,0,1
 899 1347 899 1347 1009 1217 c 1,2,-1
 891 1103 l 1,3,-1
 882 1109 l 1,4,5
 885 1122 885 1122 885 1136 c 0,6,7
 885 1183 885 1183 850 1230 c 0,8,9
 800 1297 800 1297 699 1297 c 0,10,11
 592 1297 592 1297 524 1198 c 24,12,13
 455 1098 455 1098 455 960 c 0,14,15
 455 824 455 824 529 722 c 128,-1,16
 603 620 603 620 734 620 c 0,17,18
 908 620 908 620 1033 745 c 1,19,-1
 1041 739 l 1,20,21
 924 564 924 564 700 564 c 0,22,23
 505 564 505 564 399 686 c 0,24,25
 304 794 304 794 304 958 c 0,26,27
 304 1124 304 1124 399 1227 c 0,28,29
 509 1347 509 1347 708 1347 c 0,0,1
701 1530 m 0,30,31
 943 1530 943 1530 1099 1357 c 0,32,33
 1251 1188 1251 1188 1251 953 c 0,34,35
 1251 701 1251 701 1090 549 c 0,36,37
 919 386 919 386 699 386 c 0,38,39
 476 386 476 386 311 549 c 0,40,41
 150 708 150 708 150 953 c 0,42,43
 150 1197 150 1197 308 1362 c 0,44,45
 469 1530 469 1530 701 1530 c 0,30,31
699 1475 m 0,46,47
 503 1475 503 1475 357 1330 c 0,48,49
 210 1184 210 1184 210 953 c 0,50,51
 210 751 210 751 354 591 c 0,52,53
 489 441 489 441 701 441 c 0,54,55
 898 441 898 441 1047 591 c 0,56,57
 1190 736 1190 736 1190 953 c 0,58,59
 1190 1188 1190 1188 1049 1327 c 0,60,61
 899 1475 899 1475 699 1475 c 0,46,47
EndSplineSet
Validated: 1
EndChar

StartChar: ordfeminine
Encoding: 170 170 107
Width: 692
GlyphClass: 2
Flags: W
HStem: 833 100<50 642> 988 10<396.84 408 629.49 642> 1503 46<294.463 442>
VStem: 50 139<1117.55 1421.19> 442 130<1008.84 1503>
LayerCount: 2
Fore
SplineSet
50 933 m 1,0,-1
 642 933 l 1,1,-1
 642 833 l 1,2,-1
 50 833 l 1,3,-1
 50 933 l 1,0,-1
572 1549 m 1,4,-1
 572 1088 l 2,5,6
 572 1020 572 1020 642 998 c 1,7,-1
 642 988 l 1,8,-1
 442 988 l 1,9,-1
 442 1503 l 1,10,-1
 382 1503 l 2,11,12
 299 1503 299 1503 246 1443 c 24,13,14
 189 1377 189 1377 189 1275 c 0,15,16
 189 1072 189 1072 408 998 c 1,17,-1
 408 988 l 1,18,19
 228 988 228 988 140 1062 c 0,20,21
 50 1138 50 1138 50 1267 c 0,22,23
 50 1394 50 1394 138 1471 c 0,24,25
 226 1549 226 1549 372 1549 c 2,26,-1
 572 1549 l 1,4,-1
EndSplineSet
Validated: 1
EndChar

StartChar: guillemotleft
Encoding: 171 171 108
Width: 1248
GlyphClass: 2
Flags: W
DStem2: 311 797 150 755 0.664677 -0.747131<0 512.724> 150 755 311 797 0.664677 0.747131<138.393 591.073> 706 797 545 755 0.664677 -0.747131<0 512.724> 545 755 706 797 0.664677 0.747131<138.393 591.073>
LayerCount: 2
Fore
SplineSet
940 1199 m 1,0,-1
 1006 1136 l 1,1,-1
 706 797 l 1,2,-1
 1048 415 l 1,3,-1
 940 311 l 1,4,-1
 545 755 l 1,5,-1
 940 1199 l 1,0,-1
545 1199 m 1,6,-1
 611 1136 l 1,7,-1
 311 797 l 1,8,-1
 653 415 l 1,9,-1
 545 311 l 1,10,-1
 150 755 l 1,11,-1
 545 1199 l 1,6,-1
EndSplineSet
Validated: 1
EndChar

StartChar: logicalnot
Encoding: 172 172 109
Width: 1133
GlyphClass: 2
Flags: W
HStem: 680 150<150 903>
VStem: 903 80<441 680>
LayerCount: 2
Fore
SplineSet
150 830 m 1,0,-1
 983 830 l 1,1,-1
 983 441 l 1,2,-1
 903 441 l 1,3,-1
 903 680 l 1,4,-1
 150 680 l 1,5,-1
 150 830 l 1,0,-1
EndSplineSet
Validated: 1
EndChar

StartChar: uni00AD
Encoding: 173 173 110
Width: 1133
GlyphClass: 2
Flags: W
HStem: 680 150<150 983>
LayerCount: 2
Fore
SplineSet
150 830 m 1,0,-1
 983 830 l 1,1,-1
 983 680 l 1,2,-1
 150 680 l 1,3,-1
 150 830 l 1,0,-1
EndSplineSet
Validated: 1
EndChar

StartChar: registered
Encoding: 174 174 111
Width: 1401
GlyphClass: 2
Flags: W
HStem: 386 55<534.73 858.819> 756 10<632 652.648> 1288 51<585 742.104> 1475 55<542.972 858.032>
VStem: 150 60<779.952 1138.53> 445 140<574 1287.55> 847 149<889.755 1209.15> 1190 61<771.584 1146.12>
DStem2: 869 807 734 761 0.677833 -0.735216<0 189.607>
LayerCount: 2
Fore
SplineSet
699 1475 m 0,0,1
 503 1475 503 1475 357 1330 c 0,2,3
 210 1184 210 1184 210 953 c 0,4,5
 210 751 210 751 354 591 c 0,6,7
 489 441 489 441 701 441 c 0,8,9
 887 441 887 441 1029 574 c 1,10,-1
 896 574 l 1,11,-1
 734 761 l 1,12,13
 688 756 688 756 632 756 c 1,14,-1
 632 766 l 1,15,16
 729 785 729 785 788 863 c 0,17,18
 847 940 847 940 847 1048 c 0,19,20
 847 1153 847 1153 801 1212 c 0,21,22
 740 1288 740 1288 642 1288 c 2,23,-1
 585 1288 l 1,24,-1
 585 574 l 1,25,-1
 445 574 l 1,26,-1
 445 1240 l 2,27,28
 445 1305 445 1305 375 1329 c 1,29,-1
 375 1339 l 1,30,-1
 683 1339 l 2,31,32
 824 1338 824 1338 911 1258 c 0,33,34
 996 1180 996 1180 996 1062 c 0,35,36
 996 890 996 890 869 807 c 1,37,-1
 1058 602 l 1,38,39
 1190 744 1190 744 1190 953 c 0,40,41
 1190 1188 1190 1188 1049 1327 c 0,42,43
 899 1475 899 1475 699 1475 c 0,0,1
701 1530 m 0,44,45
 943 1530 943 1530 1099 1357 c 0,46,47
 1251 1188 1251 1188 1251 953 c 0,48,49
 1251 701 1251 701 1090 549 c 0,50,51
 919 386 919 386 699 386 c 0,52,53
 476 386 476 386 311 549 c 0,54,55
 150 708 150 708 150 953 c 0,56,57
 150 1197 150 1197 308 1362 c 0,58,59
 469 1530 469 1530 701 1530 c 0,44,45
EndSplineSet
Validated: 1
EndChar

StartChar: macron
Encoding: 175 175 112
Width: 598
GlyphClass: 2
Flags: W
HStem: 1280 100<50 548>
VStem: 50 498<1280 1380>
LayerCount: 2
Fore
SplineSet
50 1380 m 1,0,-1
 548 1380 l 1,1,-1
 548 1280 l 1,2,-1
 50 1280 l 1,3,-1
 50 1380 l 1,0,-1
EndSplineSet
Validated: 1
EndChar

StartChar: degree
Encoding: 176 176 113
Width: 620
GlyphClass: 2
Flags: W
HStem: 1022 50<239.727 380.273> 1500 50<239.727 380.273>
VStem: 50 112<1137.4 1434.6> 458 112<1137.4 1434.6>
LayerCount: 2
Fore
SplineSet
310 1500 m 128,-1,1
 248 1500 248 1500 205 1438 c 128,-1,2
 162 1376 162 1376 162 1286 c 128,-1,3
 162 1196 162 1196 205 1134 c 128,-1,4
 248 1072 248 1072 310 1072 c 128,-1,5
 372 1072 372 1072 415 1134 c 128,-1,6
 458 1196 458 1196 458 1286 c 128,-1,7
 458 1376 458 1376 415 1438 c 128,-1,0
 372 1500 372 1500 310 1500 c 128,-1,1
310 1550 m 128,-1,9
 418 1550 418 1550 494 1473 c 128,-1,10
 570 1396 570 1396 570 1286 c 128,-1,11
 570 1176 570 1176 494 1099 c 128,-1,12
 418 1022 418 1022 310 1022 c 128,-1,13
 202 1022 202 1022 126 1099 c 128,-1,14
 50 1176 50 1176 50 1286 c 128,-1,15
 50 1396 50 1396 126 1473 c 128,-1,8
 202 1550 202 1550 310 1550 c 128,-1,9
EndSplineSet
Validated: 1
EndChar

StartChar: plusminus
Encoding: 177 177 114
Width: 1139
GlyphClass: 2
Flags: W
HStem: 240 150<156 989> 806 150<150 492 642 983>
VStem: 492 150<464 806 956 1298>
LayerCount: 2
Fore
SplineSet
156 390 m 1,0,-1
 989 390 l 1,1,-1
 989 240 l 1,2,-1
 156 240 l 1,3,-1
 156 390 l 1,0,-1
492 1298 m 1,4,-1
 642 1298 l 1,5,-1
 642 956 l 1,6,-1
 983 956 l 1,7,-1
 983 806 l 1,8,-1
 642 806 l 1,9,-1
 642 464 l 1,10,-1
 492 464 l 1,11,-1
 492 806 l 1,12,-1
 150 806 l 1,13,-1
 150 956 l 1,14,-1
 492 956 l 1,15,-1
 492 1298 l 1,4,-1
EndSplineSet
Validated: 19457
EndChar

StartChar: acute
Encoding: 180 180 115
Width: 427
GlyphClass: 2
Flags: W
HStem: 1150 374
VStem: 50 327
LayerCount: 2
Fore
SplineSet
249 1524 m 1,0,1
 377 1397 l 1,2,3
 193 1327 193 1327 60 1150 c 1,4,-1
 50 1150 l 1,5,6
 69 1397 69 1397 249 1524 c 1,0,1
EndSplineSet
Validated: 1
EndChar

StartChar: uni00B5
Encoding: 181 181 116
Width: 1318
GlyphClass: 2
Flags: W
HStem: -410 10<498.926 510> 0 70<600.75 938> 0 10<1245.18 1258> 1100 0G<514.5 610 938 1118>
VStem: 150 200<313.672 772.734> 150 180<-265.728 141> 938 180<70.2515 1100>
LayerCount: 2
Fore
SplineSet
1258 0 m 1,0,-1
 758 0 l 2,1,2
 486 0 486 0 330 141 c 1,3,-1
 330 -75 l 2,4,5
 330 -341 330 -341 510 -400 c 1,6,-1
 510 -410 l 1,7,8
 150 -410 150 -410 150 -75 c 2,9,-1
 150 550 l 2,10,11
 150 783 150 783 316 950 c 0,12,13
 429 1064 429 1064 600 1120 c 1,14,-1
 610 1120 l 1,15,16
 466 982 466 982 403 827 c 0,17,18
 350 698 350 698 350 550 c 0,19,20
 350 335 350 335 465 203 c 0,21,22
 580 70 580 70 778 70 c 2,23,-1
 938 70 l 1,24,-1
 938 1100 l 1,25,-1
 1118 1100 l 1,26,-1
 1118 190 l 2,27,28
 1118 57 1118 57 1258 10 c 1,29,-1
 1258 0 l 1,0,-1
EndSplineSet
Validated: 1
EndChar

StartChar: paragraph
Encoding: 182 182 117
Width: 1113
GlyphClass: 2
Flags: W
HStem: 0 21G<713 781 847 913> 705 815<367.372 710.652> 1456 54<781 847>
VStem: 150 631<925.998 1299.37> 713 68<0 740> 847 66<0 1456>
LayerCount: 2
Fore
SplineSet
713 0 m 1,0,-1
 713 740 l 1,1,2
 638 705 638 705 547 705 c 0,3,4
 382 705 382 705 266 825 c 128,-1,5
 150 945 150 945 150 1112.5 c 128,-1,6
 150 1280 150 1280 266 1401 c 0,7,8
 380 1520 380 1520 547 1520 c 0,9,10
 638 1520 638 1520 713 1485 c 1,11,-1
 713 1510 l 1,12,-1
 913 1510 l 1,13,-1
 913 0 l 1,14,-1
 847 0 l 1,15,-1
 847 1456 l 1,16,-1
 781 1456 l 1,17,-1
 781 0 l 1,18,-1
 713 0 l 1,0,-1
EndSplineSet
Validated: 1
EndChar

StartChar: periodcentered
Encoding: 183 183 118
Width: 360
GlyphClass: 2
Flags: W
HStem: 623 264<89.1914 270.809>
VStem: 50 260<662.707 847.293>
LayerCount: 2
Fore
SplineSet
180 887 m 128,-1,1
 234 887 234 887 272 848.5 c 128,-1,2
 310 810 310 810 310 755 c 128,-1,3
 310 700 310 700 272 661.5 c 128,-1,4
 234 623 234 623 180 623 c 128,-1,5
 126 623 126 623 88 661.5 c 128,-1,6
 50 700 50 700 50 755 c 128,-1,7
 50 810 50 810 88 848.5 c 128,-1,0
 126 887 126 887 180 887 c 128,-1,1
EndSplineSet
Validated: 1
EndChar

StartChar: cedilla
Encoding: 184 184 119
Width: 364
GlyphClass: 2
Flags: W
HStem: -430 138<50 158.927> -107 107<58 138>
VStem: 58 80<-49.158 0> 191 123<-268.383 -128.728>
LayerCount: 2
Fore
SplineSet
58 0 m 1,0,-1
 138 0 l 1,1,-1
 138 -39 l 1,2,3
 195 -49 195 -49 240 -82 c 0,4,5
 314 -136 314 -136 314 -219 c 0,6,7
 314 -307 314 -307 263 -356 c 0,8,9
 186 -430 186 -430 50 -430 c 1,10,-1
 50 -292 l 1,11,12
 126 -292 126 -292 160 -265 c 0,13,14
 191 -240 191 -240 191 -198 c 0,15,16
 191 -158 191 -158 153 -130 c 0,17,18
 121 -107 121 -107 58 -107 c 1,19,-1
 58 0 l 1,0,-1
EndSplineSet
Validated: 1
EndChar

StartChar: ordmasculine
Encoding: 186 186 120
Width: 678
GlyphClass: 2
Flags: W
HStem: 833 100<50 628> 977 46<270.168 409.677> 1509 46<268.532 407.055>
VStem: 50 140<1103.84 1428.14> 486 142<1100.73 1428.49>
LayerCount: 2
Fore
SplineSet
50 933 m 1,0,-1
 628 933 l 1,1,-1
 628 833 l 1,2,-1
 50 833 l 1,3,-1
 50 933 l 1,0,-1
337 1509 m 0,4,5
 270 1509 270 1509 230 1443 c 0,6,7
 190 1375 190 1375 190 1266 c 128,-1,8
 190 1157 190 1157 231 1090 c 128,-1,9
 272 1023 272 1023 340 1023 c 0,10,11
 410 1023 410 1023 447 1089 c 0,12,13
 486 1157 486 1157 486 1267 c 0,14,15
 486 1379 486 1379 447 1443 c 0,16,17
 406 1509 406 1509 337 1509 c 0,4,5
340 1555 m 0,18,19
 482 1555 482 1555 555 1468 c 128,-1,20
 628 1381 628 1381 628 1265 c 128,-1,21
 628 1149 628 1149 562 1071 c 0,22,23
 482 977 482 977 337 977 c 0,24,25
 194 977 194 977 122 1065 c 128,-1,26
 50 1153 50 1153 50 1267 c 128,-1,27
 50 1381 50 1381 123 1468 c 128,-1,28
 196 1555 196 1555 340 1555 c 0,18,19
EndSplineSet
Validated: 1
EndChar

StartChar: guillemotright
Encoding: 187 187 121
Width: 1248
GlyphClass: 2
Flags: W
DStem2: 308 1199 200 1095 0.664677 -0.747131<5.91647 518.64> 242 374 308 311 0.664677 0.747131<0 452.68> 703 1199 595 1095 0.664677 -0.747131<5.91647 518.64> 637 374 703 311 0.664677 0.747131<0 452.68>
LayerCount: 2
Fore
SplineSet
308 1199 m 1,0,-1
 703 755 l 1,1,-1
 308 311 l 1,2,-1
 242 374 l 1,3,-1
 542 713 l 1,4,-1
 200 1095 l 1,5,-1
 308 1199 l 1,0,-1
703 1199 m 1,6,-1
 1098 755 l 1,7,-1
 703 311 l 1,8,-1
 637 374 l 1,9,-1
 937 713 l 1,10,-1
 595 1095 l 1,11,-1
 703 1199 l 1,6,-1
EndSplineSet
Validated: 1
EndChar

StartChar: questiondown
Encoding: 191 191 122
Width: 1321
GlyphClass: 2
Flags: W
HStem: -430 80<527.622 828.028> 856 264<602.191 783.809>
VStem: 150 220<-180.914 206.403> 563 260<895.707 1080.29> 688 36<691.379 759.417>
LayerCount: 2
Fore
SplineSet
657 -430 m 0,0,1
 436 -430 436 -430 308 -322 c 0,2,3
 150 -189 150 -189 150 16 c 0,4,5
 150 255 150 255 393 429 c 2,6,-1
 517 518 l 2,7,8
 688 641 688 641 688 773 c 1,9,-1
 698 773 l 1,10,11
 724 734 724 734 724 689 c 0,12,13
 724 584 724 584 588 431 c 2,14,-1
 477 306 l 2,15,16
 370 186 370 186 370 0 c 0,17,18
 370 -136 370 -136 444 -236 c 0,19,20
 529 -350 529 -350 679 -350 c 0,21,22
 823 -350 823 -350 921 -231 c 0,23,24
 977 -163 977 -163 977 -69 c 0,25,26
 977 12 977 12 950 91 c 1,27,-1
 956 99 l 1,28,-1
 1171 -112 l 1,29,30
 1105 -215 1105 -215 997 -308 c 0,31,32
 857 -430 857 -430 657 -430 c 0,0,1
693 1120 m 128,-1,34
 747 1120 747 1120 785 1081.5 c 128,-1,35
 823 1043 823 1043 823 988 c 128,-1,36
 823 933 823 933 785 894.5 c 128,-1,37
 747 856 747 856 693 856 c 128,-1,38
 639 856 639 856 601 894.5 c 128,-1,39
 563 933 563 933 563 988 c 128,-1,40
 563 1043 563 1043 601 1081.5 c 128,-1,33
 639 1120 639 1120 693 1120 c 128,-1,34
EndSplineSet
Validated: 1
EndChar

StartChar: AE
Encoding: 198 198 123
Width: 2493
GlyphClass: 2
Flags: W
HStem: -20 90<1584.98 2028.22> 0 10<941 951.015> 715 80<548 1073 1423 1994> 1450 80<1559.93 1959.04> 1500 10<466 477.169>
VStem: 1264 220<227.232 669.485>
DStem2: 5 0 205 0 0.395387 0.918515<79.0774 857.199 944.914 1497.34>
LayerCount: 2
Fore
SplineSet
5 0 m 5,0,-1
 574 1322 l 2,1,2
 588 1355 588 1355 588 1380 c 0,3,4
 588 1458 588 1458 466 1500 c 1,5,-1
 466 1510 l 1,6,-1
 855 1510 l 1,7,-1
 548 795 l 1,8,-1
 1073 795 l 1,9,-1
 1073 715 l 1,10,-1
 512 715 l 1,11,-1
 205 0 l 1,12,-1
 5 0 l 5,0,-1
862 1386 m 1,13,-1
 868 1394 l 1,14,15
 999 1280 999 1280 1103 1172 c 1,16,17
 1140 1236 1140 1236 1190 1292 c 0,18,19
 1405 1530 1405 1530 1754 1530 c 0,20,21
 2119 1530 2119 1530 2329 1278 c 1,22,-1
 2127 1080 l 1,23,-1
 2121 1086 l 1,24,25
 2130 1132 2130 1132 2130 1182 c 0,26,27
 2130 1247 2130 1247 2091 1304 c 0,28,29
 1990 1450 1990 1450 1752 1450 c 0,30,31
 1504 1450 1504 1450 1360 1240 c 0,32,33
 1286 1132 1286 1132 1251 999 c 1,34,35
 1332 894 1332 894 1385 795 c 1,36,-1
 1994 795 l 1,37,-1
 1994 715 l 1,38,-1
 1423 715 l 1,39,40
 1484 572 1484 572 1484 440 c 0,41,42
 1484 305 1484 305 1433 212 c 1,43,44
 1585 70 1585 70 1831 70 c 0,45,46
 2119 70 2119 70 2386 325 c 1,47,-1
 2393 319 l 1,48,49
 2174 -20 2174 -20 1754 -20 c 0,50,51
 1508 -20 1508 -20 1330 96 c 1,52,53
 1195 0 1195 0 941 0 c 1,54,-1
 941 10 l 1,55,56
 1264 106 1264 106 1264 440 c 0,57,58
 1264 843 1264 843 862 1386 c 1,13,-1
EndSplineSet
Validated: 1
EndChar

StartChar: Eth
Encoding: 208 208 124
Width: 1586
GlyphClass: 2
Flags: W
HStem: 0 10<580 594.845> 715 80<60 200 400 812> 1430 80<400 894.41> 1500 10<60 72.8174>
VStem: 200 200<0 715 795 1428.67> 1266 220<501.01 1039.83>
LayerCount: 2
Fore
SplineSet
200 0 m 1,0,-1
 200 715 l 1,1,-1
 60 715 l 1,2,-1
 60 795 l 1,3,-1
 200 795 l 1,4,-1
 200 1320 l 2,5,6
 200 1453 200 1453 60 1500 c 1,7,-1
 60 1510 l 1,8,-1
 716 1510 l 2,9,10
 1103 1510 1103 1510 1308 1273 c 0,11,12
 1486 1066 1486 1066 1486 755 c 0,13,14
 1486 467 1486 467 1284 248 c 0,15,16
 1057 0 1057 0 580 0 c 1,17,-1
 580 10 l 1,18,19
 970 86 970 86 1122 301 c 0,20,21
 1266 504 1266 504 1266 755 c 0,22,23
 1266 1063 1266 1063 1105 1247 c 0,24,25
 945 1430 945 1430 666 1430 c 2,26,-1
 400 1430 l 1,27,-1
 400 795 l 1,28,-1
 812 795 l 1,29,-1
 812 715 l 1,30,-1
 400 715 l 1,31,-1
 400 0 l 1,32,-1
 200 0 l 1,0,-1
EndSplineSet
Validated: 1
EndChar

StartChar: multiply
Encoding: 215 215 125
Width: 1096
GlyphClass: 2
Flags: W
HStem: 1083 20G<286 326 769.083 808.813>
DStem2: 306 1103 200 997 0.707107 -0.707107<0 342.24 492.146 833.679> 200 514 306 407 0.707107 0.707107<0 341.533 491.439 832.265>
LayerCount: 2
Fore
SplineSet
306 1103 m 1,0,-1
 548 861 l 1,1,-1
 789 1103 l 1,2,-1
 895 996 l 1,3,-1
 654 755 l 1,4,-1
 896 514 l 1,5,-1
 790 407 l 1,6,-1
 548 649 l 1,7,-1
 306 407 l 1,8,-1
 200 514 l 1,9,-1
 442 755 l 1,10,-1
 200 997 l 1,11,-1
 306 1103 l 1,0,-1
EndSplineSet
Validated: 1
EndChar

StartChar: Oslash
Encoding: 216 216 126
Width: 1706
GlyphClass: 2
Flags: W
HStem: -20 80<656.881 1047.16> -5 21G<425.5 471.746> 1450 80<658.842 1048.89> 1495 20G<1234.25 1280.5>
VStem: 100 220<468.429 1041.57> 1386 220<468.429 1041.57>
DStem2: 391 35 460 -5 0.500229 0.865893<0 76.2031 213.715 1495.38 1632.89 1709.1>
LayerCount: 2
Fore
SplineSet
853 -20 m 0,0,1
 652 -20 652 -20 497 58 c 1,2,-1
 460 -5 l 1,3,-1
 391 35 l 1,4,-1
 427 98 l 1,5,6
 352 148 352 148 289 218 c 0,7,8
 100 430 100 430 100 755 c 128,-1,9
 100 1080 100 1080 289 1292 c 0,10,11
 502 1530 502 1530 853 1530 c 0,12,13
 1054 1530 1054 1530 1209 1452 c 1,14,-1
 1246 1515 l 1,15,-1
 1315 1475 l 1,16,-1
 1279 1412 l 1,17,18
 1354 1362 1354 1362 1417 1292 c 0,19,20
 1606 1080 1606 1080 1606 755 c 128,-1,21
 1606 430 1606 430 1417 218 c 0,22,23
 1204 -20 1204 -20 853 -20 c 0,0,1
853 60 m 0,24,25
 1103 60 1103 60 1247 270 c 0,26,27
 1386 473 1386 473 1386 755 c 128,-1,28
 1386 1037 1386 1037 1247 1240 c 0,29,30
 1229 1267 1229 1267 1208 1290 c 1,31,-1
 557 162 l 1,32,33
 679 60 679 60 853 60 c 0,24,25
498 220 m 1,34,-1
 1149 1348 l 1,35,36
 1026 1450 1026 1450 853 1450 c 0,37,38
 603 1450 603 1450 459 1240 c 0,39,40
 320 1037 320 1037 320 755 c 128,-1,41
 320 473 320 473 459 270 c 0,42,43
 478 243 478 243 498 220 c 1,34,-1
EndSplineSet
Validated: 1
EndChar

StartChar: Thorn
Encoding: 222 222 127
Width: 1324
GlyphClass: 2
Flags: W
HStem: 0 21G<200 400> 180 10<574 584.955> 1250 80<400 748.789> 1500 10<60 72.8174>
VStem: 200 200<0 1250 1330 1442.41> 1004 220<537.023 1002.52>
LayerCount: 2
Fore
SplineSet
200 0 m 1,0,-1
 200 1320 l 2,1,2
 200 1453 200 1453 60 1500 c 1,3,-1
 60 1510 l 1,4,-1
 400 1510 l 1,5,-1
 400 1330 l 1,6,-1
 635 1330 l 2,7,8
 889 1330 889 1330 1047 1186 c 0,9,10
 1224 1024 1224 1024 1224 774 c 0,11,12
 1224 553 1224 553 1092 388 c 0,13,14
 926 180 926 180 574 180 c 1,15,-1
 574 190 l 1,16,17
 780 248 780 248 901 406 c 0,18,19
 1004 540 1004 540 1004 774 c 0,20,21
 1004 972 1004 972 911 1088 c 0,22,23
 781 1250 781 1250 554 1250 c 2,24,-1
 400 1250 l 1,25,-1
 400 0 l 1,26,-1
 200 0 l 1,0,-1
EndSplineSet
Validated: 1
EndChar

StartChar: germandbls
Encoding: 223 223 128
Width: 1298
GlyphClass: 2
Flags: W
HStem: 0 10<560 574.98> 941 70<517 683.312> 1460 70<445.421 690.345>
VStem: 200 180<0 1360.87> 786 161<1116.51 1382.19> 998 200<309.113 720.402>
LayerCount: 2
Fore
SplineSet
200 0 m 1,0,-1
 200 1184 l 2,1,2
 200 1364 200 1364 336 1463 c 0,3,4
 428 1530 428 1530 561 1530 c 0,5,6
 734 1530 734 1530 839 1453 c 0,7,8
 947 1374 947 1374 947 1259 c 0,9,10
 947 1162 947 1162 886 1097 c 0,11,12
 804 1010 804 1010 660 986 c 1,13,14
 941 986 941 986 1077 846 c 0,15,16
 1198 721 1198 721 1198 514 c 0,17,18
 1198 303 1198 303 1042 158 c 0,19,20
 872 0 872 0 560 0 c 1,21,-1
 560 10 l 1,22,23
 802 70 802 70 896 192 c 0,24,25
 998 326 998 326 998 514 c 0,26,27
 998 670 998 670 920 776 c 0,28,29
 799 941 799 941 517 941 c 1,30,-1
 517 1011 l 1,31,32
 644 1011 644 1011 728 1089 c 0,33,34
 786 1143 786 1143 786 1248 c 0,35,36
 786 1355 786 1355 708 1414 c 0,37,38
 647 1460 647 1460 561 1460 c 0,39,40
 485 1460 485 1460 438 1420 c 0,41,42
 380 1370 380 1370 380 1253 c 2,43,-1
 380 0 l 1,44,-1
 200 0 l 1,0,-1
EndSplineSet
Validated: 1
EndChar

StartChar: ae
Encoding: 230 230 129
Width: 1802
GlyphClass: 2
Flags: W
HStem: -20 80<1124.66 1463.46> 0 10<730.906 740> 515 70<1068 1411> 1030 70<551.25 888> 1051 69<1111.31 1405.45>
VStem: 100 200<336.097 773.062> 888 180<105.776 515 585 1017.02>
LayerCount: 2
Fore
SplineSet
888 0 m 1,0,-1
 888 1030 l 1,1,-1
 728 1030 l 2,2,3
 531 1030 531 1030 415 897 c 0,4,5
 300 765 300 765 300 550 c 0,6,7
 300 362 300 362 421 210 c 0,8,9
 522 82 522 82 740 10 c 1,10,-1
 740 0 l 1,11,12
 448 0 448 0 281 140 c 0,13,14
 100 292 100 292 100 550 c 0,15,16
 100 798 100 798 281 960 c 0,17,18
 436 1100 436 1100 708 1100 c 2,19,-1
 1098 1100 l 1,20,21
 1171 1120 1171 1120 1255 1120 c 0,22,23
 1513 1120 1513 1120 1670 926 c 1,24,-1
 1516 773 l 1,25,-1
 1509 779 l 1,26,27
 1519 811 1519 811 1519 846 c 0,28,29
 1519 893 1519 893 1498 928 c 0,30,31
 1425 1051 1425 1051 1255 1051 c 0,32,33
 1144 1051 1144 1051 1068 988 c 1,34,-1
 1068 585 l 1,35,-1
 1411 585 l 1,36,-1
 1411 515 l 1,37,-1
 1068 515 l 1,38,-1
 1068 135 l 17,39,40
 1166 60 1166 60 1299 60 c 0,41,42
 1515 60 1515 60 1694 224 c 1,43,-1
 1702 218 l 1,44,45
 1537 -20 1537 -20 1255 -20 c 0,46,47
 1171 -20 1171 -20 1098 -0 c 1,48,-1
 888 0 l 1,0,-1
EndSplineSet
Validated: 1
EndChar

StartChar: eth
Encoding: 240 240 130
Width: 1276
GlyphClass: 2
Flags: W
HStem: -20 69<491.617 761.496> 1090 10<629.502 638> 1510 20G<443 511.5>
VStem: 100 200<308.792 791.677> 976 200<356.881 976.533>
DStem2: 531 1308 581 1258 0.708362 0.70585<0.125596 149.906 253.975 398.102>
LayerCount: 2
Fore
SplineSet
633 -20 m 0,0,1
 381 -20 381 -20 230 164 c 0,2,3
 100 322 100 322 100 550 c 128,-1,4
 100 778 100 778 230 936 c 0,5,6
 365 1100 365 1100 638 1100 c 1,7,-1
 638 1090 l 1,8,9
 456 1031 456 1031 381 906 c 0,10,11
 300 772 300 772 300 550 c 0,12,13
 300 330 300 330 381 194 c 0,14,15
 467 49 467 49 633 49 c 0,16,17
 789 49 789 49 883 209 c 0,18,19
 976 369 976 369 976 650 c 0,20,21
 976 998 976 998 812 1230 c 0,22,23
 757 1308 757 1308 691 1369 c 1,24,-1
 581 1258 l 1,25,-1
 531 1308 l 1,26,-1
 637 1414 l 1,27,28
 549 1481 549 1481 443 1520 c 1,29,-1
 443 1530 l 1,30,31
 580 1514 580 1514 692 1468 c 1,32,-1
 813 1589 l 1,33,-1
 862 1540 l 1,34,-1
 760 1438 l 1,35,36
 876 1378 876 1378 962 1282 c 0,37,38
 1176 1044 1176 1044 1176 650 c 0,39,40
 1176 353 1176 353 1034 179 c 0,41,42
 872 -20 872 -20 633 -20 c 0,0,1
EndSplineSet
Validated: 1
EndChar

StartChar: divide
Encoding: 247 247 131
Width: 1132
GlyphClass: 2
Flags: W
HStem: 302 264<476.191 657.809> 680 150<150 982> 945 264<474.191 655.809>
VStem: 437 260<341.707 526.293 984.707 1169.29>
LayerCount: 2
Fore
SplineSet
150 830 m 1,0,-1
 982 830 l 1,1,-1
 982 680 l 1,2,-1
 150 680 l 1,3,-1
 150 830 l 1,0,-1
567 302 m 128,-1,5
 513 302 513 302 475 340.5 c 128,-1,6
 437 379 437 379 437 434 c 128,-1,7
 437 489 437 489 475 527.5 c 128,-1,8
 513 566 513 566 567 566 c 128,-1,9
 621 566 621 566 659 527.5 c 128,-1,10
 697 489 697 489 697 434 c 128,-1,11
 697 379 697 379 659 340.5 c 128,-1,4
 621 302 621 302 567 302 c 128,-1,5
565 1209 m 128,-1,13
 619 1209 619 1209 657 1170.5 c 128,-1,14
 695 1132 695 1132 695 1077 c 128,-1,15
 695 1022 695 1022 657 983.5 c 128,-1,16
 619 945 619 945 565 945 c 128,-1,17
 511 945 511 945 473 983.5 c 128,-1,18
 435 1022 435 1022 435 1077 c 128,-1,19
 435 1132 435 1132 473 1170.5 c 128,-1,12
 511 1209 511 1209 565 1209 c 128,-1,13
EndSplineSet
Validated: 1
EndChar

StartChar: oslash
Encoding: 248 248 132
Width: 1276
GlyphClass: 2
Flags: W
HStem: -20 69<494.031 782.483> 1051 69<493.517 781.744>
VStem: 100 200<309.986 791.208> 976 200<308.792 789.776>
DStem2: 283 5 343 -30 0.500278 0.865865<0 80.9716 207.885 1091.11 1218.02 1298.99>
LayerCount: 2
Fore
SplineSet
638 -20 m 0,0,1
 494 -20 494 -20 383 38 c 1,2,-1
 343 -30 l 1,3,-1
 283 5 l 1,4,-1
 323 75 l 1,5,6
 272 112 272 112 230 164 c 0,7,8
 100 322 100 322 100 550 c 128,-1,9
 100 778 100 778 230 936 c 0,10,11
 381 1120 381 1120 638 1120 c 0,12,13
 782 1120 782 1120 893 1062 c 1,14,-1
 933 1130 l 1,15,-1
 993 1095 l 1,16,-1
 953 1025 l 1,17,18
 1004 988 1004 988 1046 936 c 0,19,20
 1176 778 1176 778 1176 550 c 128,-1,21
 1176 322 1176 322 1046 164 c 0,22,23
 895 -20 895 -20 638 -20 c 0,0,1
889 915 m 1,24,-1
 434 126 l 1,25,26
 513 49 513 49 638 49 c 0,27,28
 809 49 809 49 895 194 c 0,29,30
 976 330 976 330 976 550 c 0,31,32
 976 768 976 768 889 915 c 1,24,-1
387 185 m 1,33,-1
 842 974 l 1,34,35
 762 1051 762 1051 638 1051 c 0,36,37
 467 1051 467 1051 381 906 c 0,38,39
 300 770 300 770 300 550 c 0,40,41
 300 331 300 331 387 185 c 1,33,-1
EndSplineSet
Validated: 1
EndChar

StartChar: thorn
Encoding: 254 254 133
Width: 1268
GlyphClass: 2
Flags: W
HStem: -410 21G<200 380> 0 10<528 537.094> 1030 70<380 716.75> 1500 10<60 72.8174>
VStem: 200 180<-410 1030 1100 1442.41> 968 200<336.097 773.062>
LayerCount: 2
Fore
SplineSet
200 -410 m 1,0,-1
 200 1320 l 2,1,2
 200 1453 200 1453 60 1500 c 1,3,-1
 60 1510 l 1,4,-1
 380 1510 l 1,5,-1
 380 1100 l 9,6,-1
 560 1100 l 2,7,8
 832 1100 832 1100 987 960 c 0,9,10
 1168 798 1168 798 1168 550 c 0,11,12
 1168 292 1168 292 987 140 c 0,13,14
 820 0 820 0 528 0 c 9,15,-1
 528 10 l 17,16,17
 746 82 746 82 847 210 c 0,18,19
 968 362 968 362 968 550 c 0,20,21
 968 765 968 765 853 897 c 0,22,23
 737 1030 737 1030 540 1030 c 2,24,-1
 380 1030 l 1,25,-1
 380 -410 l 1,26,-1
 200 -410 l 1,0,-1
EndSplineSet
Validated: 1
EndChar

StartChar: Dcroat
Encoding: 272 272 134
Width: 1586
GlyphClass: 2
Flags: W
HStem: 0 10<580 594.845> 715 80<60 200 400 812> 1430 80<400 894.41> 1500 10<60 72.8174>
VStem: 200 200<0 715 795 1428.67> 1266 220<501.01 1039.83>
LayerCount: 2
Fore
SplineSet
200 0 m 1,0,-1
 200 715 l 1,1,-1
 60 715 l 1,2,-1
 60 795 l 1,3,-1
 200 795 l 1,4,-1
 200 1320 l 2,5,6
 200 1453 200 1453 60 1500 c 1,7,-1
 60 1510 l 1,8,-1
 716 1510 l 2,9,10
 1103 1510 1103 1510 1308 1273 c 0,11,12
 1486 1066 1486 1066 1486 755 c 0,13,14
 1486 467 1486 467 1284 248 c 0,15,16
 1057 0 1057 0 580 0 c 1,17,-1
 580 10 l 1,18,19
 970 86 970 86 1122 301 c 0,20,21
 1266 504 1266 504 1266 755 c 0,22,23
 1266 1063 1266 1063 1105 1247 c 0,24,25
 945 1430 945 1430 666 1430 c 2,26,-1
 400 1430 l 1,27,-1
 400 795 l 1,28,-1
 812 795 l 1,29,-1
 812 715 l 1,30,-1
 400 715 l 1,31,-1
 400 0 l 1,32,-1
 200 0 l 1,0,-1
EndSplineSet
Validated: 1
EndChar

StartChar: dcroat
Encoding: 273 273 135
Width: 1268
GlyphClass: 2
Flags: W
HStem: 0 70<551.25 888> 0 10<1195.18 1208> 1090 10<730.906 740> 1250 70<556 888 1068 1208> 1500 10<748 760.817>
VStem: 100 200<326.938 763.903> 888 180<70.2515 1250 1320 1442.41>
LayerCount: 2
Fore
SplineSet
1208 0 m 1,0,-1
 708 0 l 2,1,2
 436 0 436 0 281 140 c 0,3,4
 100 302 100 302 100 550 c 0,5,6
 100 808 100 808 281 960 c 0,7,8
 448 1100 448 1100 740 1100 c 1,9,-1
 740 1090 l 1,10,11
 522 1018 522 1018 421 890 c 0,12,13
 300 738 300 738 300 550 c 0,14,15
 300 335 300 335 415 203 c 0,16,17
 531 70 531 70 728 70 c 2,18,-1
 888 70 l 1,19,-1
 888 1250 l 1,20,-1
 556 1250 l 1,21,-1
 556 1320 l 1,22,-1
 888 1320 l 1,23,24
 888 1453 888 1453 748 1500 c 1,25,-1
 748 1510 l 1,26,-1
 1068 1510 l 1,27,-1
 1068 1320 l 1,28,-1
 1208 1320 l 1,29,-1
 1208 1250 l 1,30,-1
 1068 1250 l 1,31,-1
 1068 190 l 2,32,33
 1068 57 1068 57 1208 10 c 1,34,-1
 1208 0 l 1,0,-1
EndSplineSet
Validated: 1
EndChar

StartChar: Hbar
Encoding: 294 294 136
Width: 1552
GlyphClass: 2
Flags: W
HStem: 0 10<1479.18 1492> 715 80<400 1152> 1240 80<60 200 400 1152 1352 1492> 1500 10<60 72.8174>
VStem: 200 200<0 715 795 1240 1320 1442.41> 1152 200<67.5859 715 795 1240 1320 1510>
LayerCount: 2
Fore
SplineSet
200 0 m 1,0,-1
 200 1240 l 1,1,-1
 60 1240 l 1,2,-1
 60 1320 l 1,3,-1
 200 1320 l 1,4,5
 200 1453 200 1453 60 1500 c 1,6,-1
 60 1510 l 1,7,-1
 400 1510 l 1,8,-1
 400 1320 l 1,9,-1
 1152 1320 l 1,10,-1
 1152 1510 l 1,11,-1
 1352 1510 l 1,12,-1
 1352 1320 l 1,13,-1
 1492 1320 l 1,14,-1
 1492 1240 l 1,15,-1
 1352 1240 l 1,16,-1
 1352 190 l 2,17,18
 1352 57 1352 57 1492 10 c 1,19,-1
 1492 0 l 1,20,-1
 1152 0 l 1,21,-1
 1152 715 l 1,22,-1
 400 715 l 1,23,-1
 400 0 l 1,24,-1
 200 0 l 1,0,-1
400 1240 m 1,25,-1
 400 795 l 1,26,-1
 1152 795 l 1,27,-1
 1152 1240 l 1,28,-1
 400 1240 l 1,25,-1
EndSplineSet
Validated: 1
EndChar

StartChar: hbar
Encoding: 295 295 137
Width: 1268
GlyphClass: 2
Flags: W
HStem: 0 21G<200 380 708 803.5> 1030 70<380 717.25> 1250 70<80 200 380 709> 1500 10<60 72.8174>
VStem: 200 180<0 1030 1100 1250 1320 1442.41> 968 200<326.728 769.963>
LayerCount: 2
Fore
SplineSet
200 0 m 1,0,-1
 200 1250 l 1,1,-1
 80 1250 l 1,2,-1
 80 1320 l 1,3,-1
 200 1320 l 1,4,5
 200 1453 200 1453 60 1500 c 1,6,-1
 60 1510 l 1,7,-1
 380 1510 l 1,8,-1
 380 1320 l 1,9,-1
 709 1320 l 1,10,-1
 709 1250 l 1,11,-1
 380 1250 l 1,12,-1
 380 1100 l 1,13,-1
 560 1100 l 2,14,15
 832 1100 832 1100 987 960 c 0,16,17
 1168 796 1168 796 1168 550 c 0,18,19
 1168 317 1168 317 1002 150 c 0,20,21
 889 36 889 36 718 -20 c 1,22,-1
 708 -20 l 1,23,24
 852 118 852 118 915 273 c 0,25,26
 968 402 968 402 968 550 c 0,27,28
 968 765 968 765 853 897 c 0,29,30
 738 1030 738 1030 540 1030 c 2,31,-1
 380 1030 l 1,32,-1
 380 0 l 1,33,-1
 200 0 l 1,0,-1
EndSplineSet
Validated: 19457
EndChar

StartChar: Idotaccent
Encoding: 304 304 138
Width: 600
GlyphClass: 2
Flags: W
HStem: 0 21G<200 400> 1500 10<60 72.8174> 1610 264<199.191 380.809>
VStem: 160 260<1649.71 1834.29> 200 200<0 1442.41>
LayerCount: 2
Fore
SplineSet
290 1874 m 128,-1,1
 344 1874 344 1874 382 1835.5 c 128,-1,2
 420 1797 420 1797 420 1742 c 128,-1,3
 420 1687 420 1687 382 1648.5 c 128,-1,4
 344 1610 344 1610 290 1610 c 128,-1,5
 236 1610 236 1610 198 1648.5 c 128,-1,6
 160 1687 160 1687 160 1742 c 128,-1,7
 160 1797 160 1797 198 1835.5 c 128,-1,0
 236 1874 236 1874 290 1874 c 128,-1,1
200 0 m 1,8,-1
 200 1320 l 10,9,10
 200 1453 200 1453 60 1500 c 1,11,-1
 60 1510 l 1,12,-1
 400 1510 l 1,13,-1
 400 0 l 1,14,-1
 200 0 l 1,8,-1
EndSplineSet
Validated: 1
EndChar

StartChar: IJ
Encoding: 306 306 139
Width: 1729
GlyphClass: 2
Flags: W
HStem: -20 80<856.77 1140.31> 0 21G<200 400> 1430 80<823.959 1329> 1500 10<60 72.8174>
VStem: 200 200<0 1442.41> 751 10<1290 1302.82> 1329 200<309.267 1430>
LayerCount: 2
Fore
SplineSet
991 -20 m 0,0,1
 704 -20 704 -20 559 206 c 1,2,-1
 760 406 l 1,3,-1
 767 400 l 1,4,5
 759 346 759 346 759 296 c 0,6,7
 759 224 759 224 792 170 c 0,8,9
 859 61 859 61 991 60 c 0,10,11
 1159 60 1159 60 1255 212 c 0,12,13
 1329 329 1329 329 1329 548 c 2,14,-1
 1329 1430 l 1,15,-1
 941 1430 l 2,16,17
 808 1430 808 1430 761 1290 c 1,18,-1
 751 1290 l 1,19,-1
 751 1510 l 1,20,-1
 1529 1510 l 1,21,-1
 1529 546 l 2,22,23
 1529 306 1529 306 1382 152 c 0,24,25
 1218 -20 1218 -20 991 -20 c 0,0,1
200 0 m 1,26,-1
 200 1320 l 10,27,28
 200 1453 200 1453 60 1500 c 1,29,-1
 60 1510 l 1,30,-1
 400 1510 l 1,31,-1
 400 0 l 1,32,-1
 200 0 l 1,26,-1
EndSplineSet
Validated: 1
EndChar

StartChar: ij
Encoding: 307 307 140
Width: 1160
GlyphClass: 2
Flags: W
HStem: -410 10<600 611.074> 0 10<507.183 520> 1090 10<60 72.8174 640 652.817> 1200 264<189.191 370.809 769.191 950.809>
VStem: 150 260<1239.71 1424.29> 200 180<67.5859 1032.41> 730 260<1239.71 1424.29> 780 180<-265.728 1032.41>
LayerCount: 2
Fore
SplineSet
860 1464 m 128,-1,1
 914 1464 914 1464 952 1425.5 c 128,-1,2
 990 1387 990 1387 990 1332 c 128,-1,3
 990 1277 990 1277 952 1238.5 c 128,-1,4
 914 1200 914 1200 860 1200 c 128,-1,5
 806 1200 806 1200 768 1238.5 c 128,-1,6
 730 1277 730 1277 730 1332 c 128,-1,7
 730 1387 730 1387 768 1425.5 c 128,-1,0
 806 1464 806 1464 860 1464 c 128,-1,1
280 1464 m 128,-1,9
 334 1464 334 1464 372 1425.5 c 128,-1,10
 410 1387 410 1387 410 1332 c 128,-1,11
 410 1277 410 1277 372 1238.5 c 128,-1,12
 334 1200 334 1200 280 1200 c 128,-1,13
 226 1200 226 1200 188 1238.5 c 128,-1,14
 150 1277 150 1277 150 1332 c 128,-1,15
 150 1387 150 1387 188 1425.5 c 128,-1,8
 226 1464 226 1464 280 1464 c 128,-1,9
600 -410 m 1,16,-1
 600 -400 l 1,17,18
 780 -341 780 -341 780 -75 c 2,19,-1
 780 910 l 10,20,21
 780 1043 780 1043 640 1090 c 1,22,-1
 640 1100 l 1,23,-1
 960 1100 l 1,24,-1
 960 -75 l 2,25,26
 960 -410 960 -410 600 -410 c 1,16,-1
200 0 m 1,27,-1
 200 910 l 2,28,29
 200 1043 200 1043 60 1090 c 1,30,-1
 60 1100 l 1,31,-1
 380 1100 l 1,32,-1
 380 190 l 10,33,34
 380 57 380 57 520 10 c 1,35,-1
 520 0 l 1,36,-1
 200 0 l 1,27,-1
EndSplineSet
Validated: 1
EndChar

StartChar: kgreenlandic
Encoding: 312 312 141
Width: 1274
GlyphClass: 2
Flags: W
HStem: 0 21G<200 380 936.981 1254> 1090 10<60 72.8174 708 713.891>
VStem: 200 180<0 1032.41> 898 200<633.874 970.796> 962 292<0 292>
DStem2: 788 362 638 259 0.789717 -0.613471<0 359.487>
LayerCount: 2
Fore
SplineSet
1254 0 m 1,0,-1
 962 0 l 1,1,-1
 638 259 l 1,2,-1
 419 184 l 1,3,-1
 414 192 l 1,4,5
 601 322 601 322 740 454 c 0,6,7
 898 604 898 604 898 810 c 0,8,9
 898 1002 898 1002 708 1090 c 1,10,-1
 708 1100 l 1,11,12
 1098 1100 1098 1100 1098 812 c 0,13,14
 1098 565 1098 565 788 362 c 1,15,-1
 1254 0 l 1,0,-1
200 0 m 1,16,-1
 200 910 l 10,17,18
 200 1043 200 1043 60 1090 c 1,19,-1
 60 1100 l 1,20,-1
 380 1100 l 1,21,-1
 380 0 l 1,22,-1
 200 0 l 1,16,-1
EndSplineSet
Validated: 1
EndChar

StartChar: Lslash
Encoding: 321 321 142
Width: 998
GlyphClass: 2
Flags: W
HStem: 0 80<400 905.041> 1500 10<60 72.8174>
VStem: 200 200<80 572 665 688 781 1442.41> 968 10<207.183 220>
DStem2: 90 602 130 532 0.866274 0.499569<0 80.3031 357.968 752.33>
LayerCount: 2
Fore
SplineSet
200 0 m 1,0,-1
 200 572 l 1,1,-1
 130 532 l 1,2,-1
 90 602 l 1,3,-1
 200 665 l 1,4,-1
 200 1320 l 2,5,6
 200 1453 200 1453 60 1500 c 1,7,-1
 60 1510 l 1,8,-1
 400 1510 l 1,9,-1
 400 781 l 1,10,-1
 742 978 l 1,11,-1
 782 908 l 1,12,-1
 400 688 l 1,13,-1
 400 80 l 1,14,-1
 788 80 l 2,15,16
 921 80 921 80 968 220 c 1,17,-1
 978 220 l 1,18,-1
 978 0 l 1,19,-1
 200 0 l 1,0,-1
EndSplineSet
Validated: 1
EndChar

StartChar: lslash
Encoding: 322 322 143
Width: 732
GlyphClass: 2
Flags: W
HStem: 0 10<583.183 596> 1500 10<136 148.817>
VStem: 276 180<67.5859 662 745 766 849 1442.41>
DStem2: 40 609 76 546 0.865811 0.500371<0 230.851 480.266 711.118>
LayerCount: 2
Fore
SplineSet
276 0 m 1,0,-1
 276 662 l 1,1,-1
 76 546 l 1,2,-1
 40 609 l 1,3,-1
 276 745 l 1,4,-1
 276 1320 l 2,5,6
 276 1453 276 1453 136 1500 c 1,7,-1
 136 1510 l 1,8,-1
 456 1510 l 1,9,-1
 456 849 l 1,10,-1
 656 965 l 1,11,-1
 692 902 l 1,12,-1
 456 766 l 1,13,-1
 456 190 l 2,14,15
 456 57 456 57 596 10 c 1,16,-1
 596 0 l 1,17,-1
 276 0 l 1,0,-1
EndSplineSet
Validated: 1
EndChar

StartChar: Eng
Encoding: 330 330 144
Width: 1577
GlyphClass: 2
Flags: W
HStem: -410 21G<856 989.5> 0 21G<200 400> 1430 80<400 868.175> 1500 10<60 72.8174>
VStem: 200 200<0 1428.67> 1207 220<84.7202 1060.82>
LayerCount: 2
Fore
SplineSet
200 0 m 1,0,-1
 200 1320 l 10,1,2
 200 1453 200 1453 60 1500 c 1,3,-1
 60 1510 l 1,4,-1
 686 1510 l 2,5,6
 1009 1510 1009 1510 1223 1317 c 0,7,8
 1427 1132 1427 1132 1427 767 c 2,9,-1
 1427 360 l 2,10,11
 1427 52 1427 52 1241 -164 c 0,12,13
 1110 -316 1110 -316 869 -410 c 1,14,-1
 856 -410 l 1,15,16
 1059 -234 1059 -234 1140 -32 c 0,17,18
 1207 137 1207 137 1207 360 c 2,19,-1
 1207 767 l 2,20,21
 1207 1072 1207 1072 1061 1248 c 0,22,23
 910 1430 910 1430 659 1430 c 2,24,-1
 400 1430 l 1,25,-1
 400 0 l 1,26,-1
 200 0 l 1,0,-1
EndSplineSet
Validated: 1
EndChar

StartChar: eng
Encoding: 331 331 145
Width: 1318
GlyphClass: 2
Flags: W
HStem: -410 21G<708 803.5> 0 21G<200 380> 1030 70<380 717.25> 1090 10<60 72.8174>
VStem: 200 180<0 1029.75> 968 200<-62.7339 769.074>
LayerCount: 2
Fore
SplineSet
200 0 m 1,0,-1
 200 910 l 2,1,2
 200 1043 200 1043 60 1090 c 1,3,-1
 60 1100 l 1,4,-1
 560 1100 l 2,5,6
 832 1100 832 1100 987 960 c 0,7,8
 1168 796 1168 796 1168 550 c 2,9,-1
 1168 160 l 2,10,11
 1168 -73 1168 -73 1002 -240 c 0,12,13
 889 -354 889 -354 718 -410 c 1,14,-1
 708 -410 l 1,15,16
 852 -272 852 -272 915 -117 c 0,17,18
 968 12 968 12 968 160 c 2,19,-1
 968 550 l 2,20,21
 968 765 968 765 853 897 c 0,22,23
 738 1030 738 1030 540 1030 c 2,24,-1
 380 1030 l 1,25,-1
 380 0 l 1,26,-1
 200 0 l 1,0,-1
EndSplineSet
Validated: 1
EndChar

StartChar: OE
Encoding: 338 338 146
Width: 2503
GlyphClass: 2
Flags: W
HStem: -20 80<658.842 1047.54 1637.47 2022.86> 715 80<1605 2004> 1450 80<658.842 1047.62 1568.11 1969.04>
VStem: 100 220<468.429 1041.57> 1386 219<463.062 715 795 1039.81>
CounterMasks: 1 e0
LayerCount: 2
Fore
SplineSet
853 60 m 128,-1,1
 1103 60 1103 60 1247 270 c 0,2,3
 1386 473 1386 473 1386 755 c 128,-1,4
 1386 1037 1386 1037 1247 1240 c 0,5,6
 1103 1450 1103 1450 853 1450 c 128,-1,7
 603 1450 603 1450 459 1240 c 0,8,9
 320 1037 320 1037 320 755 c 128,-1,10
 320 473 320 473 459 270 c 0,11,0
 603 60 603 60 853 60 c 128,-1,1
853 -20 m 0,12,13
 502 -20 502 -20 289 218 c 0,14,15
 100 430 100 430 100 755 c 128,-1,16
 100 1080 100 1080 289 1292 c 0,17,18
 502 1530 502 1530 853 1530 c 0,19,20
 1121 1530 1121 1530 1309 1391 c 1,21,22
 1497 1530 1497 1530 1764 1530 c 0,23,24
 2129 1530 2129 1530 2339 1278 c 1,25,-1
 2137 1080 l 1,26,-1
 2131 1086 l 1,27,28
 2140 1132 2140 1132 2140 1182 c 0,29,30
 2140 1247 2140 1247 2101 1304 c 0,31,32
 2000 1450 2000 1450 1762 1450 c 0,33,34
 1550 1450 1550 1450 1413 1296 c 1,35,36
 1594 1093 1594 1093 1605 795 c 1,37,-1
 2004 795 l 1,38,-1
 2004 715 l 1,39,-1
 1605 715 l 1,40,41
 1594 424 1594 424 1426 228 c 1,42,43
 1581 70 1581 70 1841 70 c 0,44,45
 2129 70 2129 70 2396 325 c 1,46,-1
 2403 319 l 1,47,48
 2184 -20 2184 -20 1764 -20 c 0,49,50
 1495 -20 1495 -20 1308 119 c 1,51,52
 1121 -20 1121 -20 853 -20 c 0,12,13
EndSplineSet
Validated: 1
EndChar

StartChar: oe
Encoding: 339 339 147
Width: 1797
GlyphClass: 2
Flags: W
HStem: -20 69<493.517 781.834 1155.53 1444.76> 515 70<1175 1406> 1051 69<493.517 781.745 1107.35 1400.45>
VStem: 100 200<308.792 791.208> 976 199<311.083 515 585 786.933>
CounterMasks: 1 e0
LayerCount: 2
Fore
SplineSet
638 49 m 128,-1,1
 809 49 809 49 895 194 c 256,2,3
 976 330 976 330 976 550 c 128,-1,4
 976 770 976 770 895 906 c 256,5,6
 809 1051 809 1051 638 1051 c 128,-1,7
 467 1051 467 1051 381 906 c 256,8,9
 300 770 300 770 300 550 c 128,-1,10
 300 330 300 330 381 194 c 256,11,0
 467 49 467 49 638 49 c 128,-1,1
638 -20 m 0,12,13
 381 -20 381 -20 230 164 c 0,14,15
 100 322 100 322 100 550 c 128,-1,16
 100 778 100 778 230 936 c 0,17,18
 381 1120 381 1120 638 1120 c 0,19,20
 817 1120 817 1120 944 1031 c 1,21,22
 1072 1120 1072 1120 1250 1120 c 0,23,24
 1508 1120 1508 1120 1665 926 c 1,25,-1
 1511 773 l 1,26,-1
 1504 779 l 1,27,28
 1514 811 1514 811 1514 846 c 0,29,30
 1514 893 1514 893 1493 928 c 0,31,32
 1420 1051 1420 1051 1250 1051 c 0,33,34
 1113 1051 1113 1051 1029 956 c 1,35,36
 1166 792 1166 792 1175 585 c 1,37,-1
 1406 585 l 1,38,-1
 1406 515 l 1,39,-1
 1175 515 l 1,40,41
 1166 309 1166 309 1039 156 c 1,42,43
 1139 60 1139 60 1294 60 c 0,44,45
 1510 60 1510 60 1689 224 c 1,46,-1
 1697 218 l 1,47,48
 1532 -20 1532 -20 1250 -20 c 0,49,50
 1073 -20 1073 -20 945 69 c 1,51,52
 817 -20 817 -20 638 -20 c 0,12,13
EndSplineSet
Validated: 1
EndChar

StartChar: Tbar
Encoding: 358 358 148
Width: 1110
GlyphClass: 2
Flags: W
HStem: 0 21G<456 656> 600 80<229 456 656 881> 1430 80<92.959 456 656 1017.04>
VStem: 20 10<1290 1302.82> 456 200<0 600 680 1430> 1080 10<1290 1302.82>
LayerCount: 2
Fore
SplineSet
456 0 m 1,0,-1
 456 600 l 1,1,-1
 229 600 l 1,2,-1
 229 680 l 1,3,-1
 456 680 l 1,4,-1
 456 1430 l 1,5,-1
 210 1430 l 2,6,7
 77 1430 77 1430 30 1290 c 1,8,-1
 20 1290 l 1,9,-1
 20 1510 l 1,10,-1
 1090 1510 l 1,11,-1
 1090 1290 l 1,12,-1
 1080 1290 l 1,13,14
 1033 1430 1033 1430 900 1430 c 2,15,-1
 656 1430 l 1,16,-1
 656 680 l 1,17,-1
 881 680 l 1,18,-1
 881 600 l 1,19,-1
 656 600 l 1,20,-1
 656 0 l 1,21,-1
 456 0 l 1,0,-1
EndSplineSet
Validated: 1
EndChar

StartChar: tbar
Encoding: 359 359 149
Width: 750
GlyphClass: 2
Flags: W
HStem: 0 10<507.183 520> 605 70<70 200 380 510> 1030 70<380 730> 1500 10<60 72.8174>
VStem: 200 180<67.5859 605 675 1030 1100 1442.41>
LayerCount: 2
Fore
SplineSet
200 0 m 1,0,-1
 200 605 l 1,1,-1
 70 605 l 1,2,-1
 70 675 l 1,3,-1
 200 675 l 1,4,-1
 200 1320 l 2,5,6
 200 1453 200 1453 60 1500 c 1,7,-1
 60 1510 l 1,8,-1
 380 1510 l 1,9,-1
 380 1100 l 1,10,-1
 730 1100 l 1,11,-1
 730 1030 l 1,12,-1
 380 1030 l 1,13,-1
 380 675 l 1,14,-1
 510 675 l 1,15,-1
 510 605 l 1,16,-1
 380 605 l 1,17,-1
 380 190 l 2,18,19
 380 57 380 57 520 10 c 1,20,-1
 520 0 l 1,21,-1
 200 0 l 1,0,-1
EndSplineSet
Validated: 1
EndChar

StartChar: longs
Encoding: 383 383 150
Width: 1193
GlyphClass: 2
Flags: W
HStem: -410 21G<230 410> 690 70<30 230> 1461 69<619.043 918.455>
VStem: 230 180<-410 690 760 1200.23>
LayerCount: 2
Fore
SplineSet
230 -410 m 1,0,-1
 230 690 l 1,1,-1
 30 690 l 1,2,-1
 30 760 l 1,3,-1
 230 760 l 1,4,-1
 230 960 l 2,5,6
 230 1188 230 1188 360 1346 c 0,7,8
 513 1530 513 1530 768 1530 c 0,9,10
 1026 1530 1026 1530 1183 1336 c 1,11,-1
 1029 1183 l 1,12,-1
 1022 1189 l 1,13,14
 1032 1221 1032 1221 1032 1256 c 0,15,16
 1032 1303 1032 1303 1011 1338 c 0,17,18
 938 1461 938 1461 768 1461 c 0,19,20
 601 1461 601 1461 508 1329 c 0,21,22
 410 1192 410 1192 410 960 c 2,23,-1
 410 -410 l 1,24,-1
 230 -410 l 1,0,-1
EndSplineSet
Validated: 1
EndChar

StartChar: florin
Encoding: 402 402 151
Width: 1163
GlyphClass: 2
Flags: W
HStem: -410 10<20 31.0742> 690 70<380 872> 1461 69<589.043 888.455>
VStem: 200 180<-265.728 690 760 1200.23>
LayerCount: 2
Fore
SplineSet
20 -410 m 1,0,-1
 20 -400 l 1,1,2
 200 -341 200 -341 200 -75 c 2,3,-1
 200 960 l 2,4,5
 200 1188 200 1188 330 1346 c 0,6,7
 483 1530 483 1530 738 1530 c 0,8,9
 996 1530 996 1530 1153 1336 c 1,10,-1
 999 1183 l 1,11,-1
 992 1189 l 1,12,13
 1002 1221 1002 1221 1002 1256 c 0,14,15
 1002 1303 1002 1303 981 1338 c 0,16,17
 908 1461 908 1461 738 1461 c 0,18,19
 571 1461 571 1461 478 1329 c 0,20,21
 380 1192 380 1192 380 960 c 2,22,-1
 380 760 l 1,23,-1
 872 760 l 1,24,-1
 872 690 l 1,25,-1
 380 690 l 1,26,-1
 380 -75 l 2,27,28
 380 -410 380 -410 20 -410 c 1,0,-1
EndSplineSet
Validated: 1
EndChar

StartChar: Scommaaccent
Encoding: 536 536 152
Width: 1269
GlyphClass: 2
Flags: W
HStem: -20 80<451.224 788.605> 1450 80<533.186 779.755>
VStem: 290 165<1143.06 1371.51> 993 196<297.18 613.133>
DStem2: 647 1041 563 862 0.907167 -0.420771<-197.835 422.915>
LayerCount: 2
Fore
SplineSet
610 -60 m 1,0,1
 738 -187 l 1,2,3
 554 -257 554 -257 421 -434 c 1,4,-1
 411 -434 l 1,5,6
 430 -187 430 -187 610 -60 c 1,0,1
611 -20 m 0,7,8
 372 -20 372 -20 234 112 c 0,9,10
 142 200 142 200 80 354 c 1,11,-1
 295 565 l 1,12,-1
 302 559 l 1,13,14
 281 476 281 476 281 381 c 0,15,16
 281 267 281 267 343 190 c 0,17,18
 447 60 447 60 614 60 c 0,19,20
 795 60 795 60 900 189 c 0,21,22
 993 303 993 303 993 446 c 0,23,24
 993 659 993 659 781 759 c 2,25,-1
 563 862 l 2,26,27
 290 991 290 991 290 1210 c 0,28,29
 290 1351 290 1351 397 1444 c 0,30,31
 496 1530 496 1530 661 1530 c 128,-1,32
 826 1530 826 1530 921 1438 c 0,33,34
 968 1391 968 1391 997 1322 c 1,35,-1
 843 1169 l 1,36,-1
 836 1175 l 1,37,38
 846 1207 846 1207 846 1242 c 0,39,40
 846 1309 846 1309 819 1361 c 0,41,42
 773 1450 773 1450 667 1450 c 0,43,44
 574 1450 574 1450 513 1395 c 0,45,46
 455 1342 455 1342 455 1255 c 0,47,48
 455 1130 455 1130 647 1041 c 2,49,-1
 882 932 l 2,50,51
 1189 790 1189 790 1189 498 c 0,52,53
 1189 287 1189 287 1022 135 c 0,54,55
 851 -20 851 -20 611 -20 c 0,7,8
EndSplineSet
Validated: 1
EndChar

StartChar: scommaaccent
Encoding: 537 537 153
Width: 964
GlyphClass: 2
Flags: W
HStem: -20 69<333.601 585.403> 1051 69<400.795 591.395>
VStem: 218 138<821.649 1006.45> 718 166<197.724 446.536>
DStem2: 472 772 400 611 0.893545 -0.448973<-140.847 359.077>
LayerCount: 2
Fore
SplineSet
451 -60 m 1,0,1
 579 -187 l 1,2,3
 395 -257 395 -257 262 -434 c 1,4,-1
 252 -434 l 1,5,6
 271 -187 271 -187 451 -60 c 1,0,1
452 -20 m 0,7,8
 332 -20 332 -20 242 34 c 0,9,10
 136 98 136 98 80 218 c 1,11,-1
 234 371 l 1,12,-1
 241 365 l 1,13,14
 231 333 231 333 231 298 c 0,15,16
 231 220 231 220 264 161 c 0,17,18
 327 49 327 49 454 49 c 0,19,20
 583 49 583 49 660 148 c 0,21,22
 718 223 718 223 718 317 c 0,23,24
 718 449 718 449 589 515 c 2,25,-1
 400 611 l 2,26,27
 218 703 218 703 218 866 c 0,28,29
 218 979 218 979 311 1059 c 0,30,31
 382 1120 382 1120 506 1120 c 0,32,33
 625 1120 625 1120 694 1054 c 0,34,35
 734 1016 734 1016 756 964 c 1,36,-1
 628 838 l 1,37,-1
 621 844 l 1,38,39
 631 876 631 876 631 911 c 0,40,41
 631 958 631 958 610 993 c 0,42,43
 575 1051 575 1051 501 1051 c 0,44,45
 437 1051 437 1051 399 1017 c 0,46,47
 356 979 356 979 356 917 c 0,48,49
 356 830 356 830 472 772 c 2,50,-1
 675 670 l 2,51,52
 884 565 884 565 884 370 c 0,53,54
 884 200 884 200 739 79 c 24,55,56
 620 -20 620 -20 452 -20 c 0,7,8
EndSplineSet
Validated: 1
EndChar

StartChar: uni021A
Encoding: 538 538 154
Width: 1110
GlyphClass: 2
Flags: W
HStem: 0 21G<456 656> 1430 80<92.959 456 656 1017.04>
VStem: 20 10<1290 1302.82> 456 200<0 1430> 1080 10<1290 1302.82>
LayerCount: 2
Fore
SplineSet
556 -60 m 1,0,1
 684 -187 l 1,2,3
 500 -257 500 -257 367 -434 c 1,4,-1
 357 -434 l 1,5,6
 376 -187 376 -187 556 -60 c 1,0,1
456 0 m 1,7,-1
 456 1430 l 1,8,-1
 210 1430 l 2,9,10
 77 1430 77 1430 30 1290 c 1,11,-1
 20 1290 l 1,12,-1
 20 1510 l 1,13,-1
 1090 1510 l 1,14,-1
 1090 1290 l 1,15,-1
 1080 1290 l 1,16,17
 1033 1430 1033 1430 900 1430 c 2,18,-1
 656 1430 l 1,19,-1
 656 0 l 1,20,-1
 456 0 l 1,7,-1
EndSplineSet
Validated: 1
EndChar

StartChar: uni021B
Encoding: 539 539 155
Width: 750
GlyphClass: 2
Flags: W
HStem: 0 10<507.183 520> 1030 70<380 730> 1500 10<60 72.8174>
VStem: 200 180<67.5859 1030 1100 1442.41>
LayerCount: 2
Fore
SplineSet
348 -60 m 1,0,1
 476 -187 l 1,2,3
 292 -257 292 -257 159 -434 c 1,4,-1
 149 -434 l 1,5,6
 168 -187 168 -187 348 -60 c 1,0,1
200 0 m 1,7,-1
 200 1320 l 2,8,9
 200 1453 200 1453 60 1500 c 1,10,-1
 60 1510 l 1,11,-1
 380 1510 l 1,12,-1
 380 1100 l 1,13,-1
 730 1100 l 1,14,-1
 730 1030 l 1,15,-1
 380 1030 l 1,16,-1
 380 190 l 2,17,18
 380 57 380 57 520 10 c 1,19,-1
 520 0 l 1,20,-1
 200 0 l 1,7,-1
EndSplineSet
Validated: 1
EndChar

StartChar: endash
Encoding: 8211 8211 156
Width: 1133
GlyphClass: 2
Flags: W
HStem: 680 150<150 983>
LayerCount: 2
Fore
SplineSet
150 830 m 1,0,-1
 983 830 l 1,1,-1
 983 680 l 1,2,-1
 150 680 l 1,3,-1
 150 830 l 1,0,-1
EndSplineSet
Validated: 1
EndChar

StartChar: emdash
Encoding: 8212 8212 157
Width: 1533
GlyphClass: 2
Flags: W
HStem: 680 150<150 1383>
LayerCount: 2
Fore
SplineSet
150 830 m 1,0,-1
 1383 830 l 1,1,-1
 1383 680 l 1,2,-1
 150 680 l 1,3,-1
 150 830 l 1,0,-1
EndSplineSet
Validated: 1
EndChar

StartChar: afii00208
Encoding: 8213 8213 158
Width: 1533
GlyphClass: 2
Flags: W
HStem: 680 150<150 1383>
LayerCount: 2
Fore
SplineSet
150 830 m 1,0,-1
 1383 830 l 1,1,-1
 1383 680 l 1,2,-1
 150 680 l 1,3,-1
 150 830 l 1,0,-1
EndSplineSet
Validated: 1
EndChar

StartChar: quoteleft
Encoding: 8216 8216 159
Width: 368
GlyphClass: 2
Flags: W
HStem: 1028 572
VStem: 50 171<1212.99 1420.37>
LayerCount: 2
Fore
SplineSet
328 1600 m 1,0,-1
 328 1590 l 1,1,2
 221 1470 221 1470 221 1332 c 0,3,4
 221 1234 221 1234 313 1168 c 1,5,-1
 173 1028 l 1,6,7
 50 1128 50 1128 50 1263 c 0,8,9
 50 1485 50 1485 328 1600 c 1,0,-1
EndSplineSet
Validated: 1
EndChar

StartChar: quoteright
Encoding: 8217 8217 160
Width: 368
GlyphClass: 2
Flags: W
HStem: 1028 572
VStem: 147 171<1207.63 1415.01>
LayerCount: 2
Fore
SplineSet
195 1600 m 1,0,1
 318 1500 318 1500 318 1365 c 0,2,3
 318 1143 318 1143 40 1028 c 1,4,-1
 40 1038 l 1,5,6
 147 1158 147 1158 147 1296 c 0,7,8
 147 1394 147 1394 55 1460 c 1,9,-1
 195 1600 l 1,0,1
EndSplineSet
Validated: 1
EndChar

StartChar: quotesinglbase
Encoding: 8218 8218 161
Width: 368
GlyphClass: 2
Flags: W
HStem: -292 572
VStem: 147 171<-112.368 95.0098>
LayerCount: 2
Fore
SplineSet
195 280 m 1,0,1
 318 180 318 180 318 45 c 0,2,3
 318 -177 318 -177 40 -292 c 1,4,-1
 40 -282 l 1,5,6
 147 -162 147 -162 147 -24 c 0,7,8
 147 74 147 74 55 140 c 1,9,-1
 195 280 l 1,0,1
EndSplineSet
Validated: 1
EndChar

StartChar: quotereversed
Encoding: 8219 8219 162
Width: 368
GlyphClass: 2
Flags: W
HStem: 1028 572
VStem: 50 171<1207.63 1415.01>
LayerCount: 2
Fore
SplineSet
173 1600 m 1,0,1
 313 1460 l 1,2,3
 221 1394 221 1394 221 1296 c 0,4,5
 221 1158 221 1158 328 1038 c 1,6,-1
 328 1028 l 1,7,8
 50 1143 50 1143 50 1365 c 0,9,10
 50 1500 50 1500 173 1600 c 1,0,1
EndSplineSet
Validated: 1
EndChar

StartChar: quotedblleft
Encoding: 8220 8220 163
Width: 673
GlyphClass: 2
Flags: W
HStem: 1028 572
VStem: 50 171<1212.99 1420.37> 355 171<1212.99 1420.37>
LayerCount: 2
Fore
SplineSet
328 1600 m 1,0,-1
 328 1590 l 1,1,2
 221 1470 221 1470 221 1332 c 0,3,4
 221 1234 221 1234 313 1168 c 1,5,-1
 173 1028 l 1,6,7
 50 1128 50 1128 50 1263 c 0,8,9
 50 1485 50 1485 328 1600 c 1,0,-1
633 1600 m 1,10,-1
 633 1590 l 1,11,12
 526 1470 526 1470 526 1332 c 0,13,14
 526 1234 526 1234 618 1168 c 1,15,-1
 478 1028 l 1,16,17
 355 1128 355 1128 355 1263 c 0,18,19
 355 1485 355 1485 633 1600 c 1,10,-1
EndSplineSet
Validated: 1
EndChar

StartChar: quotedblright
Encoding: 8221 8221 164
Width: 673
GlyphClass: 2
Flags: W
HStem: 1028 572
VStem: 147 171<1207.63 1415.01> 452 171<1207.63 1415.01>
LayerCount: 2
Fore
SplineSet
500 1600 m 1,0,1
 623 1500 623 1500 623 1365 c 0,2,3
 623 1143 623 1143 345 1028 c 1,4,-1
 345 1038 l 1,5,6
 452 1158 452 1158 452 1296 c 0,7,8
 452 1394 452 1394 360 1460 c 1,9,-1
 500 1600 l 1,0,1
195 1600 m 1,10,11
 318 1500 318 1500 318 1365 c 0,12,13
 318 1143 318 1143 40 1028 c 1,14,-1
 40 1038 l 1,15,16
 147 1158 147 1158 147 1296 c 0,17,18
 147 1394 147 1394 55 1460 c 1,19,-1
 195 1600 l 1,10,11
EndSplineSet
Validated: 1
EndChar

StartChar: quotedblbase
Encoding: 8222 8222 165
Width: 673
GlyphClass: 2
Flags: W
HStem: -292 572
VStem: 147 171<-112.368 95.0098> 452 171<-112.368 95.0098>
LayerCount: 2
Fore
SplineSet
500 280 m 1,0,1
 623 180 623 180 623 45 c 0,2,3
 623 -177 623 -177 345 -292 c 1,4,-1
 345 -282 l 1,5,6
 452 -162 452 -162 452 -24 c 0,7,8
 452 74 452 74 360 140 c 1,9,-1
 500 280 l 1,0,1
195 280 m 1,10,11
 318 180 318 180 318 45 c 0,12,13
 318 -177 318 -177 40 -292 c 1,14,-1
 40 -282 l 1,15,16
 147 -162 147 -162 147 -24 c 0,17,18
 147 74 147 74 55 140 c 1,19,-1
 195 280 l 1,10,11
EndSplineSet
Validated: 1
EndChar

StartChar: dagger
Encoding: 8224 8224 166
Width: 1132
GlyphClass: 2
Flags: W
HStem: 0 21G<486 646> 1054 80<150 486 646 982> 1490 20G<486 646>
VStem: 486 160<0 1054 1134 1510>
LayerCount: 2
Fore
SplineSet
486 0 m 1,0,-1
 486 1054 l 1,1,-1
 150 1054 l 1,2,-1
 150 1134 l 1,3,-1
 486 1134 l 1,4,-1
 486 1510 l 1,5,-1
 646 1510 l 1,6,-1
 646 1134 l 1,7,-1
 982 1134 l 1,8,-1
 982 1054 l 1,9,-1
 646 1054 l 1,10,-1
 646 0 l 1,11,-1
 486 0 l 1,0,-1
EndSplineSet
Validated: 1
EndChar

StartChar: daggerdbl
Encoding: 8225 8225 167
Width: 1132
GlyphClass: 2
Flags: W
HStem: 0 21G<486 646> 376 80<150 486 646 982> 1054 80<150 486 646 982> 1490 20G<486 646>
VStem: 486 160<0 376 456 1054 1134 1510>
LayerCount: 2
Fore
SplineSet
646 1510 m 1,0,-1
 646 1134 l 1,1,-1
 982 1134 l 1,2,-1
 982 1054 l 1,3,-1
 646 1054 l 1,4,-1
 646 456 l 1,5,-1
 982 456 l 1,6,-1
 982 376 l 1,7,-1
 646 376 l 1,8,-1
 646 0 l 1,9,-1
 486 0 l 1,10,-1
 486 376 l 1,11,-1
 150 376 l 1,12,-1
 150 456 l 1,13,-1
 486 456 l 1,14,-1
 486 1054 l 1,15,-1
 150 1054 l 1,16,-1
 150 1134 l 1,17,-1
 486 1134 l 1,18,-1
 486 1510 l 1,19,-1
 646 1510 l 1,0,-1
EndSplineSet
Validated: 1
EndChar

StartChar: bullet
Encoding: 8226 8226 168
Width: 900
GlyphClass: 2
Flags: W
HStem: 442 625<296.516 603.484>
VStem: 150 600<591.886 918.114>
LayerCount: 2
Fore
SplineSet
453 1067 m 0,0,1
 575 1067 575 1067 662 976 c 0,2,3
 750 884 750 884 750 755 c 128,-1,4
 750 626 750 626 662 534 c 128,-1,5
 574 442 574 442 450 442 c 256,6,7
 326 442 326 442 238 534 c 128,-1,8
 150 626 150 626 150 755 c 128,-1,9
 150 884 150 884 238 976 c 0,10,11
 325 1067 325 1067 453 1067 c 0,0,1
EndSplineSet
Validated: 1
EndChar

StartChar: ellipsis
Encoding: 8230 8230 169
Width: 1096
GlyphClass: 2
Flags: W
HStem: -20 264<89.1914 270.809 457.191 638.809 825.191 1006.81>
VStem: 50 260<19.7072 204.293> 418 260<19.7072 204.293> 786 260<19.7072 204.293>
CounterMasks: 1 70
LayerCount: 2
Fore
SplineSet
916 -20 m 128,-1,1
 862 -20 862 -20 824 18.5 c 128,-1,2
 786 57 786 57 786 112 c 128,-1,3
 786 167 786 167 824 205.5 c 128,-1,4
 862 244 862 244 916 244 c 128,-1,5
 970 244 970 244 1008 205.5 c 128,-1,6
 1046 167 1046 167 1046 112 c 128,-1,7
 1046 57 1046 57 1008 18.5 c 128,-1,0
 970 -20 970 -20 916 -20 c 128,-1,1
548 -20 m 128,-1,9
 494 -20 494 -20 456 18.5 c 128,-1,10
 418 57 418 57 418 112 c 128,-1,11
 418 167 418 167 456 205.5 c 128,-1,12
 494 244 494 244 548 244 c 128,-1,13
 602 244 602 244 640 205.5 c 128,-1,14
 678 167 678 167 678 112 c 128,-1,15
 678 57 678 57 640 18.5 c 128,-1,8
 602 -20 602 -20 548 -20 c 128,-1,9
180 -20 m 128,-1,17
 126 -20 126 -20 88 18.5 c 128,-1,18
 50 57 50 57 50 112 c 128,-1,19
 50 167 50 167 88 205.5 c 128,-1,20
 126 244 126 244 180 244 c 128,-1,21
 234 244 234 244 272 205.5 c 128,-1,22
 310 167 310 167 310 112 c 128,-1,23
 310 57 310 57 272 18.5 c 128,-1,16
 234 -20 234 -20 180 -20 c 128,-1,17
EndSplineSet
Validated: 1
EndChar

StartChar: perthousand
Encoding: 8240 8240 170
Width: 2276
GlyphClass: 2
Flags: W
HStem: -20 60<1046.66 1215.34 1729.66 1898.34> 554 60<1046.66 1215.34 1729.66 1898.34> 896 60<377.664 546.336> 1470 60<377.664 546.336>
VStem: 150 134<1047.05 1378.95> 640 134<1047.05 1378.95> 819 134<131.05 462.95> 1309 134<131.05 462.95> 1502 134<131.05 462.95> 1992 134<131.05 462.95>
DStem2: 365 45 501 -20 0.44214 0.896946<1.82948 1655.61>
LayerCount: 2
Fore
SplineSet
1814 554 m 128,-1,1
 1740 554 1740 554 1688 479.5 c 128,-1,2
 1636 405 1636 405 1636 297 c 128,-1,3
 1636 189 1636 189 1688 114.5 c 128,-1,4
 1740 40 1740 40 1814 40 c 128,-1,5
 1888 40 1888 40 1940 114.5 c 128,-1,6
 1992 189 1992 189 1992 297 c 128,-1,7
 1992 405 1992 405 1940 479.5 c 128,-1,0
 1888 554 1888 554 1814 554 c 128,-1,1
1814 -20 m 128,-1,9
 1684 -20 1684 -20 1593 72.5 c 128,-1,10
 1502 165 1502 165 1502 297 c 128,-1,11
 1502 429 1502 429 1593 521.5 c 128,-1,12
 1684 614 1684 614 1814 614 c 128,-1,13
 1944 614 1944 614 2035 521.5 c 128,-1,14
 2126 429 2126 429 2126 297 c 128,-1,15
 2126 165 2126 165 2035 72.5 c 128,-1,8
 1944 -20 1944 -20 1814 -20 c 128,-1,9
1131 554 m 128,-1,17
 1057 554 1057 554 1005 479.5 c 128,-1,18
 953 405 953 405 953 297 c 128,-1,19
 953 189 953 189 1005 114.5 c 128,-1,20
 1057 40 1057 40 1131 40 c 128,-1,21
 1205 40 1205 40 1257 114.5 c 128,-1,22
 1309 189 1309 189 1309 297 c 128,-1,23
 1309 405 1309 405 1257 479.5 c 128,-1,16
 1205 554 1205 554 1131 554 c 128,-1,17
1131 -20 m 128,-1,25
 1001 -20 1001 -20 910 72.5 c 128,-1,26
 819 165 819 165 819 297 c 128,-1,27
 819 429 819 429 910 521.5 c 128,-1,28
 1001 614 1001 614 1131 614 c 128,-1,29
 1261 614 1261 614 1352 521.5 c 128,-1,30
 1443 429 1443 429 1443 297 c 128,-1,31
 1443 165 1443 165 1352 72.5 c 128,-1,24
 1261 -20 1261 -20 1131 -20 c 128,-1,25
462 1470 m 128,-1,33
 388 1470 388 1470 336 1395.5 c 128,-1,34
 284 1321 284 1321 284 1213 c 128,-1,35
 284 1105 284 1105 336 1030.5 c 128,-1,36
 388 956 388 956 462 956 c 128,-1,37
 536 956 536 956 588 1030.5 c 128,-1,38
 640 1105 640 1105 640 1213 c 128,-1,39
 640 1321 640 1321 588 1395.5 c 128,-1,32
 536 1470 536 1470 462 1470 c 128,-1,33
462 1530 m 128,-1,41
 592 1530 592 1530 683 1437.5 c 128,-1,42
 774 1345 774 1345 774 1213 c 128,-1,43
 774 1081 774 1081 683 988.5 c 128,-1,44
 592 896 592 896 462 896 c 128,-1,45
 332 896 332 896 241 988.5 c 128,-1,46
 150 1081 150 1081 150 1213 c 128,-1,47
 150 1345 150 1345 241 1437.5 c 128,-1,40
 332 1530 332 1530 462 1530 c 128,-1,41
501 -20 m 1,48,-1
 365 45 l 1,49,-1
 1097 1530 l 1,50,-1
 1234 1467 l 1,51,-1
 501 -20 l 1,48,-1
EndSplineSet
Validated: 1
EndChar

StartChar: minute
Encoding: 8242 8242 171
Width: 421
GlyphClass: 2
Flags: W
HStem: 1156 394
VStem: 50 321
LayerCount: 2
Fore
SplineSet
187 1550 m 1,0,-1
 371 1550 l 1,1,-1
 158 1156 l 1,2,-1
 50 1156 l 1,3,-1
 187 1550 l 1,0,-1
EndSplineSet
Validated: 1
EndChar

StartChar: second
Encoding: 8243 8243 172
Width: 700
GlyphClass: 2
Flags: W
HStem: 1156 394
VStem: 50 600
LayerCount: 2
Fore
SplineSet
466 1550 m 1,0,-1
 650 1550 l 1,1,-1
 437 1156 l 1,2,-1
 329 1156 l 1,3,-1
 466 1550 l 1,0,-1
187 1550 m 1,4,-1
 371 1550 l 1,5,-1
 158 1156 l 1,6,-1
 50 1156 l 1,7,-1
 187 1550 l 1,4,-1
EndSplineSet
Validated: 1
EndChar

StartChar: guilsinglleft
Encoding: 8249 8249 173
Width: 853
GlyphClass: 2
Flags: W
VStem: 150 503
DStem2: 311 797 150 755 0.664677 -0.747131<0 512.724> 150 755 311 797 0.664677 0.747131<138.393 591.073>
LayerCount: 2
Fore
SplineSet
545 1199 m 1,0,-1
 611 1136 l 1,1,-1
 311 797 l 1,2,-1
 653 415 l 1,3,-1
 545 311 l 1,4,-1
 150 755 l 1,5,-1
 545 1199 l 1,0,-1
EndSplineSet
Validated: 1
EndChar

StartChar: guilsinglright
Encoding: 8250 8250 174
Width: 853
GlyphClass: 2
Flags: W
VStem: 200 503
DStem2: 308 1199 200 1095 0.664677 -0.747131<5.91647 518.64> 242 374 308 311 0.664677 0.747131<0 452.68>
LayerCount: 2
Fore
SplineSet
308 1199 m 1,0,-1
 703 755 l 1,1,-1
 308 311 l 1,2,-1
 242 374 l 1,3,-1
 542 713 l 1,4,-1
 200 1095 l 1,5,-1
 308 1199 l 1,0,-1
EndSplineSet
Validated: 1
EndChar

StartChar: fraction
Encoding: 8260 8260 175
Width: 889
GlyphClass: 2
Flags: W
HStem: -20 21G<104.154 155.859> 1510 20G<732.141 785.492>
DStem2: 10 45 146 -20 0.44214 0.896946<1.82948 1655.61>
LayerCount: 2
Fore
SplineSet
146 -20 m 1,0,-1
 10 45 l 1,1,-1
 742 1530 l 1,2,-1
 879 1467 l 1,3,-1
 146 -20 l 1,0,-1
EndSplineSet
Validated: 1
EndChar

StartChar: Euro
Encoding: 8364 8364 176
Width: 1743
GlyphClass: 2
Flags: W
HStem: -20 90<787.605 1228.22> 635 80<100 202 429 1124> 795 80<100 202 428 1124> 1450 80<759.926 1159.29>
VStem: 201 220<481.637 635 715 795 875 1040.94>
LayerCount: 2
Fore
SplineSet
954 -20 m 0,0,1
 602 -20 602 -20 390 218 c 0,2,3
 237 389 237 389 208 635 c 1,4,-1
 100 635 l 1,5,-1
 100 715 l 1,6,-1
 202 715 l 1,7,8
 201 735 201 735 201 756 c 0,9,10
 201 776 201 776 202 795 c 1,11,-1
 100 795 l 1,12,-1
 100 875 l 1,13,-1
 208 875 l 1,14,15
 237 1122 237 1122 390 1292 c 0,16,17
 605 1530 605 1530 954 1530 c 0,18,19
 1319 1530 1319 1530 1529 1278 c 1,20,-1
 1327 1080 l 1,21,-1
 1321 1086 l 1,22,23
 1330 1132 1330 1132 1330 1182 c 0,24,25
 1330 1247 1330 1247 1291 1304 c 0,26,27
 1191 1450 1191 1450 952 1450 c 0,28,29
 704 1450 704 1450 560 1240 c 0,30,31
 452 1082 452 1082 428 875 c 1,32,-1
 1124 875 l 1,33,-1
 1124 795 l 1,34,-1
 422 795 l 1,35,36
 421 775 421 775 421 755 c 128,-1,37
 421 735 421 735 422 715 c 1,38,-1
 1124 715 l 1,39,-1
 1124 635 l 1,40,-1
 429 635 l 1,41,42
 454 444 454 444 561 294 c 0,43,44
 721 70 721 70 1031 70 c 0,45,46
 1319 70 1319 70 1586 325 c 1,47,-1
 1593 319 l 1,48,49
 1374 -20 1374 -20 954 -20 c 0,0,1
EndSplineSet
Validated: 1
EndChar

StartChar: afii61248
Encoding: 8453 8453 177
Width: 2008
GlyphClass: 2
Flags: W
HStem: -20 51<1365.41 1559.84> 715 50<1363.37 1560.29> 747 56<459.772 704.141> 1480 50<448.426 646.797>
VStem: 150 151<954.269 1339.14> 1066 149<175.43 567.805> 1709 149<174.142 570.651>
DStem2: 563 45 699 -20 0.44214 0.896946<1.82948 1655.61>
LayerCount: 2
Fore
SplineSet
699 -20 m 1,0,-1
 563 45 l 1,1,-1
 1295 1530 l 1,2,-1
 1432 1467 l 1,3,-1
 699 -20 l 1,0,-1
554 1530 m 0,4,5
 745 1530 745 1530 855 1400 c 1,6,-1
 737 1286 l 1,7,-1
 728 1292 l 1,8,9
 731 1305 731 1305 731 1319 c 0,10,11
 731 1366 731 1366 696 1413 c 0,12,13
 646 1480 646 1480 545 1480 c 0,14,15
 438 1480 438 1480 370 1381 c 24,16,17
 301 1281 301 1281 301 1143 c 0,18,19
 301 1007 301 1007 375 905 c 128,-1,20
 449 803 449 803 580 803 c 0,21,22
 754 803 754 803 879 928 c 1,23,-1
 887 922 l 1,24,25
 770 747 770 747 546 747 c 0,26,27
 351 747 351 747 245 869 c 0,28,29
 150 977 150 977 150 1141 c 0,30,31
 150 1307 150 1307 245 1410 c 0,32,33
 355 1530 355 1530 554 1530 c 0,4,5
1464 31 m 128,-1,35
 1572 31 1572 31 1640 131 c 0,36,37
 1709 234 1709 234 1709 374 c 0,38,39
 1709 518 1709 518 1640 615 c 0,40,41
 1570 715 1570 715 1462 715 c 0,42,43
 1353 715 1353 715 1285 615 c 0,44,45
 1215 512 1215 512 1215 372 c 0,46,47
 1215 230 1215 230 1286 131 c 0,48,34
 1356 31 1356 31 1464 31 c 128,-1,35
1461 -20 m 0,49,50
 1270 -20 1270 -20 1161 102 c 0,51,52
 1066 209 1066 209 1066 373.5 c 128,-1,53
 1066 538 1066 538 1169.5 651.5 c 128,-1,54
 1273 765 1273 765 1464 765 c 0,55,56
 1656 765 1656 765 1764 643 c 0,57,58
 1858 537 1858 537 1858 372 c 0,59,60
 1858 208 1858 208 1764 102 c 0,61,62
 1654 -20 1654 -20 1461 -20 c 0,49,50
EndSplineSet
Validated: 1
EndChar

StartChar: afii61289
Encoding: 8467 8467 178
Width: 958
GlyphClass: 2
Flags: W
HStem: -20 136<458.002 574.715> 0 21G<50 263> 1510 20G<632 703>
VStem: 232 155<466 819.618> 655 153<1042.58 1357.48>
LayerCount: 2
Fore
SplineSet
387 466 m 1,0,1
 498 708 498 708 554 860 c 0,2,3
 655 1134 655 1134 655 1359 c 1,4,5
 563 1238 563 1238 503 1067 c 0,6,7
 387 740 387 740 387 466 c 1,0,1
50 0 m 1,8,9
 171 158 171 158 244 282 c 1,10,11
 232 366 232 366 232 443 c 0,12,13
 232 629 232 629 279 848 c 0,14,15
 367 1251 367 1251 517 1434 c 0,16,17
 595 1530 595 1530 669 1530 c 0,18,19
 737 1530 737 1530 772 1479 c 0,20,21
 808 1429 808 1429 808 1318 c 0,22,23
 808 1226 808 1226 778 1072 c 0,24,25
 708 722 708 722 422 271 c 1,26,27
 454 116 454 116 511 116 c 0,28,29
 535 116 535 116 562.5 145 c 128,-1,30
 590 174 590 174 616 228 c 1,31,-1
 792 228 l 1,32,33
 715 100 715 100 650.5 40 c 128,-1,34
 586 -20 586 -20 502 -20 c 0,35,36
 382 -20 382 -20 305 90 c 1,37,-1
 251 0 l 1,38,-1
 50 0 l 1,8,9
EndSplineSet
Validated: 1
EndChar

StartChar: trademark
Encoding: 8482 8482 179
Width: 1919
GlyphClass: 2
Flags: W
HStem: 785 10<1001 1008.76 1473 1482.18> 1430 120<100 137.295 635.74 674> 1499 51<137.295 318 458 635.74> 1540 10<771 785.297 1248 1263.69>
VStem: 100 10<1430 1442.33> 318 140<786 1499> 642 138<785 923> 664 10<1430 1442.33> 1619 150<871.967 1181.49>
DStem2: 642 785 780 785 0.269396 0.963029<37.1767 720.009> 1233 1197 1291 927 0.268999 0.96314<0 292.262>
LayerCount: 2
Fore
SplineSet
771 1550 m 1,0,-1
 994 1550 l 1,1,-1
 780 785 l 1,2,-1
 642 785 l 1,3,-1
 828 1450 l 2,4,5
 832 1464 832 1464 832 1480 c 0,6,7
 832 1524 832 1524 771 1540 c 1,8,-1
 771 1550 l 1,0,-1
1248 1550 m 1,9,-1
 1465 1550 l 1,10,-1
 1291 927 l 2,11,12
 1251 785 1251 785 1001 785 c 1,13,-1
 1001 795 l 1,14,15
 1147 843 1147 843 1147 1011 c 0,16,17
 1147 1249 1147 1249 989 1480 c 1,18,19
 996 1490 l 1,20,21
 1163 1357 1163 1357 1233 1197 c 1,22,-1
 1304 1450 l 2,23,24
 1308 1464 1308 1464 1308 1480 c 0,25,26
 1308 1526 1308 1526 1248 1540 c 1,27,-1
 1248 1550 l 1,9,-1
1473 785 m 1,28,-1
 1473 795 l 1,29,30
 1619 845 1619 845 1619 1011 c 0,31,32
 1619 1251 1619 1251 1460 1482 c 1,33,-1
 1467 1494 l 1,34,35
 1769 1228 1769 1228 1769 1011 c 0,36,37
 1769 785 1769 785 1473 785 c 1,28,-1
100 1550 m 1,38,-1
 674 1550 l 1,39,-1
 674 1430 l 1,40,-1
 664 1430 l 1,41,42
 641 1499 641 1499 560 1499 c 2,43,-1
 458 1499 l 1,44,-1
 458 786 l 1,45,-1
 318 786 l 1,46,-1
 318 1499 l 1,47,-1
 214 1499 l 2,48,49
 131 1499 131 1499 110 1430 c 1,50,-1
 100 1430 l 1,51,-1
 100 1550 l 1,38,-1
EndSplineSet
Validated: 1
EndChar

StartChar: uni2126
Encoding: 8486 8486 180
Width: 1906
GlyphClass: 2
Flags: W
HStem: 0 80<172.959 592 709.326 782 1124 1199.49 1314 1733.04> 1450 80<758.842 1147.16>
VStem: 100 10<207.183 220> 200 220<468.429 1041.57> 1486 220<467.929 1041.57> 1796 10<207.183 220>
LayerCount: 2
Fore
SplineSet
782 0 m 1,0,-1
 100 0 l 1,1,-1
 100 220 l 1,2,-1
 110 220 l 1,3,4
 157 80 157 80 290 80 c 2,5,-1
 592 80 l 1,6,7
 468 129 468 129 389 218 c 0,8,9
 200 430 200 430 200 755 c 128,-1,10
 200 1080 200 1080 389 1292 c 0,11,12
 602 1530 602 1530 953 1530 c 128,-1,13
 1304 1530 1304 1530 1517 1292 c 0,14,15
 1706 1080 1706 1080 1706 755 c 0,16,17
 1706 428 1706 428 1517 218 c 24,18,19
 1443 135 1443 135 1314 80 c 1,20,-1
 1616 80 l 2,21,22
 1749 80 1749 80 1796 220 c 1,23,-1
 1806 220 l 1,24,-1
 1806 0 l 1,25,-1
 1124 0 l 1,26,-1
 1124 80 l 1,27,28
 1249 127 1249 127 1347 270 c 24,29,30
 1486 473 1486 473 1486 755 c 128,-1,31
 1486 1037 1486 1037 1347 1240 c 0,32,33
 1203 1450 1203 1450 953 1450 c 128,-1,34
 703 1450 703 1450 559 1240 c 0,35,36
 420 1037 420 1037 420 755 c 128,-1,37
 420 473 420 473 559 270 c 24,38,39
 655 130 655 130 782 80 c 1,40,-1
 782 0 l 1,0,-1
EndSplineSet
Validated: 1
EndChar

StartChar: estimated
Encoding: 8494 8494 181
Width: 1330
GlyphClass: 2
Flags: W
HStem: -20 92<451.758 852.453> 525 80<348 983> 1036 84<468.183 852.399>
VStem: 100 248<309.991 525 605 788.181> 983 247<605 774.087>
LayerCount: 2
Fore
SplineSet
665 -20 m 0,0,1
 409 -20 409 -20 256 139 c 0,2,3
 100 301 100 301 100 550 c 0,4,5
 100 788 100 788 249 952 c 24,6,7
 402 1120 402 1120 666 1120 c 0,8,9
 915 1120 915 1120 1064 964 c 280,10,11
 1230 790 1230 790 1230 525 c 1,12,-1
 348 525 l 1,13,-1
 348 192 l 1,14,15
 459 72 459 72 666 72 c 256,16,17
 789 72 789 72 880 132 c 0,18,19
 962 186 962 186 1011 266 c 1,20,-1
 1104 204 l 1,21,22
 1032 113 1032 113 948 61 c 0,23,24
 817 -20 817 -20 665 -20 c 0,0,1
348 605 m 1,25,-1
 983 605 l 1,26,-1
 983 903 l 1,27,28
 852 1036 852 1036 666 1036 c 0,29,30
 475 1036 475 1036 348 914 c 1,31,-1
 348 605 l 1,25,-1
EndSplineSet
Validated: 1
EndChar

StartChar: partialdiff
Encoding: 8706 8706 182
Width: 1285
GlyphClass: 2
Flags: W
HStem: -20 153<399.379 663.581> 870 170<546.66 823.335> 1378 152<492 830.299>
VStem: 150 188<198.966 600.959> 952 183<930 1235.35>
LayerCount: 2
Fore
SplineSet
512 -20 m 0,0,1
 150 -20 150 -20 150 375 c 0,2,3
 150 631 150 631 286 815 c 0,4,5
 454 1040 454 1040 672 1040 c 0,6,7
 859 1040 859 1040 952 930 c 1,8,9
 952 1136 952 1136 907 1239 c 0,10,11
 846 1378 846 1378 678 1378 c 0,12,13
 547 1378 547 1378 420 1294 c 1,14,-1
 420 1468 l 1,15,16
 554 1530 554 1530 703 1530 c 0,17,18
 1135 1530 1135 1530 1135 934 c 0,19,20
 1135 545 1135 545 966.5 262.5 c 128,-1,21
 798 -20 798 -20 512 -20 c 0,0,1
525 133 m 0,22,23
 663 133 663 133 772.5 286 c 128,-1,24
 882 439 882 439 920 680 c 1,25,26
 898 765 898 765 834.5 817.5 c 128,-1,27
 771 870 771 870 695 870 c 0,28,29
 535 870 535 870 436.5 710 c 128,-1,30
 338 550 338 550 338 369 c 0,31,32
 338 133 338 133 525 133 c 0,22,23
EndSplineSet
Validated: 1
EndChar

StartChar: uni2206
Encoding: 8710 8710 183
Width: 1424
GlyphClass: 2
Flags: W
HStem: 0 80<133 1172>
DStem2: 5 0 133 80 0.416937 0.908935<126.083 1393.66> 726 1550 664 1231 0.408159 -0.912911<265.913 1524.02>
LayerCount: 2
Fore
SplineSet
5 0 m 1,0,-1
 716 1550 l 1,1,-1
 726 1550 l 1,2,-1
 1419 0 l 1,3,-1
 5 0 l 1,0,-1
133 80 m 1,4,-1
 1172 80 l 1,5,-1
 664 1231 l 1,6,-1
 133 80 l 1,4,-1
EndSplineSet
Validated: 1
EndChar

StartChar: product
Encoding: 8719 8719 184
Width: 1549
GlyphClass: 2
Flags: W
HStem: -410 10<1476.18 1489> 1430 80<400 1149> 1500 10<60 72.8174>
VStem: 200 200<-410 1428.67> 1149 200<-342.414 1430>
LayerCount: 2
Fore
SplineSet
200 -410 m 1,0,-1
 200 1320 l 2,1,2
 200 1453 200 1453 60 1500 c 1,3,-1
 60 1510 l 1,4,-1
 1349 1510 l 1,5,-1
 1349 -220 l 2,6,7
 1349 -353 1349 -353 1489 -400 c 1,8,-1
 1489 -410 l 1,9,-1
 1149 -410 l 1,10,-1
 1149 1430 l 1,11,-1
 400 1430 l 1,12,-1
 400 -410 l 1,13,-1
 200 -410 l 1,0,-1
EndSplineSet
Validated: 1
EndChar

StartChar: summation
Encoding: 8721 8721 185
Width: 1324
GlyphClass: 2
Flags: W
HStem: -410 80<380 1101.04> 1430 80<363 1010.04>
VStem: 1073 10<1290 1302.82> 1164 10<-202.817 -190>
DStem2: 363 1430 100 1510 0.446838 -0.894615<0 876.175>
LayerCount: 2
Fore
SplineSet
138 -410 m 1,0,-1
 576 557 l 1,1,-1
 100 1510 l 1,2,-1
 1083 1510 l 1,3,-1
 1083 1290 l 1,4,-1
 1073 1290 l 1,5,6
 1026 1430 1026 1430 893 1430 c 2,7,-1
 363 1430 l 1,8,-1
 805 564 l 1,9,-1
 380 -330 l 1,10,-1
 984 -330 l 2,11,12
 1117 -330 1117 -330 1164 -190 c 1,13,-1
 1174 -190 l 1,14,-1
 1174 -410 l 1,15,-1
 138 -410 l 1,0,-1
EndSplineSet
Validated: 1
EndChar

StartChar: minus
Encoding: 8722 8722 186
Width: 1133
GlyphClass: 2
Flags: W
HStem: 680 150<150 983>
LayerCount: 2
Fore
SplineSet
150 830 m 1,0,-1
 983 830 l 1,1,-1
 983 680 l 1,2,-1
 150 680 l 1,3,-1
 150 830 l 1,0,-1
EndSplineSet
Validated: 1
EndChar

StartChar: uni2215
Encoding: 8725 8725 187
Width: 889
GlyphClass: 2
Flags: W
HStem: -20 21G<104.154 155.859> 1510 20G<732.141 785.492>
DStem2: 10 45 146 -20 0.44214 0.896946<1.82948 1655.61>
LayerCount: 2
Fore
SplineSet
146 -20 m 1,0,-1
 10 45 l 1,1,-1
 742 1530 l 1,2,-1
 879 1467 l 1,3,-1
 146 -20 l 1,0,-1
EndSplineSet
Validated: 1
EndChar

StartChar: uni2219
Encoding: 8729 8729 188
Width: 360
GlyphClass: 2
Flags: W
HStem: 623 264<89.1914 270.809>
VStem: 50 260<662.707 847.293>
LayerCount: 2
Fore
SplineSet
180 887 m 128,-1,1
 234 887 234 887 272 848.5 c 128,-1,2
 310 810 310 810 310 755 c 128,-1,3
 310 700 310 700 272 661.5 c 128,-1,4
 234 623 234 623 180 623 c 128,-1,5
 126 623 126 623 88 661.5 c 128,-1,6
 50 700 50 700 50 755 c 128,-1,7
 50 810 50 810 88 848.5 c 128,-1,0
 126 887 126 887 180 887 c 128,-1,1
EndSplineSet
Validated: 1
EndChar

StartChar: radical
Encoding: 8730 8730 189
Width: 1234
GlyphClass: 2
Flags: W
HStem: 0 21G<429.157 465.965> 712 80<100 227> 1430 80<957 1134>
DStem2: 389 792 227 712 0.280414 -0.959879<31.3632 428.958> 505 379 459 0 0.328879 0.944372<0 1141.19>
LayerCount: 2
Fore
SplineSet
435 0 m 1,0,-1
 227 712 l 1,1,-1
 100 712 l 1,2,-1
 100 792 l 1,3,-1
 389 792 l 1,4,-1
 505 379 l 1,5,-1
 889 1510 l 1,6,-1
 1134 1510 l 1,7,-1
 1134 1430 l 1,8,-1
 957 1430 l 1,9,-1
 459 0 l 1,10,-1
 435 0 l 1,0,-1
EndSplineSet
Validated: 1
EndChar

StartChar: infinity
Encoding: 8734 8734 190
Width: 1386
GlyphClass: 2
Flags: W
HStem: 441 142<287.673 524.668> 441 72<833.813 1060.94> 927 142<860.479 1098.33> 997 72<325.063 552.187>
VStem: 150 80<645.636 901.888> 1156 80<608.112 864.364>
DStem2: 590 719 739 667 0.419058 0.907959<-146.982 303.385>
LayerCount: 2
Fore
SplineSet
429 1069 m 0,0,1
 566 1069 566 1069 621 947 c 1,2,-1
 616 940 l 1,3,4
 534 997 534 997 441 997 c 128,-1,5
 348 997 348 997 289 929 c 128,-1,6
 230 861 230 861 230 757 c 0,7,8
 230 682 230 682 284 629 c 0,9,10
 332 583 332 583 409 583 c 0,11,12
 527 583 527 583 590 719 c 2,13,-1
 647 843 l 2,14,15
 751 1069 751 1069 931 1069 c 0,16,17
 1066 1069 1066 1069 1148 985 c 0,18,19
 1236 894 1236 894 1236 753 c 0,20,21
 1236 620 1236 620 1148 525 c 0,22,23
 1069 441 1069 441 957 441 c 0,24,25
 820 441 820 441 765 563 c 1,26,-1
 770 570 l 1,27,28
 852 513 852 513 945 513 c 128,-1,29
 1038 513 1038 513 1097 581 c 128,-1,30
 1156 649 1156 649 1156 753 c 0,31,32
 1156 828 1156 828 1102 881 c 0,33,34
 1054 927 1054 927 977 927 c 0,35,36
 859 927 859 927 799 797 c 2,37,-1
 739 667 l 2,38,39
 635 441 635 441 455 441 c 0,40,41
 320 441 320 441 238 525 c 0,42,43
 150 616 150 616 150 757 c 0,44,45
 150 890 150 890 238 985 c 0,46,47
 317 1069 317 1069 429 1069 c 0,0,1
EndSplineSet
Validated: 1
EndChar

StartChar: approxequal
Encoding: 8776 8776 191
Width: 1183
GlyphClass: 2
Flags: W
HStem: 413 151<694.15 906.769> 576 151<274.621 490.796> 773 151<694.15 906.769> 936 151<274.621 490.796>
VStem: 150 71<413 502.419 773 862.419> 962 71<637.253 728 997.253 1088>
DStem2: 743 944 440 917 0.892036 -0.451965<-335.161 78.448> 743 584 440 557 0.892036 -0.451965<-335.161 78.448>
LayerCount: 2
Fore
SplineSet
962 728 m 1,0,-1
 1033 728 l 1,1,2
 979 413 979 413 803 413 c 0,3,4
 724 413 724 413 659 446 c 2,5,-1
 440 557 l 2,6,7
 401 576 401 576 362 576 c 0,8,9
 263 576 263 576 221 413 c 1,10,-1
 150 413 l 1,11,12
 204 727 204 727 392 727 c 0,13,14
 460 727 460 727 518 698 c 2,15,-1
 743 584 l 2,16,17
 784 564 784 564 822 564 c 0,18,19
 920 564 920 564 962 728 c 1,0,-1
962 1088 m 1,20,-1
 1033 1088 l 1,21,22
 979 773 979 773 803 773 c 0,23,24
 724 773 724 773 659 806 c 2,25,-1
 440 917 l 2,26,27
 401 936 401 936 362 936 c 0,28,29
 263 936 263 936 221 773 c 1,30,-1
 150 773 l 1,31,32
 204 1087 204 1087 392 1087 c 0,33,34
 460 1087 460 1087 518 1058 c 2,35,-1
 743 944 l 2,36,37
 784 924 784 924 822 924 c 0,38,39
 920 924 920 924 962 1088 c 1,20,-1
EndSplineSet
Validated: 1
EndChar

StartChar: notequal
Encoding: 8800 8800 192
Width: 1133
GlyphClass: 2
Flags: W
HStem: 500 150<150 373 552 983> 860 150<150 581 760 983>
DStem2: 249 284 318 244 0.499366 0.866391<0 249.062 468.407 664.831 884.176 1133.24>
LayerCount: 2
Fore
SplineSet
150 1010 m 1,0,-1
 667 1010 l 1,1,-1
 815 1266 l 1,2,-1
 884 1226 l 1,3,-1
 760 1010 l 1,4,-1
 983 1010 l 1,5,-1
 983 860 l 1,6,-1
 673 860 l 1,7,-1
 552 650 l 1,8,-1
 983 650 l 1,9,-1
 983 500 l 1,10,-1
 466 500 l 1,11,-1
 318 244 l 1,12,-1
 249 284 l 1,13,-1
 373 500 l 1,14,-1
 150 500 l 1,15,-1
 150 650 l 1,16,-1
 460 650 l 1,17,-1
 581 860 l 1,18,-1
 150 860 l 1,19,-1
 150 1010 l 1,0,-1
EndSplineSet
Validated: 1
EndChar

StartChar: lessequal
Encoding: 8804 8804 193
Width: 1183
GlyphClass: 2
Flags: W
HStem: 154 150<150 983>
DStem2: 150 958 259 918 0.866109 0.499855<74.4117 865.505> 259 918 150 808 0.855375 -0.51801<0 799.636>
LayerCount: 2
Fore
SplineSet
150 304 m 1,0,-1
 983 304 l 1,1,-1
 983 154 l 1,2,-1
 150 154 l 1,3,-1
 150 304 l 1,0,-1
150 958 m 1,4,-1
 902 1392 l 1,5,-1
 945 1312 l 1,6,-1
 259 918 l 1,7,-1
 945 502 l 1,8,-1
 865 375 l 1,9,-1
 150 808 l 1,10,-1
 150 958 l 1,4,-1
EndSplineSet
Validated: 1
EndChar

StartChar: greaterequal
Encoding: 8805 8805 194
Width: 1183
GlyphClass: 2
Flags: W
HStem: 154 150<200 1033>
DStem2: 318 1392 238 1265 0.855375 -0.51801<0 799.636> 238 455 281 375 0.866109 0.499855<0 791.094>
LayerCount: 2
Fore
SplineSet
200 304 m 1,0,-1
 1033 304 l 1,1,-1
 1033 154 l 1,2,-1
 200 154 l 1,3,-1
 200 304 l 1,0,-1
1033 809 m 1,4,-1
 281 375 l 1,5,-1
 238 455 l 1,6,-1
 924 849 l 1,7,-1
 238 1265 l 1,8,-1
 318 1392 l 1,9,-1
 1033 959 l 1,10,-1
 1033 809 l 1,4,-1
EndSplineSet
Validated: 1
EndChar

StartChar: lozenge
Encoding: 9674 9674 195
Width: 1134
GlyphClass: 2
Flags: W
HStem: -20 21G<554.678 579.273> 1510 20G<555.207 578.838>
DStem2: 100 738 252 835 0.507923 0.861403<160.76 661.037> 252 835 100 738 0.524536 -0.851388<2.85518 722.008> 567 1530 506 1266 0.509354 -0.860557<196.117 916.848> 627 218 567 -20 0.523035 0.852311<0 492.332>
LayerCount: 2
Fore
SplineSet
627 218 m 1,0,-1
 879 641 l 1,1,-1
 506 1266 l 1,2,-1
 252 835 l 1,3,-1
 627 218 l 1,0,-1
567 -20 m 1,4,-1
 100 738 l 1,5,-1
 567 1530 l 1,6,-1
 1034 741 l 1,7,-1
 567 -20 l 1,4,-1
EndSplineSet
Validated: 1
EndChar

StartChar: AEacute
Encoding: 508 508 196
Width: 2493
Flags: W
HStem: -20 90<1584.98 2028.22> 0 10<941 951.015> 715 80<548 1073 1423 1994> 1450 80<1559.93 1959.04> 1500 10<466 477.169>
VStem: 1264 220<227.232 669.485>
DStem2: 5 0 205 0 0.395387 0.918515<79.0774 857.199 944.914 1497.34>
LayerCount: 2
Fore
SplineSet
1508 1934 m 1,0,1
 1636 1807 l 1,2,3
 1452 1737 1452 1737 1319 1560 c 1,4,-1
 1309 1560 l 1,5,6
 1328 1807 1328 1807 1508 1934 c 1,0,1
5 0 m 1,7,-1
 574 1322 l 2,8,9
 588 1355 588 1355 588 1380 c 0,10,11
 588 1458 588 1458 466 1500 c 1,12,-1
 466 1510 l 1,13,-1
 855 1510 l 1,14,-1
 548 795 l 1,15,-1
 1073 795 l 1,16,-1
 1073 715 l 1,17,-1
 512 715 l 1,18,-1
 205 0 l 1,19,-1
 5 0 l 1,7,-1
862 1386 m 1,20,-1
 868 1394 l 1,21,22
 999 1280 999 1280 1103 1172 c 1,23,24
 1140 1236 1140 1236 1190 1292 c 0,25,26
 1405 1530 1405 1530 1754 1530 c 0,27,28
 2119 1530 2119 1530 2329 1278 c 1,29,-1
 2127 1080 l 1,30,-1
 2121 1086 l 1,31,32
 2130 1132 2130 1132 2130 1182 c 0,33,34
 2130 1247 2130 1247 2091 1304 c 0,35,36
 1990 1450 1990 1450 1752 1450 c 0,37,38
 1504 1450 1504 1450 1360 1240 c 0,39,40
 1286 1132 1286 1132 1251 999 c 1,41,42
 1332 894 1332 894 1385 795 c 1,43,-1
 1994 795 l 1,44,-1
 1994 715 l 1,45,-1
 1423 715 l 1,46,47
 1484 572 1484 572 1484 440 c 0,48,49
 1484 305 1484 305 1433 212 c 1,50,51
 1585 70 1585 70 1831 70 c 0,52,53
 2119 70 2119 70 2386 325 c 1,54,-1
 2393 319 l 1,55,56
 2174 -20 2174 -20 1754 -20 c 0,57,58
 1508 -20 1508 -20 1330 96 c 1,59,60
 1195 0 1195 0 941 0 c 1,61,-1
 941 10 l 1,62,63
 1264 106 1264 106 1264 440 c 0,64,65
 1264 843 1264 843 862 1386 c 1,20,-1
EndSplineSet
Validated: 1
EndChar

StartChar: aeacute
Encoding: 509 509 197
Width: 1802
Flags: W
HStem: -20 80<1124.66 1463.46> 0 10<730.906 740> 515 70<1068 1411> 1030 70<551.25 888> 1051 69<1111.31 1405.45> 1504 20G<1093 1203.16>
VStem: 100 200<336.097 773.062> 888 180<105.776 515 585 1017.02>
LayerCount: 2
Fore
SplineSet
1183 1524 m 1,0,1
 1311 1397 l 1,2,3
 1127 1327 1127 1327 994 1150 c 1,4,-1
 984 1150 l 1,5,6
 1003 1397 1003 1397 1183 1524 c 1,0,1
888 0 m 1,7,-1
 888 1030 l 1,8,-1
 728 1030 l 2,9,10
 531 1030 531 1030 415 897 c 0,11,12
 300 765 300 765 300 550 c 0,13,14
 300 362 300 362 421 210 c 0,15,16
 522 82 522 82 740 10 c 1,17,-1
 740 0 l 1,18,19
 448 0 448 0 281 140 c 0,20,21
 100 292 100 292 100 550 c 0,22,23
 100 798 100 798 281 960 c 0,24,25
 436 1100 436 1100 708 1100 c 2,26,-1
 1098 1100 l 1,27,28
 1171 1120 1171 1120 1255 1120 c 0,29,30
 1513 1120 1513 1120 1670 926 c 1,31,-1
 1516 773 l 1,32,-1
 1509 779 l 1,33,34
 1519 811 1519 811 1519 846 c 0,35,36
 1519 893 1519 893 1498 928 c 0,37,38
 1425 1051 1425 1051 1255 1051 c 0,39,40
 1144 1051 1144 1051 1068 988 c 1,41,-1
 1068 585 l 1,42,-1
 1411 585 l 1,43,-1
 1411 515 l 1,44,-1
 1068 515 l 1,45,-1
 1068 135 l 17,46,47
 1166 60 1166 60 1299 60 c 0,48,49
 1515 60 1515 60 1694 224 c 1,50,-1
 1702 218 l 1,51,52
 1537 -20 1537 -20 1255 -20 c 0,53,54
 1171 -20 1171 -20 1098 -0 c 1,55,-1
 888 0 l 1,7,-1
EndSplineSet
Validated: 1
EndChar

StartChar: Oslashacute
Encoding: 510 510 198
Width: 1706
Flags: W
HStem: -20 80<656.881 1047.16> -5 21G<425.5 471.746> 1450 80<658.842 1048.89> 1495 20G<1234.25 1280.5>
VStem: 100 220<468.429 1041.57> 1386 220<468.429 1041.57>
DStem2: 391 35 460 -5 0.500229 0.865893<0 76.2031 213.715 1495.38 1632.89 1709.1>
LayerCount: 2
Fore
SplineSet
1044 1934 m 1,0,1
 1172 1807 l 1,2,3
 988 1737 988 1737 855 1560 c 1,4,-1
 845 1560 l 1,5,6
 864 1807 864 1807 1044 1934 c 1,0,1
853 -20 m 0,7,8
 652 -20 652 -20 497 58 c 1,9,-1
 460 -5 l 1,10,-1
 391 35 l 1,11,-1
 427 98 l 1,12,13
 352 148 352 148 289 218 c 0,14,15
 100 430 100 430 100 755 c 128,-1,16
 100 1080 100 1080 289 1292 c 0,17,18
 502 1530 502 1530 853 1530 c 0,19,20
 1054 1530 1054 1530 1209 1452 c 1,21,-1
 1246 1515 l 1,22,-1
 1315 1475 l 1,23,-1
 1279 1412 l 1,24,25
 1354 1362 1354 1362 1417 1292 c 0,26,27
 1606 1080 1606 1080 1606 755 c 128,-1,28
 1606 430 1606 430 1417 218 c 0,29,30
 1204 -20 1204 -20 853 -20 c 0,7,8
853 60 m 0,31,32
 1103 60 1103 60 1247 270 c 0,33,34
 1386 473 1386 473 1386 755 c 128,-1,35
 1386 1037 1386 1037 1247 1240 c 0,36,37
 1229 1267 1229 1267 1208 1290 c 1,38,-1
 557 162 l 1,39,40
 679 60 679 60 853 60 c 0,31,32
498 220 m 1,41,-1
 1149 1348 l 1,42,43
 1026 1450 1026 1450 853 1450 c 0,44,45
 603 1450 603 1450 459 1240 c 0,46,47
 320 1037 320 1037 320 755 c 128,-1,48
 320 473 320 473 459 270 c 0,49,50
 478 243 478 243 498 220 c 1,41,-1
EndSplineSet
Validated: 1
EndChar

StartChar: oslashacute
Encoding: 511 511 199
Width: 1276
Flags: W
HStem: -20 69<494.031 782.483> 1051 69<493.517 781.744> 1504 20G<742 852.157>
VStem: 100 200<309.986 791.208> 976 200<308.792 789.776>
DStem2: 283 5 343 -30 0.500278 0.865865<0 80.9716 207.885 1091.11 1218.02 1298.99>
LayerCount: 2
Fore
SplineSet
832 1524 m 1,0,1
 960 1397 l 1,2,3
 776 1327 776 1327 643 1150 c 1,4,-1
 633 1150 l 1,5,6
 652 1397 652 1397 832 1524 c 1,0,1
638 -20 m 0,7,8
 494 -20 494 -20 383 38 c 1,9,-1
 343 -30 l 1,10,-1
 283 5 l 1,11,-1
 323 75 l 1,12,13
 272 112 272 112 230 164 c 0,14,15
 100 322 100 322 100 550 c 128,-1,16
 100 778 100 778 230 936 c 0,17,18
 381 1120 381 1120 638 1120 c 0,19,20
 782 1120 782 1120 893 1062 c 1,21,-1
 933 1130 l 1,22,-1
 993 1095 l 1,23,-1
 953 1025 l 1,24,25
 1004 988 1004 988 1046 936 c 0,26,27
 1176 778 1176 778 1176 550 c 128,-1,28
 1176 322 1176 322 1046 164 c 0,29,30
 895 -20 895 -20 638 -20 c 0,7,8
889 915 m 1,31,-1
 434 126 l 1,32,33
 513 49 513 49 638 49 c 0,34,35
 809 49 809 49 895 194 c 0,36,37
 976 330 976 330 976 550 c 0,38,39
 976 768 976 768 889 915 c 1,31,-1
387 185 m 1,40,-1
 842 974 l 1,41,42
 762 1051 762 1051 638 1051 c 0,43,44
 467 1051 467 1051 381 906 c 0,45,46
 300 770 300 770 300 550 c 0,47,48
 300 331 300 331 387 185 c 1,40,-1
EndSplineSet
Validated: 1
EndChar

StartChar: uni1E02
Encoding: 7682 7682 200
Width: 1318
Flags: W
HStem: 0 10<580 589.715> 936 80<537 701.38> 1430 80<400 700.817> 1500 10<60 72.8174> 1610 264<459.191 640.809>
VStem: 200 200<0 1428.67> 420 260<1649.71 1834.29> 796 171<1115.98 1352.13> 998 220<309.113 720.402>
LayerCount: 2
Fore
SplineSet
550 1874 m 128,-1,1
 604 1874 604 1874 642 1835.5 c 128,-1,2
 680 1797 680 1797 680 1742 c 128,-1,3
 680 1687 680 1687 642 1648.5 c 128,-1,4
 604 1610 604 1610 550 1610 c 128,-1,5
 496 1610 496 1610 458 1648.5 c 128,-1,6
 420 1687 420 1687 420 1742 c 128,-1,7
 420 1797 420 1797 458 1835.5 c 128,-1,0
 496 1874 496 1874 550 1874 c 128,-1,1
200 0 m 1,8,-1
 200 1320 l 2,9,10
 200 1453 200 1453 60 1500 c 1,11,-1
 60 1510 l 1,12,-1
 581 1510 l 2,13,14
 779 1510 779 1510 883 1425 c 0,15,16
 967 1356 967 1356 967 1249 c 0,17,18
 967 1162 967 1162 906 1097 c 0,19,20
 824 1010 824 1010 680 986 c 1,21,22
 961 986 961 986 1097 846 c 0,23,24
 1218 721 1218 721 1218 514 c 0,25,26
 1218 303 1218 303 1062 158 c 0,27,28
 892 0 892 0 580 0 c 1,29,-1
 580 10 l 1,30,31
 802 70 802 70 896 192 c 0,32,33
 998 326 998 326 998 514 c 0,34,35
 998 670 998 670 920 776 c 0,36,37
 802 936 802 936 537 936 c 1,38,-1
 537 1016 l 1,39,40
 659 1016 659 1016 738 1089 c 0,41,42
 796 1143 796 1143 796 1232 c 0,43,44
 796 1325 796 1325 725 1377 c 0,45,46
 654 1430 654 1430 536 1430 c 2,47,-1
 400 1430 l 1,48,-1
 400 0 l 1,49,-1
 200 0 l 1,8,-1
EndSplineSet
Validated: 1
EndChar

StartChar: uni1E03
Encoding: 7683 7683 201
Width: 1268
Flags: W
HStem: 0 70<380 716.75> 1090 10<528 537.094> 1200 264<583.191 764.809> 1500 10<60 72.8174>
VStem: 200 180<70 1442.41> 544 260<1239.71 1424.29> 968 200<326.938 763.903>
LayerCount: 2
Fore
SplineSet
674 1464 m 128,-1,1
 728 1464 728 1464 766 1425.5 c 128,-1,2
 804 1387 804 1387 804 1332 c 128,-1,3
 804 1277 804 1277 766 1238.5 c 128,-1,4
 728 1200 728 1200 674 1200 c 128,-1,5
 620 1200 620 1200 582 1238.5 c 128,-1,6
 544 1277 544 1277 544 1332 c 128,-1,7
 544 1387 544 1387 582 1425.5 c 128,-1,0
 620 1464 620 1464 674 1464 c 128,-1,1
200 0 m 1,8,-1
 200 1320 l 2,9,10
 200 1453 200 1453 60 1500 c 1,11,-1
 60 1510 l 1,12,-1
 380 1510 l 1,13,-1
 380 70 l 1,14,-1
 540 70 l 2,15,16
 737 70 737 70 853 203 c 0,17,18
 968 335 968 335 968 550 c 0,19,20
 968 738 968 738 847 890 c 0,21,22
 746 1018 746 1018 528 1090 c 9,23,-1
 528 1100 l 17,24,25
 820 1100 820 1100 987 960 c 0,26,27
 1168 808 1168 808 1168 550 c 0,28,29
 1168 302 1168 302 987 140 c 0,30,31
 832 0 832 0 560 0 c 2,32,-1
 200 0 l 1,8,-1
EndSplineSet
Validated: 1
EndChar

StartChar: uni1E0A
Encoding: 7690 7690 202
Width: 1586
Flags: W
HStem: 0 10<580 594.845> 1430 80<400 894.41> 1500 10<60 72.8174> 1610 264<596.191 777.809>
VStem: 200 200<0 1428.67> 557 260<1649.71 1834.29> 1266 220<501.01 1039.83>
LayerCount: 2
Fore
SplineSet
687 1874 m 128,-1,1
 741 1874 741 1874 779 1835.5 c 128,-1,2
 817 1797 817 1797 817 1742 c 128,-1,3
 817 1687 817 1687 779 1648.5 c 128,-1,4
 741 1610 741 1610 687 1610 c 128,-1,5
 633 1610 633 1610 595 1648.5 c 128,-1,6
 557 1687 557 1687 557 1742 c 128,-1,7
 557 1797 557 1797 595 1835.5 c 128,-1,0
 633 1874 633 1874 687 1874 c 128,-1,1
200 0 m 1,8,-1
 200 1320 l 2,9,10
 200 1453 200 1453 60 1500 c 1,11,-1
 60 1510 l 1,12,-1
 716 1510 l 2,13,14
 1103 1510 1103 1510 1308 1273 c 0,15,16
 1486 1066 1486 1066 1486 755 c 0,17,18
 1486 467 1486 467 1284 248 c 0,19,20
 1057 0 1057 0 580 0 c 1,21,-1
 580 10 l 1,22,23
 970 86 970 86 1122 301 c 0,24,25
 1266 504 1266 504 1266 755 c 0,26,27
 1266 1063 1266 1063 1105 1247 c 0,28,29
 945 1430 945 1430 666 1430 c 2,30,-1
 400 1430 l 1,31,-1
 400 0 l 1,32,-1
 200 0 l 1,8,-1
EndSplineSet
Validated: 1
EndChar

StartChar: uni1E0B
Encoding: 7691 7691 203
Width: 1268
Flags: W
HStem: 0 70<551.25 888> 0 10<1195.18 1208> 1090 10<730.906 740> 1200 264<483.191 664.809> 1500 10<748 760.817>
VStem: 100 200<326.938 763.903> 444 260<1239.71 1424.29> 888 180<70.2515 1442.41>
LayerCount: 2
Fore
SplineSet
574 1464 m 128,-1,1
 628 1464 628 1464 666 1425.5 c 128,-1,2
 704 1387 704 1387 704 1332 c 128,-1,3
 704 1277 704 1277 666 1238.5 c 128,-1,4
 628 1200 628 1200 574 1200 c 128,-1,5
 520 1200 520 1200 482 1238.5 c 128,-1,6
 444 1277 444 1277 444 1332 c 128,-1,7
 444 1387 444 1387 482 1425.5 c 128,-1,0
 520 1464 520 1464 574 1464 c 128,-1,1
1208 0 m 1,8,-1
 708 0 l 2,9,10
 436 0 436 0 281 140 c 0,11,12
 100 302 100 302 100 550 c 0,13,14
 100 808 100 808 281 960 c 0,15,16
 448 1100 448 1100 740 1100 c 9,17,-1
 740 1090 l 17,18,19
 522 1018 522 1018 421 890 c 0,20,21
 300 738 300 738 300 550 c 0,22,23
 300 335 300 335 415 203 c 0,24,25
 531 70 531 70 728 70 c 2,26,-1
 888 70 l 1,27,-1
 888 1320 l 10,28,29
 888 1453 888 1453 748 1500 c 1,30,-1
 748 1510 l 1,31,-1
 1068 1510 l 1,32,-1
 1068 190 l 10,33,34
 1068 57 1068 57 1208 10 c 1,35,-1
 1208 0 l 1,8,-1
EndSplineSet
Validated: 1
EndChar

StartChar: uni1E1E
Encoding: 7710 7710 204
Width: 998
Flags: W
HStem: 0 21G<200 400> 715 80<400 792> 1430 80<400 905.041> 1500 10<60 72.8174> 1610 264<459.191 640.809>
VStem: 200 200<0 715 795 1428.67> 420 260<1649.71 1834.29> 968 10<1290 1302.82>
LayerCount: 2
Fore
SplineSet
550 1874 m 128,-1,1
 604 1874 604 1874 642 1835.5 c 128,-1,2
 680 1797 680 1797 680 1742 c 128,-1,3
 680 1687 680 1687 642 1648.5 c 128,-1,4
 604 1610 604 1610 550 1610 c 128,-1,5
 496 1610 496 1610 458 1648.5 c 128,-1,6
 420 1687 420 1687 420 1742 c 128,-1,7
 420 1797 420 1797 458 1835.5 c 128,-1,0
 496 1874 496 1874 550 1874 c 128,-1,1
200 0 m 1,8,-1
 200 1320 l 2,9,10
 200 1453 200 1453 60 1500 c 1,11,-1
 60 1510 l 1,12,-1
 978 1510 l 17,13,-1
 978 1290 l 1,14,-1
 968 1290 l 1,15,16
 921 1430 921 1430 788 1430 c 2,17,-1
 400 1430 l 1,18,-1
 400 795 l 1,19,-1
 792 795 l 1,20,-1
 792 715 l 1,21,-1
 400 715 l 1,22,-1
 400 0 l 1,23,-1
 200 0 l 1,8,-1
EndSplineSet
Validated: 1
EndChar

StartChar: uni1E1F
Encoding: 7711 7711 205
Width: 1163
Flags: W
HStem: 0 21G<200 380> 690 70<380 872> 1461 69<589.043 888.455> 1610 264<539.191 720.809>
VStem: 200 180<0 690 760 1200.23> 500 260<1649.71 1834.29>
LayerCount: 2
Fore
SplineSet
630 1874 m 128,-1,1
 684 1874 684 1874 722 1835.5 c 128,-1,2
 760 1797 760 1797 760 1742 c 128,-1,3
 760 1687 760 1687 722 1648.5 c 128,-1,4
 684 1610 684 1610 630 1610 c 128,-1,5
 576 1610 576 1610 538 1648.5 c 128,-1,6
 500 1687 500 1687 500 1742 c 128,-1,7
 500 1797 500 1797 538 1835.5 c 128,-1,0
 576 1874 576 1874 630 1874 c 128,-1,1
200 0 m 1,8,-1
 200 960 l 2,9,10
 200 1188 200 1188 330 1346 c 0,11,12
 483 1530 483 1530 738 1530 c 0,13,14
 996 1530 996 1530 1153 1336 c 1,15,-1
 999 1183 l 1,16,-1
 992 1189 l 1,17,18
 1002 1221 1002 1221 1002 1256 c 0,19,20
 1002 1303 1002 1303 981 1338 c 0,21,22
 908 1461 908 1461 738 1461 c 0,23,24
 571 1461 571 1461 478 1329 c 0,25,26
 380 1192 380 1192 380 960 c 2,27,-1
 380 760 l 1,28,-1
 872 760 l 1,29,-1
 872 690 l 1,30,-1
 380 690 l 1,31,-1
 380 0 l 1,32,-1
 200 0 l 1,8,-1
EndSplineSet
Validated: 1
EndChar

StartChar: uni1E40
Encoding: 7744 7744 206
Width: 2277
Flags: W
HStem: 0 10<721 730.085 1664 1673.08> 1500 10<263 274.169 1216 1227.17> 1610 264<877.191 1058.81>
VStem: 5 196<0 196> 838 260<1649.71 1834.29> 1957 220<225.137 686.382>
DStem2: 5 0 201 0 0.269157 0.963096<52.7547 1430.57> 1153 695 1221 274 0.268849 0.963182<0 708.732>
LayerCount: 2
Fore
SplineSet
968 1874 m 128,-1,1
 1022 1874 1022 1874 1060 1835.5 c 128,-1,2
 1098 1797 1098 1797 1098 1742 c 128,-1,3
 1098 1687 1098 1687 1060 1648.5 c 128,-1,4
 1022 1610 1022 1610 968 1610 c 128,-1,5
 914 1610 914 1610 876 1648.5 c 128,-1,6
 838 1687 838 1687 838 1742 c 128,-1,7
 838 1797 838 1797 876 1835.5 c 128,-1,0
 914 1874 914 1874 968 1874 c 128,-1,1
721 0 m 1,8,-1
 721 10 l 1,9,10
 1014 106 1014 106 1014 440 c 0,11,12
 1014 873 1014 873 642 1386 c 1,13,-1
 648 1394 l 1,14,15
 1004 1117 1004 1117 1153 695 c 1,16,-1
 1329 1322 l 2,17,18
 1338 1354 1338 1354 1338 1380 c 0,19,20
 1338 1458 1338 1458 1216 1500 c 1,21,-1
 1216 1510 l 1,22,-1
 1566 1510 l 1,23,-1
 1221 274 l 2,24,25
 1145 1 1145 1 721 0 c 1,8,-1
1664 0 m 1,26,-1
 1664 10 l 1,27,28
 1957 106 1957 106 1957 440 c 0,29,30
 1957 873 1957 873 1585 1386 c 1,31,-1
 1591 1394 l 1,32,33
 2177 890 2177 890 2177 440 c 0,34,35
 2177 0 2177 0 1664 0 c 1,26,-1
5 0 m 1,36,-1
 376 1322 l 2,37,38
 385 1354 385 1354 385 1380 c 0,39,40
 385 1458 385 1458 263 1500 c 1,41,-1
 263 1510 l 1,42,-1
 623 1510 l 1,43,-1
 201 0 l 1,44,-1
 5 0 l 1,36,-1
EndSplineSet
Validated: 1
EndChar

StartChar: uni1E41
Encoding: 7745 7745 207
Width: 1745
Flags: W
HStem: 0 21G<200 380 787 967 1185 1280.5> 1030 70<380 1194.25> 1090 10<60 72.8174> 1200 264<789.191 970.809>
VStem: 200 180<0 1029.75> 750 260<1239.71 1424.29> 787 180<0 850> 1445 200<326.728 769.963>
LayerCount: 2
Fore
SplineSet
880 1464 m 128,-1,1
 934 1464 934 1464 972 1425.5 c 128,-1,2
 1010 1387 1010 1387 1010 1332 c 128,-1,3
 1010 1277 1010 1277 972 1238.5 c 128,-1,4
 934 1200 934 1200 880 1200 c 128,-1,5
 826 1200 826 1200 788 1238.5 c 128,-1,6
 750 1277 750 1277 750 1332 c 128,-1,7
 750 1387 750 1387 788 1425.5 c 128,-1,0
 826 1464 826 1464 880 1464 c 128,-1,1
200 0 m 1,8,-1
 200 910 l 2,9,10
 200 1043 200 1043 60 1090 c 1,11,-1
 60 1100 l 1,12,-1
 1037 1100 l 2,13,14
 1309 1100 1309 1100 1464 960 c 0,15,16
 1645 796 1645 796 1645 550 c 0,17,18
 1645 317 1645 317 1479 150 c 0,19,20
 1366 36 1366 36 1195 -20 c 1,21,-1
 1185 -20 l 1,22,23
 1329 118 1329 118 1392 273 c 0,24,25
 1445 402 1445 402 1445 550 c 0,26,27
 1445 765 1445 765 1330 897 c 0,28,29
 1215 1030 1215 1030 1017 1030 c 2,30,-1
 380 1030 l 1,31,-1
 380 0 l 1,32,-1
 200 0 l 1,8,-1
787 0 m 1,33,-1
 787 850 l 1,34,-1
 967 850 l 1,35,-1
 967 0 l 1,36,-1
 787 0 l 1,33,-1
EndSplineSet
Validated: 1
EndChar

StartChar: uni1E56
Encoding: 7766 7766 208
Width: 1324
Flags: W
HStem: 0 21G<200 400> 360 10<574 584.955> 1430 80<400 748.789> 1500 10<60 72.8174> 1610 264<503.191 684.809>
VStem: 200 200<0 1428.67> 464 260<1649.71 1834.29> 1004 220<717.023 1182.52>
LayerCount: 2
Fore
SplineSet
594 1874 m 128,-1,1
 648 1874 648 1874 686 1835.5 c 128,-1,2
 724 1797 724 1797 724 1742 c 128,-1,3
 724 1687 724 1687 686 1648.5 c 128,-1,4
 648 1610 648 1610 594 1610 c 128,-1,5
 540 1610 540 1610 502 1648.5 c 128,-1,6
 464 1687 464 1687 464 1742 c 128,-1,7
 464 1797 464 1797 502 1835.5 c 128,-1,0
 540 1874 540 1874 594 1874 c 128,-1,1
200 0 m 1,8,-1
 200 1320 l 2,9,10
 200 1453 200 1453 60 1500 c 1,11,-1
 60 1510 l 1,12,-1
 635 1510 l 2,13,14
 889 1510 889 1510 1047 1366 c 0,15,16
 1224 1204 1224 1204 1224 954 c 0,17,18
 1224 733 1224 733 1092 568 c 0,19,20
 926 360 926 360 574 360 c 1,21,-1
 574 370 l 1,22,23
 780 428 780 428 901 586 c 0,24,25
 1004 720 1004 720 1004 954 c 0,26,27
 1004 1152 1004 1152 911 1268 c 0,28,29
 781 1430 781 1430 554 1430 c 2,30,-1
 400 1430 l 1,31,-1
 400 0 l 1,32,-1
 200 0 l 1,8,-1
EndSplineSet
Validated: 1
EndChar

StartChar: uni1E57
Encoding: 7767 7767 209
Width: 1268
Flags: W
HStem: -410 21G<200 380> 0 10<528 537.094> 1030 70<380 716.75> 1090 10<60 72.8174> 1200 264<494.191 675.809>
VStem: 200 180<-410 1029.75> 455 260<1239.71 1424.29> 968 200<336.097 773.062>
LayerCount: 2
Fore
SplineSet
585 1464 m 128,-1,1
 639 1464 639 1464 677 1425.5 c 128,-1,2
 715 1387 715 1387 715 1332 c 128,-1,3
 715 1277 715 1277 677 1238.5 c 128,-1,4
 639 1200 639 1200 585 1200 c 128,-1,5
 531 1200 531 1200 493 1238.5 c 128,-1,6
 455 1277 455 1277 455 1332 c 128,-1,7
 455 1387 455 1387 493 1425.5 c 128,-1,0
 531 1464 531 1464 585 1464 c 128,-1,1
200 -410 m 25,8,-1
 200 910 l 10,9,10
 200 1043 200 1043 60 1090 c 1,11,-1
 60 1100 l 1,12,-1
 560 1100 l 2,13,14
 832 1100 832 1100 987 960 c 0,15,16
 1168 798 1168 798 1168 550 c 0,17,18
 1168 292 1168 292 987 140 c 0,19,20
 820 0 820 0 528 0 c 9,21,-1
 528 10 l 17,22,23
 746 82 746 82 847 210 c 0,24,25
 968 362 968 362 968 550 c 0,26,27
 968 765 968 765 853 897 c 0,28,29
 737 1030 737 1030 540 1030 c 2,30,-1
 380 1030 l 1,31,-1
 380 -410 l 1,32,-1
 200 -410 l 25,8,-1
EndSplineSet
Validated: 1
EndChar

StartChar: uni1E60
Encoding: 7776 7776 210
Width: 1269
Flags: W
HStem: -20 80<451.224 788.605> 1450 80<533.186 779.755> 1610 264<573.191 754.809>
VStem: 290 165<1143.06 1371.51> 534 260<1649.71 1834.29> 993 196<297.18 613.133>
DStem2: 647 1041 563 862 0.907167 -0.420771<-197.835 422.915>
LayerCount: 2
Fore
SplineSet
664 1874 m 128,-1,1
 718 1874 718 1874 756 1835.5 c 128,-1,2
 794 1797 794 1797 794 1742 c 128,-1,3
 794 1687 794 1687 756 1648.5 c 128,-1,4
 718 1610 718 1610 664 1610 c 128,-1,5
 610 1610 610 1610 572 1648.5 c 128,-1,6
 534 1687 534 1687 534 1742 c 128,-1,7
 534 1797 534 1797 572 1835.5 c 128,-1,0
 610 1874 610 1874 664 1874 c 128,-1,1
611 -20 m 0,8,9
 372 -20 372 -20 234 112 c 0,10,11
 142 200 142 200 80 354 c 1,12,-1
 295 565 l 1,13,-1
 302 559 l 1,14,15
 281 476 281 476 281 381 c 0,16,17
 281 267 281 267 343 190 c 0,18,19
 447 60 447 60 614 60 c 0,20,21
 795 60 795 60 900 189 c 0,22,23
 993 303 993 303 993 446 c 0,24,25
 993 659 993 659 781 759 c 2,26,-1
 563 862 l 2,27,28
 290 991 290 991 290 1210 c 0,29,30
 290 1351 290 1351 397 1444 c 0,31,32
 496 1530 496 1530 661 1530 c 128,-1,33
 826 1530 826 1530 921 1438 c 0,34,35
 968 1391 968 1391 997 1322 c 1,36,-1
 843 1169 l 1,37,-1
 836 1175 l 1,38,39
 846 1207 846 1207 846 1242 c 0,40,41
 846 1309 846 1309 819 1361 c 0,42,43
 773 1450 773 1450 667 1450 c 0,44,45
 574 1450 574 1450 513 1395 c 0,46,47
 455 1342 455 1342 455 1255 c 0,48,49
 455 1130 455 1130 647 1041 c 2,50,-1
 882 932 l 2,51,52
 1189 790 1189 790 1189 498 c 0,53,54
 1189 287 1189 287 1022 135 c 0,55,56
 851 -20 851 -20 611 -20 c 0,8,9
EndSplineSet
Validated: 1
EndChar

StartChar: uni1E61
Encoding: 7777 7777 211
Width: 964
Flags: W
HStem: -20 69<333.601 585.403> 1051 69<400.795 591.395> 1200 264<418.191 599.809>
VStem: 218 138<821.649 1006.45> 379 260<1239.71 1424.29> 718 166<197.724 446.536>
DStem2: 472 772 400 611 0.893545 -0.448973<-140.847 359.077>
LayerCount: 2
Fore
SplineSet
509 1464 m 128,-1,1
 563 1464 563 1464 601 1425.5 c 128,-1,2
 639 1387 639 1387 639 1332 c 128,-1,3
 639 1277 639 1277 601 1238.5 c 128,-1,4
 563 1200 563 1200 509 1200 c 128,-1,5
 455 1200 455 1200 417 1238.5 c 128,-1,6
 379 1277 379 1277 379 1332 c 128,-1,7
 379 1387 379 1387 417 1425.5 c 128,-1,0
 455 1464 455 1464 509 1464 c 128,-1,1
452 -20 m 0,8,9
 332 -20 332 -20 242 34 c 0,10,11
 136 98 136 98 80 218 c 1,12,-1
 234 371 l 1,13,-1
 241 365 l 1,14,15
 231 333 231 333 231 298 c 0,16,17
 231 220 231 220 264 161 c 0,18,19
 327 49 327 49 454 49 c 0,20,21
 583 49 583 49 660 148 c 0,22,23
 718 223 718 223 718 317 c 0,24,25
 718 449 718 449 589 515 c 2,26,-1
 400 611 l 2,27,28
 218 703 218 703 218 866 c 0,29,30
 218 979 218 979 311 1059 c 0,31,32
 382 1120 382 1120 506 1120 c 0,33,34
 625 1120 625 1120 694 1054 c 0,35,36
 734 1016 734 1016 756 964 c 1,37,-1
 628 838 l 1,38,-1
 621 844 l 1,39,40
 631 876 631 876 631 911 c 0,41,42
 631 958 631 958 610 993 c 0,43,44
 575 1051 575 1051 501 1051 c 0,45,46
 437 1051 437 1051 399 1017 c 0,47,48
 356 979 356 979 356 917 c 0,49,50
 356 830 356 830 472 772 c 2,51,-1
 675 670 l 2,52,53
 884 565 884 565 884 370 c 0,54,55
 884 200 884 200 739 79 c 24,56,57
 620 -20 620 -20 452 -20 c 0,8,9
EndSplineSet
Validated: 1
EndChar

StartChar: uni1E6A
Encoding: 7786 7786 212
Width: 1110
Flags: W
HStem: 0 21G<456 656> 1430 80<92.959 456 656 1017.04> 1610 264<469.191 650.809>
VStem: 20 10<1290 1302.82> 430 260<1649.71 1834.29> 456 200<0 1430> 1080 10<1290 1302.82>
LayerCount: 2
Fore
SplineSet
560 1874 m 128,-1,1
 614 1874 614 1874 652 1835.5 c 128,-1,2
 690 1797 690 1797 690 1742 c 128,-1,3
 690 1687 690 1687 652 1648.5 c 128,-1,4
 614 1610 614 1610 560 1610 c 128,-1,5
 506 1610 506 1610 468 1648.5 c 128,-1,6
 430 1687 430 1687 430 1742 c 128,-1,7
 430 1797 430 1797 468 1835.5 c 128,-1,0
 506 1874 506 1874 560 1874 c 128,-1,1
456 0 m 1,8,-1
 456 1430 l 1,9,-1
 210 1430 l 2,10,11
 77 1430 77 1430 30 1290 c 1,12,-1
 20 1290 l 1,13,-1
 20 1510 l 1,14,-1
 1090 1510 l 1,15,-1
 1090 1290 l 1,16,-1
 1080 1290 l 1,17,18
 1033 1430 1033 1430 900 1430 c 2,19,-1
 656 1430 l 1,20,-1
 656 0 l 1,21,-1
 456 0 l 1,8,-1
EndSplineSet
Validated: 1
EndChar

StartChar: uni1E6B
Encoding: 7787 7787 213
Width: 750
Flags: W
HStem: 0 10<507.183 520> 1030 70<380 730> 1500 10<60 72.8174> 1610 264<201.316 362.809>
VStem: 142 260<1649.71 1834.29> 200 180<67.5859 1030 1100 1442.41>
LayerCount: 2
Fore
SplineSet
272 1874 m 128,-1,1
 326 1874 326 1874 364 1835.5 c 128,-1,2
 402 1797 402 1797 402 1742 c 128,-1,3
 402 1687 402 1687 364 1648.5 c 128,-1,4
 326 1610 326 1610 272 1610 c 128,-1,5
 218 1610 218 1610 180 1648.5 c 128,-1,6
 142 1687 142 1687 142 1742 c 128,-1,7
 142 1797 142 1797 180 1835.5 c 128,-1,0
 218 1874 218 1874 272 1874 c 128,-1,1
200 0 m 1,8,-1
 200 1320 l 2,9,10
 200 1453 200 1453 60 1500 c 1,11,-1
 60 1510 l 1,12,-1
 380 1510 l 1,13,-1
 380 1100 l 1,14,-1
 730 1100 l 1,15,-1
 730 1030 l 1,16,-1
 380 1030 l 1,17,-1
 380 190 l 2,18,19
 380 57 380 57 520 10 c 1,20,-1
 520 0 l 1,21,-1
 200 0 l 1,8,-1
EndSplineSet
Validated: 1
EndChar

StartChar: Wgrave
Encoding: 7808 7808 214
Width: 2326
Flags: W
HStem: 0 10<1061.65 1073 1684.65 1696> 1500 10<5 16.4404 628 639.44 1683 1693.01>
VStem: 2006 220<842.43 1281.01>
DStem2: 324 1510 169 1359 0.395387 -0.918515<0 1556.97> 947 1510 792 1359 0.395387 -0.918515<0 1556.97>
LayerCount: 2
Fore
SplineSet
1134 1934 m 1,0,1
 1314 1807 1314 1807 1333 1560 c 1,2,-1
 1323 1560 l 1,3,4
 1190 1737 1190 1737 1006 1807 c 1,5,-1
 1134 1934 l 1,0,1
1683 1510 m 1,6,7
 2226 1510 2226 1510 2226 1070 c 0,8,9
 2226 650 2226 650 1610 116 c 1,10,-1
 1604 124 l 1,11,12
 2006 667 2006 667 2006 1070 c 0,13,14
 2006 1404 2006 1404 1683 1500 c 1,15,-1
 1683 1510 l 1,6,7
754 0 m 1,16,-1
 169 1359 l 2,17,18
 129 1453 129 1453 5 1500 c 9,19,-1
 5 1510 l 1,20,-1
 324 1510 l 1,21,-1
 909 151 l 2,22,23
 950 57 950 57 1073 10 c 9,24,-1
 1073 0 l 17,25,-1
 754 0 l 1,16,-1
1377 0 m 1,26,-1
 792 1359 l 2,27,28
 752 1453 752 1453 628 1500 c 9,29,-1
 628 1510 l 1,30,-1
 947 1510 l 1,31,-1
 1532 151 l 2,32,33
 1573 57 1573 57 1696 10 c 9,34,-1
 1696 0 l 17,35,-1
 1377 0 l 1,26,-1
EndSplineSet
Validated: 1
EndChar

StartChar: wgrave
Encoding: 7809 7809 215
Width: 1896
Flags: W
HStem: 0 10<864.649 876 1404.65 1416> 1090 10<5 16.3511 545 556.351 1322 1330.5> 1504 20G<854.843 965>
VStem: 1596 200<561.726 919.525>
DStem2: 303 1100 169 949 0.395787 -0.918342<0 1119.02> 843 1100 709 949 0.395787 -0.918342<0 1119.02>
LayerCount: 2
Fore
SplineSet
875 1524 m 1,0,1
 1055 1397 1055 1397 1074 1150 c 1,2,-1
 1064 1150 l 1,3,4
 931 1327 931 1327 747 1397 c 1,5,-1
 875 1524 l 1,0,1
876 0 m 1,6,-1
 578 0 l 1,7,-1
 169 949 l 2,8,9
 128 1045 128 1045 5 1090 c 9,10,-1
 5 1100 l 1,11,-1
 303 1100 l 1,12,-1
 712 151 l 2,13,14
 753 55 753 55 876 10 c 9,15,-1
 876 0 l 1,6,-1
1416 0 m 1,16,-1
 1118 0 l 1,17,-1
 709 949 l 2,18,19
 668 1045 668 1045 545 1090 c 9,20,-1
 545 1100 l 1,21,-1
 843 1100 l 1,22,-1
 1252 151 l 2,23,24
 1293 55 1293 55 1416 10 c 9,25,-1
 1416 0 l 1,16,-1
1322 1100 m 1,26,27
 1796 1100 1796 1100 1796 765 c 0,28,29
 1796 447 1796 447 1358 105 c 1,30,-1
 1352 113 l 1,31,32
 1596 424 1596 424 1596 734 c 0,33,34
 1596 1010 1596 1010 1322 1090 c 1,35,-1
 1322 1100 l 1,26,27
EndSplineSet
Validated: 1
EndChar

StartChar: Wacute
Encoding: 7810 7810 216
Width: 2326
Flags: W
HStem: 0 10<1061.65 1073 1684.65 1696> 1500 10<5 16.4404 628 639.44 1683 1693.01>
VStem: 2006 220<842.43 1281.01>
DStem2: 324 1510 169 1359 0.395387 -0.918515<0 1556.97> 947 1510 792 1359 0.395387 -0.918515<0 1556.97>
LayerCount: 2
Fore
SplineSet
1415 1934 m 1,0,1
 1543 1807 l 1,2,3
 1359 1737 1359 1737 1226 1560 c 1,4,-1
 1216 1560 l 1,5,6
 1235 1807 1235 1807 1415 1934 c 1,0,1
1683 1510 m 1,7,8
 2226 1510 2226 1510 2226 1070 c 0,9,10
 2226 650 2226 650 1610 116 c 1,11,-1
 1604 124 l 1,12,13
 2006 667 2006 667 2006 1070 c 0,14,15
 2006 1404 2006 1404 1683 1500 c 1,16,-1
 1683 1510 l 1,7,8
754 0 m 1,17,-1
 169 1359 l 2,18,19
 129 1453 129 1453 5 1500 c 9,20,-1
 5 1510 l 1,21,-1
 324 1510 l 1,22,-1
 909 151 l 2,23,24
 950 57 950 57 1073 10 c 9,25,-1
 1073 0 l 17,26,-1
 754 0 l 1,17,-1
1377 0 m 1,27,-1
 792 1359 l 2,28,29
 752 1453 752 1453 628 1500 c 9,30,-1
 628 1510 l 1,31,-1
 947 1510 l 1,32,-1
 1532 151 l 2,33,34
 1573 57 1573 57 1696 10 c 9,35,-1
 1696 0 l 17,36,-1
 1377 0 l 1,27,-1
EndSplineSet
Validated: 1
EndChar

StartChar: wacute
Encoding: 7811 7811 217
Width: 1896
Flags: W
HStem: 0 10<864.649 876 1404.65 1416> 1090 10<5 16.3511 545 556.351 1322 1330.5> 1504 20G<1104 1214.16>
VStem: 1596 200<561.726 919.525>
DStem2: 303 1100 169 949 0.395787 -0.918342<0 1119.02> 843 1100 709 949 0.395787 -0.918342<0 1119.02>
LayerCount: 2
Fore
SplineSet
1194 1524 m 1,0,1
 1322 1397 l 1,2,3
 1138 1327 1138 1327 1005 1150 c 1,4,-1
 995 1150 l 1,5,6
 1014 1397 1014 1397 1194 1524 c 1,0,1
876 0 m 1,7,-1
 578 0 l 1,8,-1
 169 949 l 2,9,10
 128 1045 128 1045 5 1090 c 9,11,-1
 5 1100 l 1,12,-1
 303 1100 l 1,13,-1
 712 151 l 2,14,15
 753 55 753 55 876 10 c 9,16,-1
 876 0 l 1,7,-1
1416 0 m 1,17,-1
 1118 0 l 1,18,-1
 709 949 l 2,19,20
 668 1045 668 1045 545 1090 c 9,21,-1
 545 1100 l 1,22,-1
 843 1100 l 1,23,-1
 1252 151 l 2,24,25
 1293 55 1293 55 1416 10 c 9,26,-1
 1416 0 l 1,17,-1
1322 1100 m 1,27,28
 1796 1100 1796 1100 1796 765 c 0,29,30
 1796 447 1796 447 1358 105 c 1,31,-1
 1352 113 l 1,32,33
 1596 424 1596 424 1596 734 c 0,34,35
 1596 1010 1596 1010 1322 1090 c 1,36,-1
 1322 1100 l 1,27,28
EndSplineSet
Validated: 1
EndChar

StartChar: Wdieresis
Encoding: 7812 7812 218
Width: 2326
Flags: W
HStem: 0 10<1061.65 1073 1684.65 1696> 1500 10<5 16.4404 628 639.44 1683 1693.01> 1635 212<850.456 995.544 1114.46 1259.54>
VStem: 819 208<1666.97 1815.03> 1083 208<1666.97 1815.03> 2006 220<842.43 1281.01>
DStem2: 324 1510 169 1359 0.395387 -0.918515<0 1556.97> 947 1510 792 1359 0.395387 -0.918515<0 1556.97>
LayerCount: 2
Fore
SplineSet
1187 1847 m 128,-1,1
 1230 1847 1230 1847 1260.5 1816 c 128,-1,2
 1291 1785 1291 1785 1291 1741 c 128,-1,3
 1291 1697 1291 1697 1260.5 1666 c 128,-1,4
 1230 1635 1230 1635 1187 1635 c 128,-1,5
 1144 1635 1144 1635 1113.5 1666 c 128,-1,6
 1083 1697 1083 1697 1083 1741 c 128,-1,7
 1083 1785 1083 1785 1113.5 1816 c 128,-1,0
 1144 1847 1144 1847 1187 1847 c 128,-1,1
923 1847 m 128,-1,9
 966 1847 966 1847 996.5 1816 c 128,-1,10
 1027 1785 1027 1785 1027 1741 c 128,-1,11
 1027 1697 1027 1697 996.5 1666 c 128,-1,12
 966 1635 966 1635 923 1635 c 128,-1,13
 880 1635 880 1635 849.5 1666 c 128,-1,14
 819 1697 819 1697 819 1741 c 128,-1,15
 819 1785 819 1785 849.5 1816 c 128,-1,8
 880 1847 880 1847 923 1847 c 128,-1,9
1683 1510 m 1,16,17
 2226 1510 2226 1510 2226 1070 c 0,18,19
 2226 650 2226 650 1610 116 c 1,20,-1
 1604 124 l 1,21,22
 2006 667 2006 667 2006 1070 c 0,23,24
 2006 1404 2006 1404 1683 1500 c 1,25,-1
 1683 1510 l 1,16,17
754 0 m 1,26,-1
 169 1359 l 2,27,28
 129 1453 129 1453 5 1500 c 9,29,-1
 5 1510 l 1,30,-1
 324 1510 l 1,31,-1
 909 151 l 2,32,33
 950 57 950 57 1073 10 c 9,34,-1
 1073 0 l 17,35,-1
 754 0 l 1,26,-1
1377 0 m 1,36,-1
 792 1359 l 2,37,38
 752 1453 752 1453 628 1500 c 9,39,-1
 628 1510 l 1,40,-1
 947 1510 l 1,41,-1
 1532 151 l 2,42,43
 1573 57 1573 57 1696 10 c 9,44,-1
 1696 0 l 17,45,-1
 1377 0 l 1,36,-1
EndSplineSet
Validated: 1
EndChar

StartChar: wdieresis
Encoding: 7813 7813 219
Width: 1896
Flags: W
HStem: 0 10<864.649 876 1404.65 1416> 1090 10<5 16.3511 545 556.351 1322 1330.5> 1225 212<724.456 869.544 988.456 1133.54>
VStem: 693 208<1256.97 1405.03> 957 208<1256.97 1405.03> 1596 200<561.726 919.525>
DStem2: 303 1100 169 949 0.395787 -0.918342<0 1119.02> 843 1100 709 949 0.395787 -0.918342<0 1119.02>
LayerCount: 2
Fore
SplineSet
1061 1437 m 128,-1,1
 1104 1437 1104 1437 1134.5 1406 c 128,-1,2
 1165 1375 1165 1375 1165 1331 c 128,-1,3
 1165 1287 1165 1287 1134.5 1256 c 128,-1,4
 1104 1225 1104 1225 1061 1225 c 128,-1,5
 1018 1225 1018 1225 987.5 1256 c 128,-1,6
 957 1287 957 1287 957 1331 c 128,-1,7
 957 1375 957 1375 987.5 1406 c 128,-1,0
 1018 1437 1018 1437 1061 1437 c 128,-1,1
797 1437 m 128,-1,9
 840 1437 840 1437 870.5 1406 c 128,-1,10
 901 1375 901 1375 901 1331 c 128,-1,11
 901 1287 901 1287 870.5 1256 c 128,-1,12
 840 1225 840 1225 797 1225 c 128,-1,13
 754 1225 754 1225 723.5 1256 c 128,-1,14
 693 1287 693 1287 693 1331 c 128,-1,15
 693 1375 693 1375 723.5 1406 c 128,-1,8
 754 1437 754 1437 797 1437 c 128,-1,9
876 0 m 1,16,-1
 578 0 l 1,17,-1
 169 949 l 2,18,19
 128 1045 128 1045 5 1090 c 9,20,-1
 5 1100 l 1,21,-1
 303 1100 l 1,22,-1
 712 151 l 2,23,24
 753 55 753 55 876 10 c 9,25,-1
 876 0 l 1,16,-1
1416 0 m 1,26,-1
 1118 0 l 1,27,-1
 709 949 l 2,28,29
 668 1045 668 1045 545 1090 c 9,30,-1
 545 1100 l 1,31,-1
 843 1100 l 1,32,-1
 1252 151 l 2,33,34
 1293 55 1293 55 1416 10 c 9,35,-1
 1416 0 l 1,26,-1
1322 1100 m 1,36,37
 1796 1100 1796 1100 1796 765 c 0,38,39
 1796 447 1796 447 1358 105 c 1,40,-1
 1352 113 l 1,41,42
 1596 424 1596 424 1596 734 c 0,43,44
 1596 1010 1596 1010 1322 1090 c 1,45,-1
 1322 1100 l 1,36,37
EndSplineSet
Validated: 1
EndChar

StartChar: Ygrave
Encoding: 7922 7922 220
Width: 1477
Flags: W
HStem: 0 21G<660 860> 1500 10<5 17.5654 938 945.1>
VStem: 660 200<0 504> 1167 210<985.84 1348.77>
DStem2: 339 1510 193 1361 0.474697 -0.880149<0 1037.81>
LayerCount: 2
Fore
SplineSet
507 1934 m 1,0,1
 687 1807 687 1807 706 1560 c 1,2,-1
 696 1560 l 1,3,4
 563 1737 563 1737 379 1807 c 1,5,-1
 507 1934 l 1,0,1
660 0 m 1,6,-1
 660 504 l 1,7,-1
 193 1361 l 2,8,9
 141 1457 141 1457 5 1500 c 1,10,-1
 5 1510 l 1,11,-1
 339 1510 l 1,12,-1
 860 544 l 1,13,-1
 860 0 l 1,14,-1
 660 0 l 1,6,-1
938 1510 m 1,15,16
 1377 1510 1377 1510 1377 1170 c 0,17,18
 1377 879 1377 879 927 576 c 1,19,-1
 921 584 l 1,20,21
 1167 872 1167 872 1167 1170 c 0,22,23
 1167 1415 1167 1415 938 1500 c 1,24,-1
 938 1510 l 1,15,16
EndSplineSet
Validated: 1
EndChar

StartChar: ygrave
Encoding: 7923 7923 221
Width: 1268
Flags: W
HStem: -410 10<458 468.559> 0 70<550.75 869> 1100 0G<464.5 560 888 1068> 1504 20G<517.843 628>
VStem: 100 200<330.536 773.272> 888 180<71.5637 1100>
LayerCount: 2
Fore
SplineSet
538 1524 m 1,0,1
 718 1397 718 1397 737 1150 c 1,2,-1
 727 1150 l 1,3,4
 594 1327 594 1327 410 1397 c 1,5,-1
 538 1524 l 1,0,1
708 0 m 2,6,7
 434 0 434 0 281 140 c 0,8,9
 100 306 100 306 100 550 c 0,10,11
 100 783 100 783 266 950 c 0,12,13
 379 1064 379 1064 550 1120 c 1,14,-1
 560 1120 l 1,15,16
 416 982 416 982 353 827 c 0,17,18
 300 698 300 698 300 550 c 0,19,20
 300 335 300 335 415 203 c 0,21,22
 530 70 530 70 728 70 c 2,23,-1
 882 70 l 1,24,25
 888 120 888 120 888 175 c 2,26,-1
 888 1100 l 1,27,-1
 1068 1100 l 1,28,-1
 1068 175 l 2,29,30
 1068 -410 1068 -410 458 -410 c 1,31,-1
 458 -400 l 1,32,33
 798 -304 798 -304 869 0 c 1,34,-1
 708 0 l 2,6,7
EndSplineSet
Validated: 1
EndChar

StartChar: f
Encoding: 102 102 222
Width: 1163
Flags: W
HStem: 0 21G<200 380> 690 70<380 872> 1461 69<589.043 888.455>
VStem: 200 180<0 690 760 1200.23>
LayerCount: 2
Fore
SplineSet
200 0 m 1,0,-1
 200 960 l 2,1,2
 200 1188 200 1188 330 1346 c 0,3,4
 483 1530 483 1530 738 1530 c 0,5,6
 996 1530 996 1530 1153 1336 c 1,7,-1
 999 1183 l 1,8,-1
 992 1189 l 1,9,10
 1002 1221 1002 1221 1002 1256 c 0,11,12
 1002 1303 1002 1303 981 1338 c 0,13,14
 908 1461 908 1461 738 1461 c 0,15,16
 571 1461 571 1461 478 1329 c 0,17,18
 380 1192 380 1192 380 960 c 2,19,-1
 380 760 l 1,20,-1
 872 760 l 1,21,-1
 872 690 l 1,22,-1
 380 690 l 1,23,-1
 380 0 l 1,24,-1
 200 0 l 1,0,-1
EndSplineSet
Validated: 1
EndChar

StartChar: Aringacute
Encoding: 506 506 223
Width: 1584
Flags: W
HStem: 0 10<941 951.015> 715 80<548 1073> 1500 10<466 477.169> 1570 70<643.449 782.551> 1856 70<643.449 782.551>
VStem: 537 79<1667.35 1828.65> 810 79<1667.35 1828.65> 1264 220<228.99 667.57>
DStem2: 5 0 205 0 0.395387 0.918515<79.0774 857.199 944.914 1497.34>
LayerCount: 2
Fore
SplineSet
1084 1934 m 1,0,1
 1212 1807 l 1,2,3
 1028 1737 1028 1737 895 1560 c 1,4,-1
 885 1560 l 1,5,6
 904 1807 904 1807 1084 1934 c 1,0,1
713 1856 m 128,-1,8
 673 1856 673 1856 644.5 1824.5 c 128,-1,9
 616 1793 616 1793 616 1748 c 128,-1,10
 616 1703 616 1703 644.5 1671.5 c 128,-1,11
 673 1640 673 1640 713 1640 c 128,-1,12
 753 1640 753 1640 781.5 1671.5 c 128,-1,13
 810 1703 810 1703 810 1748 c 128,-1,14
 810 1793 810 1793 781.5 1824.5 c 128,-1,7
 753 1856 753 1856 713 1856 c 128,-1,8
713 1926 m 128,-1,16
 786 1926 786 1926 837.5 1874 c 128,-1,17
 889 1822 889 1822 889 1748 c 128,-1,18
 889 1674 889 1674 837.5 1622 c 128,-1,19
 786 1570 786 1570 713 1570 c 128,-1,20
 640 1570 640 1570 588.5 1622 c 128,-1,21
 537 1674 537 1674 537 1748 c 128,-1,22
 537 1822 537 1822 588.5 1874 c 128,-1,15
 640 1926 640 1926 713 1926 c 128,-1,16
5 0 m 9,23,-1
 574 1322 l 2,24,25
 588 1355 588 1355 588 1380 c 0,26,27
 588 1458 588 1458 466 1500 c 1,28,-1
 466 1510 l 1,29,-1
 855 1510 l 1,30,-1
 548 795 l 1,31,-1
 1073 795 l 1,32,-1
 1073 715 l 1,33,-1
 512 715 l 1,34,-1
 205 0 l 1,35,-1
 5 0 l 9,23,-1
941 0 m 1,36,-1
 941 10 l 1,37,38
 1264 106 1264 106 1264 440 c 0,39,40
 1264 843 1264 843 862 1386 c 1,41,-1
 868 1394 l 1,42,43
 1484 860 1484 860 1484 440 c 0,44,45
 1484 0 1484 0 941 0 c 1,36,-1
EndSplineSet
Validated: 1
EndChar

StartChar: aringacute
Encoding: 507 507 224
Width: 1268
Flags: W
HStem: 0 10<730.906 740 1195.18 1208> 1030 70<550.25 888> 1160 70<487.449 626.551> 1446 70<487.449 626.551>
VStem: 100 200<336.097 773.062> 381 79<1257.35 1418.65> 654 79<1257.35 1418.65> 888 180<67.5859 1030>
LayerCount: 2
Fore
SplineSet
938 1524 m 1,0,1
 1066 1397 l 1,2,3
 882 1327 882 1327 749 1150 c 1,4,-1
 739 1150 l 1,5,6
 758 1397 758 1397 938 1524 c 1,0,1
557 1446 m 128,-1,8
 517 1446 517 1446 488.5 1414.5 c 128,-1,9
 460 1383 460 1383 460 1338 c 128,-1,10
 460 1293 460 1293 488.5 1261.5 c 128,-1,11
 517 1230 517 1230 557 1230 c 128,-1,12
 597 1230 597 1230 625.5 1261.5 c 128,-1,13
 654 1293 654 1293 654 1338 c 128,-1,14
 654 1383 654 1383 625.5 1414.5 c 128,-1,7
 597 1446 597 1446 557 1446 c 128,-1,8
557 1516 m 128,-1,16
 630 1516 630 1516 681.5 1464 c 128,-1,17
 733 1412 733 1412 733 1338 c 128,-1,18
 733 1264 733 1264 681.5 1212 c 128,-1,19
 630 1160 630 1160 557 1160 c 128,-1,20
 484 1160 484 1160 432.5 1212 c 128,-1,21
 381 1264 381 1264 381 1338 c 128,-1,22
 381 1412 381 1412 432.5 1464 c 128,-1,15
 484 1516 484 1516 557 1516 c 128,-1,16
1208 0 m 1,23,-1
 888 0 l 1,24,-1
 888 1030 l 1,25,-1
 728 1030 l 2,26,27
 529 1030 529 1030 415 897 c 0,28,29
 300 765 300 765 300 550 c 0,30,31
 300 362 300 362 421 210 c 0,32,33
 522 82 522 82 740 10 c 9,34,-1
 740 0 l 17,35,36
 448 0 448 0 281 140 c 0,37,38
 100 292 100 292 100 550 c 0,39,40
 100 798 100 798 281 960 c 0,41,42
 436 1100 436 1100 708 1100 c 2,43,-1
 1068 1100 l 1,44,-1
 1068 190 l 2,45,46
 1068 57 1068 57 1208 10 c 1,47,-1
 1208 0 l 1,23,-1
EndSplineSet
Validated: 1
EndChar

StartChar: circumflex
Encoding: 710 710 225
Width: 610
Flags: W
HStem: 1461 48<276 334>
VStem: 50 510
LayerCount: 2
Fore
SplineSet
310 1509 m 1,0,1
 388 1346 388 1346 560 1262 c 1,2,-1
 462 1165 l 1,3,4
 323 1272 323 1272 305 1461 c 1,5,6
 287 1272 287 1272 148 1165 c 1,7,-1
 50 1262 l 1,8,9
 222 1346 222 1346 300 1509 c 1,10,-1
 310 1509 l 1,0,1
EndSplineSet
Validated: 1
EndChar

StartChar: caron
Encoding: 711 711 226
Width: 610
Flags: W
HStem: 1165 48<276 334> 1489 20G<127.794 217.5 392.5 482.206>
VStem: 50 510
LayerCount: 2
Fore
SplineSet
148 1509 m 1,0,1
 287 1402 287 1402 305 1213 c 1,2,3
 323 1402 323 1402 462 1509 c 1,4,-1
 560 1412 l 1,5,6
 388 1328 388 1328 310 1165 c 1,7,-1
 300 1165 l 1,8,9
 222 1328 222 1328 50 1412 c 1,10,-1
 148 1509 l 1,0,1
EndSplineSet
Validated: 1
EndChar

StartChar: uni02C9
Encoding: 713 713 227
Width: 598
Flags: W
HStem: 1280 100<50 548>
VStem: 50 498<1280 1380>
LayerCount: 2
Fore
SplineSet
50 1380 m 5,0,-1
 548 1380 l 5,1,-1
 548 1280 l 5,2,-1
 50 1280 l 5,3,-1
 50 1380 l 5,0,-1
EndSplineSet
Validated: 1
EndChar

StartChar: breve
Encoding: 728 728 228
Width: 598
Flags: W
HStem: 1220 106<145.83 452.17>
VStem: 50 50<1390.69 1441> 498 50<1390.69 1441>
LayerCount: 2
Fore
SplineSet
50 1441 m 1,0,1
 100 1441 l 1,2,3
 129 1326 129 1326 299 1326 c 128,-1,4
 469 1326 469 1326 498 1441 c 1,5,-1
 548 1441 l 1,6,7
 510 1220 510 1220 299 1220 c 128,-1,8
 88 1220 88 1220 50 1441 c 1,0,1
EndSplineSet
Validated: 1
EndChar

StartChar: dotaccent
Encoding: 729 729 229
Width: 360
Flags: W
HStem: 1200 264<89.1914 270.809>
VStem: 50 260<1239.71 1424.29>
LayerCount: 2
Fore
SplineSet
180 1464 m 128,-1,1
 234 1464 234 1464 272 1425.5 c 128,-1,2
 310 1387 310 1387 310 1332 c 128,-1,3
 310 1277 310 1277 272 1238.5 c 128,-1,4
 234 1200 234 1200 180 1200 c 128,-1,5
 126 1200 126 1200 88 1238.5 c 128,-1,6
 50 1277 50 1277 50 1332 c 128,-1,7
 50 1387 50 1387 88 1425.5 c 128,-1,0
 126 1464 126 1464 180 1464 c 128,-1,1
EndSplineSet
Validated: 1
EndChar

StartChar: ring
Encoding: 730 730 230
Width: 452
Flags: W
HStem: 1160 70<156.449 295.551> 1446 70<156.449 295.551>
VStem: 50 79<1257.35 1418.65> 323 79<1257.35 1418.65>
LayerCount: 2
Fore
SplineSet
226 1446 m 128,-1,1
 186 1446 186 1446 157.5 1414.5 c 128,-1,2
 129 1383 129 1383 129 1338 c 128,-1,3
 129 1293 129 1293 157.5 1261.5 c 128,-1,4
 186 1230 186 1230 226 1230 c 128,-1,5
 266 1230 266 1230 294.5 1261.5 c 128,-1,6
 323 1293 323 1293 323 1338 c 128,-1,7
 323 1383 323 1383 294.5 1414.5 c 128,-1,0
 266 1446 266 1446 226 1446 c 128,-1,1
226 1516 m 128,-1,9
 299 1516 299 1516 350.5 1464 c 128,-1,10
 402 1412 402 1412 402 1338 c 128,-1,11
 402 1264 402 1264 350.5 1212 c 128,-1,12
 299 1160 299 1160 226 1160 c 128,-1,13
 153 1160 153 1160 101.5 1212 c 128,-1,14
 50 1264 50 1264 50 1338 c 128,-1,15
 50 1412 50 1412 101.5 1464 c 128,-1,8
 153 1516 153 1516 226 1516 c 128,-1,9
EndSplineSet
Validated: 1
EndChar

StartChar: ogonek
Encoding: 731 731 231
Width: 403
Flags: W
HStem: -430 172<215.903 353> -20 20G<102 221>
VStem: 50 120<-227.34 -66.2817>
LayerCount: 2
Fore
SplineSet
154 0 m 1,0,1
 221 0 l 1,2,3
 170 -81 170 -81 170 -142 c 0,4,5
 170 -199 170 -199 214.5 -228.5 c 128,-1,6
 259 -258 259 -258 353 -258 c 1,7,8
 353 -430 l 1,9,10
 192 -430 192 -430 108 -346 c 0,11,12
 50 -289 50 -289 50 -207 c 0,13,14
 50 -91 50 -91 154 0 c 1,0,1
EndSplineSet
Validated: 1
EndChar

StartChar: tilde
Encoding: 732 732 232
Width: 670
Flags: W
HStem: 1220 102<381.62 539.926> 1339 102<130.074 288.38>
VStem: 50 50<1220 1283.67> 570 50<1377.33 1441>
DStem2: 417 1340 253 1321 0.802043 -0.597266<-172.718 52.5306>
LayerCount: 2
Fore
SplineSet
570 1441 m 1,0,-1
 620 1441 l 1,1,2
 582 1220 582 1220 442 1220 c 0,3,4
 389 1220 389 1220 347 1251 c 2,5,-1
 253 1321 l 2,6,7
 229 1339 229 1339 200 1339 c 0,8,9
 129 1339 129 1339 100 1220 c 1,10,-1
 50 1220 l 1,11,12
 88 1441 88 1441 228 1441 c 0,13,14
 281 1441 281 1441 323 1410 c 2,15,-1
 417 1340 l 2,16,17
 441 1322 441 1322 470 1322 c 0,18,19
 541 1322 541 1322 570 1441 c 1,0,-1
EndSplineSet
Validated: 1
EndChar

StartChar: hungarumlaut
Encoding: 733 733 233
Width: 623
Flags: W
HStem: 1186 317
VStem: 50 523
LayerCount: 2
Fore
SplineSet
452 1503 m 1,0,-1
 573 1383 l 1,1,2
 396 1334 396 1334 296 1186 c 1,3,-1
 286 1186 l 1,4,5
 305 1374 305 1374 452 1503 c 1,0,-1
216 1503 m 1,6,-1
 337 1383 l 1,7,8
 160 1334 160 1334 60 1186 c 1,9,-1
 50 1186 l 1,10,11
 69 1374 69 1374 216 1503 c 1,6,-1
EndSplineSet
Validated: 1
EndChar

StartChar: uni1E9E
Encoding: 7838 7838 234
Width: 1318
Flags: W
HStem: 0 10<580 589.715> 936 80<663 759.914> 1430 80<400 700.817> 1500 10<60 72.8174>
VStem: 200 200<0 1428.67> 998 220<309.113 720.402>
DStem2: 537 1016 663 1016 0.725766 0.687941<91.4466 377.688>
LayerCount: 2
Fore
SplineSet
200 0 m 1,0,-1
 200 1320 l 2,1,2
 200 1453 200 1453 60 1500 c 1,3,-1
 60 1510 l 1,4,-1
 581 1510 l 2,5,6
 779 1510 779 1510 883 1425 c 0,7,8
 937 1381 937 1381 970 1307 c 1,9,-1
 663 1016 l 1,10,11
 931 1016 931 1016 1097 846 c 0,12,13
 1218 721 1218 721 1218 514 c 0,14,15
 1218 303 1218 303 1062 158 c 0,16,17
 892 0 892 0 580 0 c 1,18,19
 580 10 l 1,20,21
 802 70 802 70 896 192 c 0,22,23
 998 326 998 326 998 514 c 0,24,25
 998 670 998 670 920 776 c 0,26,27
 802 936 802 936 537 936 c 1,28,-1
 537 1016 l 1,29,-1
 793 1270 l 1,30,31
 780 1336 780 1336 725 1377 c 0,32,33
 654 1430 654 1430 536 1430 c 2,34,-1
 400 1430 l 1,35,-1
 400 0 l 1,36,-1
 200 0 l 1,0,-1
EndSplineSet
Validated: 1
EndChar

StartChar: uni203D
Encoding: 8253 8253 235
Width: 1321
Flags: W
HStem: -20 264<537.191 718.809> 1450 80<494.307 810.365>
VStem: 498 260<19.7072 204.293> 523 208<782.75 1244.54> 597 36<340.583 408.621> 968 203<912.966 1280.91>
LayerCount: 2
Fore
SplineSet
628 -20 m 128,-1,1
 574 -20 574 -20 536 18.5 c 128,-1,2
 498 57 498 57 498 112 c 128,-1,3
 498 167 498 167 536 205.5 c 128,-1,4
 574 244 574 244 628 244 c 128,-1,5
 682 244 682 244 720 205.5 c 128,-1,6
 758 167 758 167 758 112 c 128,-1,7
 758 57 758 57 720 18.5 c 128,-1,0
 682 -20 682 -20 628 -20 c 128,-1,1
664 1530 m 0,8,9
 884 1530 884 1530 1013 1422 c 0,10,11
 1171 1289 1171 1289 1171 1084 c 0,12,13
 1171 845 1171 845 928 671 c 2,14,-1
 804 582 l 2,15,16
 633 459 633 459 633 327 c 1,17,-1
 623 327 l 1,18,19
 597 366 597 366 597 411 c 0,20,21
 597 436 597 436 605 464 c 1,22,-1
 525 1144 l 2,23,24
 523 1161 523 1161 523 1171 c 0,25,26
 523 1215 523 1215 553.5 1245.5 c 128,-1,27
 584 1276 584 1276 627 1276 c 128,-1,28
 670 1276 670 1276 700.5 1245.5 c 128,-1,29
 731 1215 731 1215 731 1171 c 0,30,31
 731 1161 731 1161 729 1144 c 2,32,-1
 663 580 l 1,33,34
 692 622 692 622 733 669 c 2,35,-1
 844 794 l 2,36,37
 968 934 968 934 968 1100 c 0,38,39
 968 1236 968 1236 894 1336 c 0,40,41
 809 1450 809 1450 657 1450 c 0,42,43
 498 1450 498 1450 400 1331 c 0,44,45
 344 1263 344 1263 344 1169 c 0,46,47
 344 1088 344 1088 371 1009 c 1,48,-1
 365 1001 l 1,49,-1
 150 1212 l 1,50,51
 216 1315 216 1315 324 1408 c 0,52,53
 464 1530 464 1530 664 1530 c 0,8,9
EndSplineSet
Validated: 1
EndChar

StartChar: afii61352
Encoding: 8470 8470 236
Width: 2219
Flags: W
HStem: 0 100<1491 2069> 0 10<809 819.387> 144 46<1711.17 1850.68> 676 46<1709.53 1848.06> 1500 10<60 72.8174>
VStem: 200 200<0 1442.41> 1162 190<904 1510> 1491 140<270.838 595.14> 1927 142<267.734 595.488>
LayerCount: 2
Fore
SplineSet
1491 100 m 1,0,-1
 2069 100 l 1,1,-1
 2069 0 l 1,2,-1
 1491 0 l 1,3,-1
 1491 100 l 1,0,-1
1778 676 m 0,4,5
 1711 676 1711 676 1671 610 c 0,6,7
 1631 542 1631 542 1631 433 c 128,-1,8
 1631 324 1631 324 1672 257 c 128,-1,9
 1713 190 1713 190 1781 190 c 0,10,11
 1851 190 1851 190 1888 256 c 0,12,13
 1927 324 1927 324 1927 434 c 0,14,15
 1927 546 1927 546 1888 610 c 0,16,17
 1847 676 1847 676 1778 676 c 0,4,5
1781 722 m 0,18,19
 1923 722 1923 722 1996 635 c 128,-1,20
 2069 548 2069 548 2069 432 c 128,-1,21
 2069 316 2069 316 2003 238 c 0,22,23
 1923 144 1923 144 1778 144 c 0,24,25
 1635 144 1635 144 1563 232 c 128,-1,26
 1491 320 1491 320 1491 434 c 128,-1,27
 1491 548 1491 548 1564 635 c 128,-1,28
 1637 722 1637 722 1781 722 c 0,18,19
200 0 m 1,29,-1
 200 1320 l 2,30,31
 200 1453 200 1453 60 1500 c 1,32,-1
 60 1510 l 1,33,-1
 400 1510 l 1,34,-1
 400 0 l 1,35,-1
 200 0 l 1,29,-1
809 0 m 1,36,-1
 809 10 l 1,37,38
 1144 110 1144 110 1144 440 c 0,39,40
 1144 897 1144 897 477 1443 c 1,41,-1
 483 1451 l 1,42,43
 903 1252 903 1252 1162 904 c 1,44,-1
 1162 1510 l 1,45,-1
 1352 1510 l 1,46,-1
 1352 455 l 2,47,48
 1352 -0 1352 -0 809 0 c 1,36,-1
EndSplineSet
Validated: 1
EndChar

StartChar: uni2117
Encoding: 8471 8471 237
Width: 1401
Flags: W
HStem: 386 55<534.73 857.893> 728 10<676 692.51> 1260 51<629 786.104> 1475 55<542.972 858.032>
VStem: 150 60<779.952 1138.53> 489 140<546 1259.55> 891 149<870.303 1181.15> 1190 61<771.255 1146.12>
LayerCount: 2
Fore
SplineSet
419 1311 m 1,0,-1
 727 1311 l 2,1,2
 868 1311 868 1311 955 1230 c 0,3,4
 1040 1152 1040 1152 1040 1034 c 0,5,6
 1040 898 1040 898 951 818 c 0,7,8
 854 728 854 728 676 728 c 1,9,-1
 676 738 l 1,10,11
 773 757 773 757 832 835 c 0,12,13
 891 912 891 912 891 1020 c 0,14,15
 891 1125 891 1125 845 1184 c 0,16,17
 786 1260 786 1260 686 1260 c 2,18,-1
 629 1260 l 1,19,-1
 629 546 l 1,20,-1
 489 546 l 1,21,-1
 489 1212 l 2,22,23
 489 1277 489 1277 419 1301 c 1,24,-1
 419 1311 l 1,0,-1
701 1530 m 0,25,26
 943 1530 943 1530 1099 1357 c 0,27,28
 1251 1188 1251 1188 1251 953 c 0,29,30
 1251 701 1251 701 1090 549 c 0,31,32
 919 386 919 386 699 386 c 0,33,34
 476 386 476 386 311 549 c 0,35,36
 150 708 150 708 150 953 c 0,37,38
 150 1197 150 1197 308 1362 c 0,39,40
 469 1530 469 1530 701 1530 c 0,25,26
699 1475 m 0,41,42
 503 1475 503 1475 357 1330 c 0,43,44
 210 1184 210 1184 210 953 c 0,45,46
 210 751 210 751 354 591 c 0,47,48
 489 441 489 441 701 441 c 0,49,50
 898 441 898 441 1047 591 c 0,51,52
 1190 736 1190 736 1190 953 c 0,53,54
 1190 1188 1190 1188 1049 1327 c 0,55,56
 899 1475 899 1475 699 1475 c 0,41,42
EndSplineSet
Validated: 1
EndChar

StartChar: integral
Encoding: 8747 8747 238
Width: 989
Flags: W
HStem: -250 80<50 244.175> 1680 80<744.825 939>
VStem: 407 175<-7.31201 1517.31>
LayerCount: 2
Fore
SplineSet
50 -250 m 1,0,1
 50 -170 l 1,2,3
 407 -170 407 -170 407 200 c 2,4,-1
 407 1310 l 2,5,6
 407 1760 407 1760 939 1760 c 1,7,-1
 939 1680 l 1,8,9
 582 1680 582 1680 582 1310 c 2,10,-1
 582 200 l 2,11,12
 582 -250 582 -250 50 -250 c 1,0,1
EndSplineSet
Validated: 1
EndChar

StartChar: Agrave
Encoding: 192 192 239
Width: 1584
Flags: W
HStem: 0 10<941 951.015> 715 80<548 1073> 1500 10<466 477.169>
VStem: 1264 220<228.99 667.57>
DStem2: 5 0 205 0 0.395387 0.918515<79.0774 857.199 944.914 1497.34>
CounterMasks: 1 e0
LayerCount: 2
Fore
SplineSet
565 1934 m 1,0,1
 745 1807 745 1807 764 1560 c 1,2,-1
 754 1560 l 1,3,4
 621 1737 621 1737 437 1807 c 1,5,-1
 565 1934 l 1,0,1
5 0 m 9,6,-1
 574 1322 l 2,7,8
 588 1355 588 1355 588 1380 c 0,9,10
 588 1458 588 1458 466 1500 c 1,11,-1
 466 1510 l 1,12,-1
 855 1510 l 1,13,-1
 548 795 l 1,14,-1
 1073 795 l 1,15,-1
 1073 715 l 1,16,-1
 512 715 l 1,17,-1
 205 0 l 1,18,-1
 5 0 l 9,6,-1
941 0 m 1,19,-1
 941 10 l 1,20,21
 1264 106 1264 106 1264 440 c 0,22,23
 1264 843 1264 843 862 1386 c 1,24,-1
 868 1394 l 1,25,26
 1484 860 1484 860 1484 440 c 0,27,28
 1484 0 1484 0 941 0 c 1,19,-1
EndSplineSet
Validated: 1
EndChar

